<?xml version="1.0" encoding="iso-8859-1"?>
<!-- Generator: Adobe Illustrator 19.0.0, SVG Export Plug-In . SVG Version: 6.00 Build 0)  -->
<svg version="1.1" id="Layer_1" xmlns="http://www.w3.org/2000/svg" xmlns:xlink="http://www.w3.org/1999/xlink" x="0px" y="0px"
	 viewBox="0 0 488.8 488.8" style="enable-background:new 0 0 488.8 488.8;" xml:space="preserve">
<path style="fill:#12DB55;" d="M488,358.939c0,9.6-8,18.4-18.4,18.4H18.4c-9.6,0-18.4-8-18.4-18.4v-178.4c0-9.6,8-18.4,18.4-18.4
	h452c9.6,0,18.4,8,18.4,18.4v178.4H488z"/>
<path style="fill:#19BF55;" d="M488,367.739c0,9.6-8,18.4-18.4,18.4H18.4c-9.6,0-18.4-8-18.4-18.4v-177.6c0-9.6,8-18.4,18.4-18.4
	h452c9.6,0,18.4,8,18.4,18.4v177.6H488z"/>
<path style="fill:#B9DBD7;" d="M0,238.939v166.4c0,9.6,8,18.4,18.4,18.4h452c9.6,0,18.4-8,18.4-18.4v-166.4H0z"/>
<path style="fill:#DAEFEF;" d="M0,231.739v166.4c0,9.6,8,18.4,18.4,18.4h452c9.6,0,18.4-8,18.4-18.4v-166.4H0z"/>
<path style="fill:#C6E5E2;" d="M469.6,416.539c9.6,0,18.4-8,18.4-18.4v-166.4H0"/>
<g>
	<path style="fill:#B9DBD7;" d="M463.2,352.539c0,1.6-0.8,2.4-2.4,2.4H27.2c-1.6,0-2.4-0.8-2.4-2.4l0,0c0-1.6,0.8-2.4,2.4-2.4h433.6
		C462.4,350.139,463.2,350.939,463.2,352.539L463.2,352.539z"/>
	<path style="fill:#B9DBD7;" d="M463.2,323.739c0,1.6-0.8,2.4-2.4,2.4H27.2c-1.6,0-2.4-0.8-2.4-2.4l0,0c0-1.6,0.8-2.4,2.4-2.4h433.6
		C462.4,321.339,463.2,322.939,463.2,323.739L463.2,323.739z"/>
	<path style="fill:#B9DBD7;" d="M463.2,295.739c0,1.6-0.8,2.4-2.4,2.4H27.2c-1.6,0-2.4-0.8-2.4-2.4l0,0c0-1.6,0.8-2.4,2.4-2.4h433.6
		C462.4,292.539,463.2,294.139,463.2,295.739L463.2,295.739z"/>
	<rect y="231.739" style="fill:#B9DBD7;" width="488" height="34.4"/>
</g>
<polygon style="fill:#A3CCC6;" points="0,231.739 87.2,266.139 488,266.139 488,231.739 "/>
<rect x="416" y="66.139" style="fill:#074568;" width="71.2" height="71.2"/>
<path style="fill:#DD8D0E;" d="M407.2,158.139l-52,52c4.8,10.4,4,23.2-4.8,31.2c-10.4,10.4-28,10.4-38.4,0
	c-10.4-10.4-10.4-28,0-38.4c8.8-8.8,21.6-10.4,31.2-4.8l52-52l-26.4-26.4l-100,43.2l-77.6,199.2l199.2-77.6l43.2-100L407.2,158.139z
	"/>
<rect x="381.668" y="92.881" transform="matrix(0.7071 0.7071 -0.7071 0.7071 212.1424 -270.3956)" style="fill:#045A89;" width="101.599" height="55.999"/>
<rect x="384.449" y="85.143" transform="matrix(0.7072 0.707 -0.707 0.7072 204.2684 -266.9607)" style="fill:#074568;" width="79.999" height="55.999"/>
<path style="fill:#E0A80B;" d="M407.2,158.139l-52,52c4.8,10.4,4,23.2-4.8,31.2c-10.4,10.4-28,10.4-38.4,0
	c-10.4-10.4-10.4-28,0-38.4c8.8-8.8,21.6-10.4,31.2-4.8l52-52l-26.4-26.4l-100,43.2l-77.6,199.2l242.4-177.6L407.2,158.139z"/>
<g>
	<polyline style="fill:#F7C011;" points="191.2,362.939 268.8,162.939 368.8,119.739 	"/>
	<path style="fill:#F7C011;" d="M312,241.339c-10.4-10.4-10.4-28,0-38.4c-10.4,10.4-16.8,33.6-5.6,44c10.4,10.4,33.6,4.8,44-5.6
		C340,252.539,322.4,252.539,312,241.339z"/>
</g>
<g>
	<path style="fill:#E2D498;" d="M353.6,237.339L353.6,237.339L353.6,237.339z"/>
	<path style="fill:#E2D498;" d="M316,199.739L316,199.739L316,199.739z"/>
</g>
<g>
	<path style="fill:#DD8D0E;" d="M343.2,198.139l8.8-8.8c-12.8-3.2-31.2,4.8-40,13.6C320.8,194.939,332.8,193.339,343.2,198.139z"/>
	<path style="fill:#DD8D0E;" d="M355.2,210.139c4.8,10.4,4,23.2-4.8,31.2c8.8-8.8,16-27.2,13.6-40L355.2,210.139z"/>
</g>
<path style="fill:#19BF55;" d="M463.2,381.339c0,1.6-0.8,2.4-2.4,2.4H27.2c-1.6,0-2.4-0.8-2.4-2.4l0,0c0-1.6,0.8-2.4,2.4-2.4h433.6
	C462.4,378.939,463.2,379.739,463.2,381.339L463.2,381.339z"/>
<g>
</g>
<g>
</g>
<g>
</g>
<g>
</g>
<g>
</g>
<g>
</g>
<g>
</g>
<g>
</g>
<g>
</g>
<g>
</g>
<g>
</g>
<g>
</g>
<g>
</g>
<g>
</g>
<g>
</g>
</svg>
