<svg id="svg" version="1.1" width="615" height="500" xmlns="http://www.w3.org/2000/svg" xmlns:xlink="http://www.w3.org/1999/xlink" style="display: block;"><g id="svgg"><path id="path0" d="M237.073 61.138 C 236.846 61.854,236.387 62.439,236.054 62.439 C 235.720 62.439,235.447 62.744,235.447 63.116 C 235.447 63.696,233.175 67.313,232.195 68.293 C 232.016 68.472,231.431 69.413,230.894 70.385 C 230.358 71.356,226.729 76.844,222.831 82.580 L 215.744 93.008 212.750 93.035 C 209.883 93.060,203.577 99.255,203.577 102.047 C 203.577 102.390,203.202 103.058,202.743 103.531 C 202.284 104.003,196.958 111.854,190.908 120.976 C 184.857 130.098,179.671 137.659,179.384 137.778 C 179.097 137.897,178.862 138.254,178.862 138.572 C 178.862 139.279,174.825 145.281,174.146 145.583 C 173.878 145.702,173.659 146.069,173.659 146.399 C 173.659 146.728,172.385 148.826,170.829 151.060 C 165.932 158.091,162.118 163.733,161.868 164.319 C 161.735 164.629,159.870 167.470,157.724 170.631 C 155.577 173.792,153.439 177.083,152.973 177.945 C 152.506 178.807,151.847 179.512,151.509 179.512 C 151.171 179.512,150.894 179.784,150.894 180.117 C 150.894 180.849,135.164 204.462,134.472 204.770 C 134.203 204.889,133.984 205.267,133.984 205.609 C 133.984 206.148,131.668 209.795,130.732 210.732 C 126.022 215.441,120.575 235.218,123.492 237.020 C 123.802 237.212,124.251 238.839,124.490 240.636 C 124.728 242.432,125.174 243.902,125.480 243.902 C 125.787 243.902,126.228 244.660,126.460 245.586 C 126.693 246.511,127.606 248.048,128.489 249.000 C 129.373 249.953,130.243 251.171,130.422 251.707 C 130.782 252.783,138.724 258.862,139.768 258.862 C 140.128 258.862,140.657 259.228,140.943 259.675 C 141.527 260.588,143.341 261.804,145.528 262.750 C 146.333 263.098,146.992 263.682,146.992 264.049 C 146.992 264.416,147.541 264.715,148.213 264.715 C 148.885 264.715,149.774 265.125,150.189 265.625 C 152.579 268.504,168.290 268.504,173.759 265.624 C 174.708 265.124,175.961 264.715,176.544 264.715 C 177.126 264.715,177.770 264.276,177.976 263.740 C 178.182 263.203,178.742 262.764,179.221 262.764 C 179.699 262.764,181.351 261.407,182.891 259.748 C 184.431 258.089,186.057 256.354,186.504 255.892 C 186.951 255.430,187.317 254.729,187.317 254.335 C 187.317 253.940,187.756 253.449,188.293 253.243 C 188.829 253.037,189.268 252.628,189.268 252.335 C 189.268 251.640,218.036 208.523,218.690 208.238 C 218.963 208.119,219.187 207.742,219.187 207.399 C 219.187 206.861,221.503 203.213,222.439 202.276 C 222.618 202.098,223.057 201.458,223.415 200.856 C 223.772 200.254,226.693 195.864,229.906 191.100 C 233.118 186.336,236.045 181.961,236.410 181.376 C 236.775 180.792,237.906 178.962,238.924 177.311 C 239.941 175.660,241.039 174.309,241.363 174.309 C 241.686 174.309,241.951 174.023,241.951 173.674 C 241.951 173.116,246.864 165.308,248.305 163.577 C 248.603 163.220,249.042 162.415,249.281 161.789 C 249.520 161.163,250.017 160.650,250.386 160.650 C 250.755 160.650,251.057 160.232,251.057 159.721 C 251.057 159.210,251.433 158.405,251.893 157.933 C 253.168 156.623,256.911 150.904,256.911 150.265 C 256.911 149.956,257.138 149.604,257.415 149.485 C 257.693 149.366,259.954 146.195,262.439 142.439 C 264.924 138.683,267.176 135.515,267.442 135.400 C 268.561 134.915,268.724 130.753,267.704 128.709 C 266.657 126.610,267.004 125.518,269.333 123.577 C 269.548 123.398,269.841 122.955,269.984 122.592 C 270.127 122.230,272.878 118.041,276.098 113.284 C 283.794 101.912,288.040 95.481,288.541 94.435 C 289.012 93.451,287.046 91.420,284.991 90.767 C 284.213 90.521,283.577 90.046,283.577 89.712 C 283.577 89.379,283.138 89.106,282.602 89.106 C 282.065 89.106,281.626 88.806,281.626 88.439 C 281.626 88.073,280.967 87.488,280.163 87.140 C 277.975 86.194,276.161 84.978,275.577 84.065 C 275.291 83.618,274.748 83.252,274.370 83.252 C 273.992 83.252,272.575 82.374,271.220 81.301 C 269.865 80.228,268.597 79.350,268.403 79.350 C 267.937 79.350,259.281 73.443,258.862 72.839 C 258.683 72.581,257.878 72.165,257.073 71.914 C 256.268 71.663,255.610 71.184,255.610 70.850 C 255.610 70.517,255.162 70.244,254.614 70.244 C 254.066 70.244,253.459 69.831,253.266 69.327 C 253.072 68.823,252.271 68.249,251.485 68.051 C 250.699 67.854,249.340 67.023,248.466 66.204 C 246.703 64.553,244.815 63.323,243.089 62.699 C 242.463 62.472,241.951 62.057,241.951 61.776 C 241.951 61.378,238.551 59.837,237.670 59.837 C 237.569 59.837,237.300 60.423,237.073 61.138 M242.754 65.831 C 244.638 66.981,246.535 68.225,246.969 68.595 C 247.404 68.965,248.197 69.634,248.730 70.081 C 249.264 70.528,250.121 70.894,250.635 70.894 C 251.148 70.894,251.737 71.333,251.943 71.870 C 252.148 72.407,252.741 72.846,253.259 72.846 C 253.777 72.846,254.298 73.065,254.417 73.333 C 254.734 74.046,258.702 76.748,259.432 76.748 C 259.774 76.748,260.152 76.988,260.271 77.281 C 260.390 77.573,262.902 79.378,265.854 81.291 C 268.805 83.204,271.220 85.013,271.220 85.312 C 271.220 85.610,271.638 85.854,272.149 85.854 C 272.660 85.854,273.477 86.220,273.965 86.667 C 275.163 87.765,277.092 88.976,278.862 89.742 C 279.667 90.090,280.325 90.674,280.325 91.041 C 280.325 91.407,280.615 91.707,280.968 91.707 C 283.424 91.707,285.122 95.913,283.378 97.677 C 282.911 98.150,282.322 98.976,282.070 99.512 C 281.339 101.069,274.663 111.051,273.806 111.870 C 273.330 112.325,271.065 115.823,270.174 117.479 C 269.765 118.239,268.221 120.497,266.743 122.499 L 264.055 126.137 260.971 124.511 C 259.274 123.617,257.593 122.529,257.236 122.093 C 256.878 121.657,255.454 120.724,254.071 120.020 C 252.688 119.315,251.413 118.364,251.237 117.906 C 251.062 117.448,250.419 117.073,249.810 117.073 C 249.201 117.073,247.842 116.236,246.790 115.212 C 245.738 114.189,244.271 113.161,243.529 112.929 C 242.787 112.696,241.617 111.987,240.928 111.354 C 240.239 110.721,238.504 109.496,237.073 108.632 C 235.642 107.767,234.325 106.877,234.146 106.654 C 233.967 106.430,233.382 106.050,232.846 105.810 C 231.076 105.019,229.277 103.753,228.748 102.927 C 228.462 102.480,227.919 102.114,227.541 102.114 C 227.163 102.114,225.745 101.236,224.390 100.163 C 223.035 99.089,221.654 98.211,221.321 98.211 C 220.987 98.211,220.071 97.527,219.285 96.690 C 217.694 94.997,217.891 94.261,221.138 89.760 C 222.033 88.521,223.057 86.987,223.415 86.351 C 225.753 82.198,238.569 63.740,239.115 63.740 C 239.233 63.740,240.871 64.681,242.754 65.831 M239.350 75.435 C 239.350 75.748,238.907 76.448,238.365 76.989 C 236.117 79.238,236.449 81.504,239.283 83.253 C 240.731 84.147,241.924 85.098,241.934 85.366 C 241.943 85.634,242.399 85.854,242.947 85.854 C 243.495 85.854,244.112 86.293,244.318 86.829 C 244.524 87.366,245.150 87.805,245.709 87.805 C 246.269 87.805,247.227 88.257,247.838 88.810 C 248.857 89.733,249.127 89.592,251.091 87.111 C 253.365 84.240,253.281 83.100,250.688 81.669 C 249.997 81.288,249.285 80.829,249.106 80.650 C 248.126 79.671,244.509 77.398,243.929 77.398 C 243.557 77.398,243.252 77.134,243.252 76.812 C 243.252 76.489,242.374 75.919,241.301 75.545 C 240.228 75.171,239.350 75.121,239.350 75.435 M258.709 91.897 L 256.930 94.634 258.450 95.935 C 259.286 96.650,260.633 97.675,261.444 98.211 C 262.255 98.748,263.981 99.936,265.280 100.851 C 269.171 103.593,269.790 103.636,271.911 101.314 C 274.726 98.232,274.396 97.500,268.455 93.649 C 265.504 91.736,262.992 89.931,262.873 89.638 C 262.333 88.312,260.334 89.397,258.709 91.897 M198.483 164.390 C 199.675 165.016,200.796 165.690,200.975 165.888 C 201.154 166.086,202.386 166.907,203.712 167.713 C 205.783 168.971,206.922 170.114,209.961 173.984 C 210.242 174.341,210.675 175.073,210.923 175.610 C 211.171 176.146,211.629 177.024,211.942 177.561 C 215.481 183.642,215.284 195.855,211.574 200.376 C 211.111 200.941,210.732 201.700,210.732 202.064 C 210.732 203.152,202.928 210.732,201.806 210.732 C 201.518 210.732,200.159 211.334,198.786 212.069 C 195.664 213.742,193.816 213.503,192.564 211.264 C 191.312 209.026,192.741 207.177,196.229 206.522 C 204.210 205.025,212.276 186.353,207.154 181.231 C 206.618 180.695,206.179 179.792,206.179 179.225 C 206.179 177.834,200.505 172.344,197.401 170.732 C 193.951 168.940,182.260 168.833,180.334 170.577 C 179.647 171.199,178.815 171.717,178.485 171.729 C 176.959 171.784,171.057 178.845,171.057 180.616 C 171.057 181.082,170.764 181.463,170.407 181.463 C 170.021 181.463,169.756 183.841,169.756 187.294 C 169.756 193.711,168.915 195.054,165.445 194.183 C 162.839 193.529,161.642 183.836,163.988 182.386 C 164.299 182.194,164.553 181.478,164.553 180.795 C 164.553 179.246,167.079 174.309,167.871 174.309 C 168.192 174.309,168.455 173.731,168.455 173.024 C 168.455 171.473,175.758 165.457,178.367 164.860 C 179.346 164.636,180.315 164.183,180.519 163.852 C 181.238 162.689,196.092 163.133,198.483 164.390 M193.496 171.707 C 193.717 172.065,194.445 172.358,195.114 172.358 C 195.783 172.358,196.769 172.797,197.305 173.333 C 197.842 173.870,198.427 174.309,198.606 174.309 C 199.482 174.309,203.455 178.816,204.427 180.911 C 207.914 188.429,202.765 200.823,195.385 202.675 C 191.921 203.545,189.412 198.038,192.846 197.102 C 201.064 194.863,202.159 182.120,194.452 178.415 C 187.727 175.182,179.512 179.685,179.512 186.605 C 179.512 189.782,178.914 190.569,176.502 190.569 C 169.991 190.569,174.159 177.011,181.959 172.822 C 185.203 171.079,192.663 170.359,193.496 171.707 M193.799 182.742 C 197.090 185.960,196.288 190.568,192.012 193.008 C 189.780 194.281,185.383 193.251,185.371 191.452 C 185.368 191.043,184.927 190.540,184.390 190.334 C 183.252 189.897,183.059 185.946,184.081 184.034 C 185.924 180.592,190.920 179.928,193.799 182.742 " stroke="none" fill="#ffffff" fill-rule="evenodd"></path><path id="path1" d="M168.220 11.382 C 167.946 12.097,166.819 12.358,164.002 12.358 C 161.443 12.358,159.898 12.672,159.379 13.298 C 158.949 13.816,157.377 14.328,155.884 14.437 C 154.138 14.564,153.229 14.924,153.333 15.447 C 153.444 15.999,152.575 16.260,150.623 16.260 C 149.043 16.260,147.653 16.544,147.534 16.892 C 147.325 17.501,145.290 18.063,142.927 18.163 C 142.301 18.190,141.789 18.610,141.789 19.098 C 141.789 19.650,141.193 19.918,140.208 19.810 C 139.318 19.712,138.475 20.035,138.277 20.550 C 138.085 21.052,137.217 21.463,136.350 21.463 C 135.483 21.463,134.605 21.902,134.399 22.439 C 134.193 22.976,133.284 23.415,132.378 23.415 C 131.348 23.415,130.732 23.780,130.732 24.390 C 130.732 25.041,130.081 25.366,128.780 25.366 C 127.480 25.366,126.829 25.691,126.829 26.341 C 126.829 26.992,126.179 27.317,124.878 27.317 C 123.577 27.317,122.927 27.642,122.927 28.293 C 122.927 28.874,122.329 29.268,121.445 29.268 C 120.013 29.268,117.265 31.690,117.573 32.683 C 117.656 32.951,116.952 33.171,116.010 33.171 C 115.017 33.171,113.662 33.855,112.789 34.796 C 111.961 35.690,110.626 36.522,109.822 36.644 C 109.019 36.767,108.248 37.206,108.110 37.621 C 107.972 38.035,107.444 38.374,106.938 38.374 C 106.431 38.374,106.016 38.667,106.016 39.024 C 106.016 40.154,103.469 42.276,102.114 42.276 C 101.391 42.276,100.813 42.710,100.813 43.252 C 100.813 43.789,100.374 44.228,99.837 44.228 C 99.301 44.228,98.862 44.667,98.862 45.203 C 98.862 45.740,98.423 46.179,97.886 46.179 C 97.350 46.179,96.911 46.618,96.911 47.154 C 96.911 47.691,96.472 48.130,95.935 48.130 C 95.398 48.130,94.959 48.569,94.959 49.106 C 94.959 49.642,94.520 50.081,93.984 50.081 C 93.447 50.081,93.008 50.520,93.008 51.057 C 93.008 51.593,92.569 52.033,92.033 52.033 C 91.496 52.033,91.057 52.462,91.057 52.988 C 91.057 53.570,90.676 53.797,90.081 53.569 C 89.545 53.363,89.106 53.518,89.106 53.915 C 89.106 54.311,87.935 55.772,86.504 57.160 C 85.073 58.549,83.902 60.012,83.902 60.412 C 83.902 60.811,83.463 61.138,82.927 61.138 C 82.390 61.138,81.951 61.577,81.951 62.114 C 81.951 62.650,81.512 63.089,80.976 63.089 C 80.325 63.089,80.000 63.740,80.000 65.041 C 80.000 66.341,79.675 66.992,79.024 66.992 C 78.488 66.992,78.049 67.431,78.049 67.967 C 78.049 68.504,77.759 68.943,77.406 68.943 C 76.208 68.943,74.147 71.176,74.119 72.502 C 74.104 73.228,73.226 74.539,72.168 75.417 C 71.058 76.337,70.244 77.644,70.244 78.506 C 70.244 79.400,69.852 80.000,69.268 80.000 C 68.732 80.000,68.293 80.439,68.293 80.976 C 68.293 81.512,68.000 81.951,67.642 81.951 C 67.285 81.951,66.992 82.829,66.992 83.902 C 66.992 85.203,66.667 85.854,66.016 85.854 C 65.421 85.854,65.041 86.460,65.041 87.410 C 65.041 88.266,64.602 89.135,64.065 89.341 C 63.528 89.547,63.089 90.456,63.089 91.362 C 63.089 92.392,62.724 93.008,62.114 93.008 C 61.463 93.008,61.138 93.659,61.138 94.959 C 61.138 96.260,60.813 96.911,60.163 96.911 C 59.512 96.911,59.187 97.561,59.187 98.862 C 59.187 100.163,58.862 100.813,58.211 100.813 C 57.569 100.813,57.236 101.456,57.236 102.695 C 57.236 103.730,56.862 104.720,56.404 104.895 C 55.947 105.071,55.502 106.200,55.415 107.404 C 55.328 108.608,54.824 109.918,54.295 110.316 C 53.762 110.716,53.333 112.069,53.333 113.351 C 53.333 114.623,52.992 115.778,52.574 115.917 C 51.916 116.137,51.730 117.046,51.438 121.502 C 51.407 121.970,51.089 122.172,50.732 121.951 C 50.322 121.698,50.081 123.222,50.081 126.071 C 50.081 129.490,49.843 130.684,49.106 130.967 C 47.628 131.534,47.628 192.520,49.106 192.520 C 49.879 192.520,50.081 193.454,50.081 197.019 C 50.081 199.707,50.369 201.613,50.795 201.756 C 51.188 201.886,51.586 203.141,51.680 204.544 C 51.774 205.946,52.184 207.205,52.592 207.341 C 53.000 207.477,53.333 208.744,53.333 210.156 C 53.333 211.838,53.670 212.853,54.309 213.098 C 54.913 213.330,55.285 214.320,55.285 215.700 C 55.285 217.080,55.656 218.069,56.260 218.301 C 56.816 218.515,57.236 219.485,57.236 220.557 C 57.236 221.796,57.569 222.439,58.211 222.439 C 58.862 222.439,59.187 223.089,59.187 224.390 C 59.187 225.691,59.512 226.341,60.163 226.341 C 60.813 226.341,61.138 226.992,61.138 228.293 C 61.138 229.593,61.463 230.244,62.114 230.244 C 62.764 230.244,63.089 230.894,63.089 232.195 C 63.089 233.496,63.415 234.146,64.065 234.146 C 64.675 234.146,65.041 234.763,65.041 235.793 C 65.041 236.698,65.480 237.608,66.016 237.814 C 66.553 238.019,66.992 238.888,66.992 239.744 C 66.992 240.600,67.285 241.301,67.642 241.301 C 68.000 241.301,68.293 241.740,68.293 242.276 C 68.293 242.813,68.732 243.252,69.268 243.252 C 69.919 243.252,70.244 243.902,70.244 245.203 C 70.244 246.504,70.569 247.154,71.220 247.154 C 71.756 247.154,72.195 247.593,72.195 248.130 C 72.195 248.667,72.634 249.106,73.171 249.106 C 73.781 249.106,74.146 249.722,74.146 250.752 C 74.146 251.658,74.585 252.567,75.122 252.773 C 75.659 252.979,76.098 253.555,76.098 254.053 C 76.098 254.552,76.537 254.959,77.073 254.959 C 77.610 254.959,78.049 255.398,78.049 255.935 C 78.049 256.472,78.488 256.911,79.024 256.911 C 79.631 256.911,80.000 257.525,80.000 258.537 C 80.000 259.548,80.369 260.163,80.976 260.163 C 81.512 260.163,81.951 260.602,81.951 261.138 C 81.951 261.675,82.390 262.114,82.927 262.114 C 83.463 262.114,83.902 262.553,83.902 263.089 C 83.902 263.626,84.195 264.065,84.553 264.065 C 84.911 264.065,85.203 264.504,85.203 265.041 C 85.203 265.577,85.642 266.016,86.179 266.016 C 86.715 266.016,87.154 266.455,87.154 266.992 C 87.154 267.528,87.593 267.967,88.130 267.967 C 88.667 267.967,89.106 268.407,89.106 268.943 C 89.106 269.480,89.545 269.919,90.081 269.919 C 90.618 269.919,91.057 270.358,91.057 270.894 C 91.057 271.431,91.364 271.870,91.738 271.870 C 92.113 271.870,93.098 272.602,93.927 273.496 C 94.756 274.390,95.766 275.122,96.172 275.122 C 96.578 275.122,96.911 275.561,96.911 276.098 C 96.911 276.634,97.350 277.073,97.886 277.073 C 98.423 277.073,98.862 277.512,98.862 278.049 C 98.862 278.585,99.301 279.024,99.837 279.024 C 100.374 279.024,100.813 279.463,100.813 280.000 C 100.813 280.607,101.427 280.976,102.439 280.976 C 103.451 280.976,104.065 281.344,104.065 281.951 C 104.065 282.488,104.504 282.927,105.041 282.927 C 105.577 282.927,106.016 283.366,106.016 283.902 C 106.016 284.439,106.424 284.878,106.922 284.878 C 107.421 284.878,107.997 285.317,108.203 285.854 C 108.409 286.390,109.318 286.829,110.223 286.829 C 111.253 286.829,111.870 287.195,111.870 287.805 C 111.870 288.341,112.278 288.780,112.776 288.780 C 113.274 288.780,113.850 289.220,114.056 289.756 C 114.262 290.293,114.995 290.732,115.684 290.732 C 116.373 290.732,117.626 291.458,118.468 292.346 C 119.311 293.235,120.659 293.966,121.463 293.973 C 122.326 293.979,122.927 294.385,122.927 294.959 C 122.927 295.610,123.577 295.935,124.878 295.935 C 126.179 295.935,126.829 296.260,126.829 296.911 C 126.829 297.561,127.480 297.886,128.780 297.886 C 130.081 297.886,130.732 298.211,130.732 298.862 C 130.732 299.472,131.348 299.837,132.378 299.837 C 133.284 299.837,134.193 300.276,134.399 300.813 C 134.605 301.350,135.442 301.789,136.260 301.789 C 137.078 301.789,137.915 302.228,138.121 302.764 C 138.342 303.340,139.319 303.740,140.506 303.740 C 141.611 303.740,142.355 303.999,142.160 304.316 C 141.789 304.916,143.846 305.667,145.900 305.682 C 146.552 305.687,147.524 306.130,148.060 306.667 C 148.597 307.203,149.876 307.642,150.902 307.642 C 151.929 307.642,152.950 307.935,153.171 308.293 C 153.392 308.650,154.690 308.943,156.056 308.943 C 157.470 308.943,158.889 309.363,159.350 309.919 C 159.902 310.584,161.380 310.894,164.002 310.894 C 166.819 310.894,167.946 311.155,168.220 311.870 C 168.502 312.605,169.685 312.846,173.008 312.846 C 176.331 312.846,177.514 313.087,177.796 313.821 C 178.118 314.661,181.122 314.797,199.329 314.797 C 217.703 314.797,220.488 314.668,220.488 313.821 C 220.488 313.046,221.430 312.846,225.061 312.846 C 228.526 312.846,229.725 312.609,230.009 311.870 C 230.282 311.159,231.400 310.894,234.136 310.894 C 236.679 310.894,238.151 310.580,238.699 309.919 C 239.193 309.323,240.619 308.943,242.356 308.943 C 243.922 308.943,245.203 308.650,245.203 308.293 C 245.203 307.935,246.213 307.642,247.447 307.642 C 248.682 307.642,249.926 307.248,250.212 306.765 C 250.498 306.283,251.900 305.705,253.328 305.480 C 254.756 305.255,256.025 304.772,256.147 304.406 C 256.269 304.039,257.222 303.740,258.266 303.740 C 259.518 303.740,260.163 303.408,260.163 302.764 C 260.163 302.154,260.779 301.789,261.809 301.789 C 262.715 301.789,263.624 301.350,263.830 300.813 C 264.036 300.276,264.905 299.837,265.761 299.837 C 266.711 299.837,267.317 299.457,267.317 298.862 C 267.317 298.211,267.967 297.886,269.268 297.886 C 270.569 297.886,271.220 297.561,271.220 296.911 C 271.220 296.260,271.870 295.935,273.171 295.935 C 274.472 295.935,275.122 295.610,275.122 294.959 C 275.122 294.309,275.772 293.984,277.073 293.984 C 278.374 293.984,279.024 293.659,279.024 293.008 C 279.024 292.472,279.463 292.033,280.000 292.033 C 280.537 292.033,280.976 291.740,280.976 291.382 C 280.976 291.024,281.570 290.732,282.297 290.732 C 283.024 290.732,283.787 290.293,283.992 289.756 C 284.198 289.220,284.775 288.780,285.273 288.780 C 285.771 288.780,286.179 288.341,286.179 287.805 C 286.179 287.195,286.795 286.829,287.825 286.829 C 288.731 286.829,289.640 286.390,289.846 285.854 C 290.052 285.317,290.628 284.878,291.126 284.878 C 291.625 284.878,292.033 284.439,292.033 283.902 C 292.033 283.366,292.472 282.927,293.008 282.927 C 293.545 282.927,293.984 282.488,293.984 281.951 C 293.984 281.412,294.561 280.976,295.273 280.976 C 296.636 280.976,301.138 277.023,301.138 275.827 C 301.138 275.439,301.577 275.122,302.114 275.122 C 302.650 275.122,303.089 274.829,303.089 274.472 C 303.089 274.114,303.528 273.821,304.065 273.821 C 304.602 273.821,305.041 273.382,305.041 272.846 C 305.041 272.309,305.480 271.870,306.016 271.870 C 306.553 271.870,306.992 271.431,306.992 270.894 C 306.992 270.358,307.431 269.919,307.967 269.919 C 308.504 269.919,308.943 269.480,308.943 268.943 C 308.943 268.407,309.382 267.967,309.919 267.967 C 310.455 267.967,310.894 267.528,310.894 266.992 C 310.894 266.455,311.333 266.016,311.870 266.016 C 312.407 266.016,312.846 265.723,312.846 265.365 C 312.846 265.007,314.016 263.578,315.447 262.189 C 316.878 260.801,318.049 259.045,318.049 258.287 C 318.049 257.497,318.464 256.911,319.024 256.911 C 319.561 256.911,320.000 256.472,320.000 255.935 C 320.000 255.398,320.439 254.959,320.976 254.959 C 321.512 254.959,321.951 254.552,321.951 254.053 C 321.951 253.555,322.390 252.979,322.927 252.773 C 323.463 252.567,323.902 251.658,323.902 250.752 C 323.902 249.722,324.268 249.106,324.878 249.106 C 325.415 249.106,325.854 248.667,325.854 248.130 C 325.854 247.593,326.293 247.154,326.829 247.154 C 327.480 247.154,327.805 246.504,327.805 245.203 C 327.805 243.902,328.130 243.252,328.780 243.252 C 329.317 243.252,329.756 242.844,329.756 242.346 C 329.756 241.848,330.195 241.272,330.732 241.066 C 331.268 240.860,331.707 240.128,331.707 239.440 C 331.707 238.751,332.146 238.019,332.683 237.814 C 333.220 237.608,333.659 236.698,333.659 235.793 C 333.659 234.887,333.951 234.146,334.309 234.146 C 334.667 234.146,334.959 233.268,334.959 232.195 C 334.959 230.894,335.285 230.244,335.935 230.244 C 336.585 230.244,336.911 229.593,336.911 228.293 C 336.911 226.992,337.236 226.341,337.886 226.341 C 338.537 226.341,338.862 225.691,338.862 224.390 C 338.862 223.089,339.187 222.439,339.837 222.439 C 340.448 222.439,340.813 221.822,340.813 220.793 C 340.813 219.887,341.252 218.978,341.789 218.772 C 342.418 218.530,342.764 217.524,342.764 215.935 C 342.764 214.346,343.110 213.340,343.740 213.098 C 344.378 212.853,344.715 211.840,344.715 210.171 C 344.715 208.502,345.053 207.489,345.691 207.244 C 346.330 206.999,346.667 205.985,346.667 204.302 C 346.667 202.890,347.015 201.618,347.441 201.476 C 347.897 201.324,348.329 199.431,348.493 196.869 C 348.645 194.477,349.028 192.520,349.344 192.520 C 349.660 192.520,349.919 190.503,349.919 188.037 C 349.919 184.652,350.158 183.462,350.894 183.179 C 351.734 182.857,351.870 179.862,351.870 161.716 C 351.870 143.570,351.734 140.575,350.894 140.253 C 350.155 139.969,349.919 138.770,349.919 135.305 C 349.919 132.790,349.660 130.732,349.344 130.732 C 349.028 130.732,348.645 128.775,348.493 126.383 C 348.329 123.821,347.897 121.928,347.441 121.776 C 347.015 121.634,346.667 120.362,346.667 118.950 C 346.667 117.267,346.330 116.253,345.691 116.008 C 345.053 115.763,344.715 114.750,344.715 113.081 C 344.715 111.412,344.378 110.399,343.740 110.154 C 343.135 109.922,342.764 108.932,342.764 107.552 C 342.764 106.172,342.393 105.183,341.789 104.951 C 341.233 104.737,340.813 103.767,340.813 102.695 C 340.813 101.456,340.480 100.813,339.837 100.813 C 339.187 100.813,338.862 100.163,338.862 98.862 C 338.862 97.561,338.537 96.911,337.886 96.911 C 337.236 96.911,336.911 96.260,336.911 94.959 C 336.911 93.659,336.585 93.008,335.935 93.008 C 335.285 93.008,334.959 92.358,334.959 91.057 C 334.959 89.984,334.667 89.106,334.309 89.106 C 333.951 89.106,333.659 88.511,333.659 87.784 C 333.659 87.058,333.220 86.295,332.683 86.089 C 332.146 85.883,331.707 85.005,331.707 84.138 C 331.707 83.270,331.268 82.392,330.732 82.186 C 330.195 81.981,329.756 81.404,329.756 80.906 C 329.756 80.408,329.317 80.000,328.780 80.000 C 328.130 80.000,327.805 79.350,327.805 78.049 C 327.805 76.748,327.480 76.098,326.829 76.098 C 326.293 76.098,325.854 75.659,325.854 75.122 C 325.854 74.585,325.415 74.146,324.878 74.146 C 324.296 74.146,323.902 73.548,323.902 72.665 C 323.902 71.213,321.914 68.943,320.643 68.943 C 320.289 68.943,320.000 68.504,320.000 67.967 C 320.000 67.431,319.561 66.992,319.024 66.992 C 318.441 66.992,318.049 66.392,318.049 65.500 C 318.049 64.657,316.916 62.792,315.447 61.217 C 314.016 59.683,312.846 58.159,312.846 57.832 C 312.846 57.504,312.407 57.236,311.870 57.236 C 311.333 57.236,310.894 56.797,310.894 56.260 C 310.894 55.724,310.455 55.285,309.919 55.285 C 309.382 55.285,308.943 54.846,308.943 54.309 C 308.943 53.772,308.504 53.333,307.967 53.333 C 307.431 53.333,306.992 53.041,306.992 52.683 C 306.992 52.325,306.553 52.033,306.016 52.033 C 305.480 52.033,305.041 51.593,305.041 51.057 C 305.041 50.520,304.602 50.081,304.065 50.081 C 303.528 50.081,303.089 49.642,303.089 49.106 C 303.089 48.569,302.650 48.130,302.114 48.130 C 301.577 48.130,301.138 47.847,301.138 47.501 C 301.138 46.348,296.560 42.276,295.263 42.276 C 294.559 42.276,293.984 41.837,293.984 41.301 C 293.984 40.764,293.677 40.325,293.302 40.325 C 292.927 40.325,291.875 39.520,290.963 38.537 C 290.051 37.553,288.802 36.748,288.187 36.748 C 287.572 36.748,286.323 35.943,285.411 34.959 C 284.499 33.976,283.128 33.171,282.364 33.171 C 281.564 33.171,280.976 32.758,280.976 32.195 C 280.976 31.659,280.537 31.220,280.000 31.220 C 279.463 31.220,279.024 30.780,279.024 30.244 C 279.024 29.593,278.374 29.268,277.073 29.268 C 275.772 29.268,275.122 28.943,275.122 28.293 C 275.122 27.642,274.472 27.317,273.171 27.317 C 271.870 27.317,271.220 26.992,271.220 26.341 C 271.220 25.691,270.569 25.366,269.268 25.366 C 267.967 25.366,267.317 25.041,267.317 24.390 C 267.317 23.795,266.711 23.415,265.761 23.415 C 264.905 23.415,264.036 22.976,263.830 22.439 C 263.624 21.902,262.746 21.463,261.879 21.463 C 261.011 21.463,260.133 21.024,259.927 20.488 C 259.721 19.951,258.837 19.512,257.961 19.512 C 257.085 19.512,256.271 19.246,256.152 18.922 C 256.033 18.597,254.764 18.149,253.333 17.926 C 251.902 17.703,250.634 17.237,250.515 16.890 C 250.396 16.544,249.152 16.260,247.751 16.260 C 245.920 16.260,245.203 15.986,245.203 15.285 C 245.203 14.566,244.453 14.309,242.356 14.309 C 240.619 14.309,239.193 13.929,238.699 13.333 C 238.151 12.672,236.679 12.358,234.136 12.358 C 231.400 12.358,230.282 12.093,230.009 11.382 C 229.683 10.534,225.643 10.407,199.114 10.407 C 172.586 10.407,168.545 10.534,168.220 11.382 M243.252 60.157 C 244.862 61.226,246.325 62.266,246.504 62.467 C 246.683 62.668,248.000 63.534,249.431 64.390 C 250.862 65.247,252.179 66.109,252.358 66.307 C 252.797 66.793,255.059 68.200,256.260 68.736 C 256.797 68.975,257.470 69.558,257.756 70.032 C 258.042 70.506,258.676 70.894,259.165 70.894 C 259.654 70.894,260.152 71.121,260.271 71.399 C 260.390 71.677,263.561 73.937,267.317 76.423 C 271.073 78.908,274.244 81.169,274.363 81.446 C 274.482 81.724,274.860 81.951,275.202 81.951 C 275.932 81.951,279.900 84.653,280.217 85.366 C 280.336 85.634,280.857 85.854,281.375 85.854 C 281.893 85.854,282.486 86.293,282.692 86.829 C 282.898 87.366,283.629 87.805,284.318 87.805 C 285.006 87.805,285.738 88.244,285.944 88.780 C 286.150 89.317,286.591 89.756,286.925 89.756 C 288.169 89.756,291.382 92.644,291.382 93.762 C 291.382 94.893,287.637 100.924,286.667 101.355 C 286.398 101.474,286.179 101.996,286.179 102.514 C 286.179 103.032,285.766 103.614,285.262 103.807 C 284.758 104.001,284.179 104.819,283.977 105.626 C 283.774 106.433,282.943 107.835,282.130 108.741 C 280.220 110.869,279.082 112.562,278.604 113.984 C 278.394 114.610,278.031 115.122,277.797 115.122 C 277.563 115.122,276.652 116.439,275.772 118.049 C 274.893 119.659,273.948 120.976,273.672 120.976 C 273.396 120.976,273.159 121.341,273.144 121.789 C 273.130 122.236,272.252 123.615,271.193 124.853 C 269.010 127.407,268.798 128.618,270.336 129.743 C 271.494 130.589,271.115 135.285,269.889 135.285 C 269.548 135.285,269.268 135.733,269.268 136.281 C 269.268 136.828,268.829 137.445,268.293 137.651 C 267.756 137.857,267.317 138.345,267.317 138.735 C 267.317 139.432,261.844 147.945,260.514 149.316 C 260.142 149.700,259.259 151.090,258.551 152.406 C 257.844 153.721,257.039 154.797,256.763 154.797 C 256.486 154.797,256.260 155.101,256.260 155.473 C 256.260 156.053,253.988 159.671,253.008 160.650 C 252.829 160.829,252.390 161.462,252.033 162.057 C 251.675 162.652,249.919 165.286,248.130 167.911 C 246.341 170.535,244.732 172.976,244.553 173.333 C 244.155 174.130,240.572 179.521,239.675 180.673 C 239.317 181.133,238.732 181.877,238.374 182.326 C 237.284 183.697,236.128 185.614,235.462 187.154 C 235.114 187.959,234.563 188.618,234.238 188.618 C 233.913 188.618,233.476 189.130,233.265 189.756 C 232.894 190.862,231.551 193.164,230.894 193.821 C 229.958 194.757,227.642 198.405,227.642 198.944 C 227.642 199.286,227.423 199.664,227.154 199.783 C 226.442 200.100,223.740 204.068,223.740 204.798 C 223.740 205.140,223.520 205.518,223.252 205.637 C 222.984 205.756,221.597 207.610,220.171 209.756 C 218.745 211.902,217.428 213.805,217.245 213.984 C 216.709 214.505,215.331 216.800,214.705 218.211 C 214.387 218.927,213.437 220.258,212.592 221.169 C 211.748 222.080,210.478 223.909,209.771 225.234 C 209.063 226.558,208.259 227.642,207.982 227.642 C 207.706 227.642,207.480 227.947,207.480 228.319 C 207.480 229.089,204.806 233.058,204.065 233.388 C 203.797 233.507,203.577 233.904,203.577 234.270 C 203.577 234.635,202.699 236.043,201.626 237.398 C 200.553 238.753,199.675 240.186,199.675 240.581 C 199.675 240.977,199.388 241.301,199.037 241.301 C 198.686 241.301,198.215 242.033,197.991 242.927 C 197.766 243.821,197.314 244.553,196.987 244.553 C 196.659 244.553,196.106 245.211,195.758 246.016 C 194.812 248.204,193.596 250.017,192.683 250.601 C 192.236 250.887,191.870 251.522,191.870 252.011 C 191.870 252.500,191.650 252.997,191.382 253.117 C 191.114 253.236,189.739 255.049,188.326 257.146 C 186.913 259.243,185.084 261.266,184.261 261.641 C 183.438 262.016,182.764 262.667,182.764 263.087 C 182.764 263.508,180.337 265.071,177.371 266.561 C 168.779 270.877,159.245 271.494,151.772 268.216 C 150.644 267.722,149.254 267.317,148.682 267.317 C 148.110 267.317,147.642 267.056,147.642 266.737 C 147.642 266.418,146.911 265.974,146.016 265.749 C 145.122 265.525,144.390 265.054,144.390 264.703 C 144.390 264.352,144.086 264.065,143.714 264.065 C 142.943 264.065,138.974 261.391,138.645 260.650 C 138.526 260.382,138.129 260.163,137.763 260.163 C 134.744 260.163,125.304 249.275,123.399 243.596 C 123.035 242.512,122.479 241.293,122.163 240.886 C 121.145 239.577,121.408 223.144,122.483 220.875 C 123.008 219.768,124.067 217.545,124.837 215.935 C 125.607 214.325,127.986 210.520,130.125 207.480 C 132.263 204.439,134.291 201.293,134.632 200.488 C 134.973 199.683,135.552 199.024,135.919 199.024 C 136.285 199.024,136.585 198.618,136.585 198.120 C 136.585 197.623,137.902 195.427,139.512 193.240 C 141.122 191.054,142.439 188.997,142.439 188.670 C 142.439 188.343,142.671 187.978,142.955 187.859 C 143.238 187.740,144.180 186.472,145.048 185.041 C 145.915 183.610,146.855 182.146,147.135 181.789 C 148.803 179.659,153.314 173.180,153.701 172.358 C 154.260 171.172,154.731 170.450,162.893 158.272 C 166.451 152.962,169.524 148.472,169.722 148.293 C 170.293 147.776,171.654 145.497,172.343 143.902 C 172.691 143.098,173.242 142.439,173.567 142.439 C 173.891 142.439,174.329 141.927,174.539 141.301 C 175.083 139.682,176.447 137.650,177.398 137.041 C 177.846 136.755,178.211 136.096,178.211 135.577 C 178.211 135.059,178.504 134.634,178.862 134.634 C 179.220 134.634,179.512 134.310,179.512 133.915 C 179.512 133.519,180.342 132.129,181.355 130.825 C 182.369 129.522,183.397 128.016,183.639 127.480 C 184.180 126.280,184.798 125.340,192.462 114.054 C 199.588 103.559,201.181 101.258,201.626 100.813 C 202.201 100.238,203.562 97.929,204.213 96.423 C 204.561 95.618,205.112 94.959,205.436 94.959 C 205.761 94.959,206.170 94.414,206.344 93.748 C 206.729 92.276,210.281 90.407,212.694 90.407 C 214.040 90.407,214.901 89.753,216.334 87.642 C 217.367 86.122,218.431 84.780,218.699 84.661 C 218.967 84.542,219.187 84.173,219.187 83.842 C 219.187 83.118,226.582 71.862,227.968 70.475 C 228.504 69.939,228.943 69.216,228.943 68.869 C 228.943 68.274,229.471 67.520,231.382 65.390 C 231.829 64.891,232.195 64.304,232.195 64.085 C 232.195 63.483,234.966 59.659,236.287 58.439 C 237.708 57.125,239.270 57.510,243.252 60.157 M239.087 67.154 C 238.866 67.602,238.106 68.846,237.398 69.919 C 236.690 70.992,235.769 72.528,235.350 73.333 C 234.931 74.138,234.342 74.797,234.042 74.797 C 233.742 74.797,233.496 75.059,233.496 75.379 C 233.496 75.872,226.799 86.170,225.204 88.130 C 224.912 88.488,223.967 89.951,223.103 91.382 C 222.239 92.813,221.275 94.161,220.961 94.378 C 220.340 94.806,225.116 98.862,226.240 98.862 C 226.618 98.862,227.161 99.228,227.447 99.675 C 228.031 100.588,229.845 101.804,232.033 102.750 C 232.837 103.098,233.496 103.682,233.496 104.049 C 233.496 104.416,233.935 104.715,234.472 104.715 C 235.008 104.715,235.447 104.979,235.447 105.302 C 235.447 105.625,236.325 106.195,237.398 106.569 C 238.472 106.943,239.350 107.557,239.350 107.934 C 239.350 108.310,239.789 108.618,240.325 108.618 C 240.862 108.618,241.301 108.905,241.301 109.256 C 241.301 109.607,242.011 110.072,242.880 110.290 C 243.748 110.508,244.617 111.099,244.811 111.603 C 245.004 112.108,245.611 112.520,246.158 112.520 C 246.706 112.520,247.154 112.813,247.154 113.171 C 247.154 113.528,247.583 113.821,248.108 113.821 C 248.632 113.821,249.959 114.699,251.057 115.772 C 252.155 116.846,253.417 117.724,253.861 117.724 C 254.306 117.724,255.631 118.602,256.806 119.675 C 257.981 120.748,259.267 121.626,259.664 121.626 C 260.061 121.626,260.886 122.079,261.497 122.632 C 262.490 123.530,262.706 123.533,263.500 122.655 C 265.283 120.684,266.016 119.722,266.016 119.351 C 266.016 118.802,268.854 114.836,269.431 114.580 C 269.699 114.461,269.919 114.113,269.919 113.808 C 269.919 113.255,274.589 106.212,277.498 102.378 C 278.337 101.271,279.024 100.154,279.024 99.895 C 279.024 99.637,279.734 98.494,280.601 97.355 C 282.155 95.314,281.789 93.008,279.911 93.008 C 279.583 93.008,278.353 92.130,277.178 91.057 C 276.003 89.984,274.686 89.106,274.251 89.106 C 273.816 89.106,272.499 88.228,271.324 87.154 C 270.149 86.081,268.882 85.203,268.509 85.203 C 268.135 85.203,266.721 84.325,265.366 83.252 C 264.011 82.179,262.649 81.301,262.339 81.301 C 262.029 81.301,261.025 80.605,260.108 79.755 C 259.192 78.905,257.837 78.018,257.098 77.783 C 256.359 77.549,255.000 76.657,254.077 75.802 C 253.155 74.947,251.805 74.059,251.078 73.828 C 250.351 73.597,249.756 73.135,249.756 72.802 C 249.756 72.468,249.332 72.195,248.813 72.195 C 248.294 72.195,247.635 71.829,247.349 71.382 C 246.820 70.555,245.016 69.286,243.252 68.500 C 242.715 68.261,242.042 67.678,241.756 67.204 C 241.100 66.115,239.614 66.088,239.087 67.154 M242.417 73.571 C 242.816 73.970,243.734 74.629,244.456 75.035 C 255.468 81.217,256.970 83.501,253.310 88.488 C 250.600 92.179,249.454 92.584,246.843 90.774 C 245.777 90.035,244.414 89.138,243.815 88.780 C 234.868 83.443,232.058 80.100,234.959 78.244 C 235.911 77.635,237.275 75.603,237.818 73.984 C 238.253 72.690,241.265 72.420,242.417 73.571 M263.315 87.527 C 264.443 88.090,265.366 88.788,265.366 89.077 C 265.366 89.367,265.878 89.776,266.504 89.987 C 268.123 90.530,270.155 91.894,270.764 92.846 C 271.050 93.293,271.574 93.659,271.929 93.659 C 273.459 93.659,276.423 96.577,276.423 98.084 C 276.423 102.189,269.411 108.189,268.225 105.099 C 268.032 104.595,267.213 104.017,266.406 103.814 C 265.599 103.612,264.204 102.780,263.306 101.967 C 262.408 101.153,260.674 99.932,259.454 99.254 C 254.541 96.520,253.661 94.070,256.495 91.013 C 257.340 90.102,258.375 88.715,258.795 87.930 C 259.701 86.236,260.571 86.158,263.315 87.527 M186.016 165.176 C 185.480 165.538,184.282 165.838,183.354 165.844 C 182.427 165.849,180.378 166.582,178.801 167.471 C 177.225 168.361,175.534 169.284,175.044 169.522 C 173.770 170.141,169.756 174.244,169.756 174.927 C 169.756 175.243,169.433 175.609,169.037 175.741 C 167.164 176.365,164.880 187.690,165.915 191.220 C 166.508 193.241,166.653 192.618,166.782 187.484 C 166.839 185.251,167.238 183.071,167.670 182.639 C 168.102 182.207,168.455 181.224,168.455 180.455 C 168.455 178.241,174.542 170.407,176.263 170.407 C 176.719 170.407,177.417 170.006,177.814 169.515 C 180.660 166.005,199.675 166.323,199.675 169.881 C 199.675 170.170,200.066 170.407,200.545 170.407 C 202.931 170.407,209.431 179.178,209.431 182.398 C 209.431 183.273,209.724 184.169,210.081 184.390 C 210.879 184.883,210.954 193.607,210.165 194.094 C 209.854 194.287,209.412 195.379,209.184 196.521 C 208.696 198.961,203.932 205.528,202.650 205.528 C 202.163 205.528,201.597 205.967,201.391 206.504 C 201.185 207.041,200.458 207.480,199.775 207.480 C 199.092 207.480,198.183 207.901,197.756 208.417 C 197.328 208.932,196.275 209.444,195.417 209.555 C 194.257 209.704,194.003 209.992,194.428 210.672 C 195.853 212.951,204.559 206.834,208.663 200.671 L 211.707 196.098 211.707 188.567 C 211.707 182.309,211.487 180.611,210.407 178.519 C 208.536 174.901,204.164 169.756,202.958 169.756 C 202.583 169.756,202.276 169.533,202.276 169.259 C 202.276 168.451,196.311 165.987,193.496 165.632 C 192.065 165.451,190.016 165.127,188.943 164.911 C 187.870 164.694,186.553 164.814,186.016 165.176 M183.415 174.634 C 182.969 175.171,182.323 175.610,181.979 175.610 C 180.872 175.610,177.360 180.073,176.481 182.596 C 175.298 185.993,175.349 189.268,176.585 189.268 C 177.287 189.268,177.561 188.550,177.561 186.709 C 177.561 181.987,181.295 176.260,184.373 176.260 C 185.118 176.260,186.397 175.791,187.216 175.217 C 188.760 174.135,189.863 174.224,193.979 175.764 C 196.649 176.763,199.675 179.290,199.675 180.522 C 199.675 180.952,200.114 181.668,200.650 182.114 C 201.355 182.698,201.626 184.245,201.626 187.675 C 201.626 191.032,201.340 192.714,200.650 193.403 C 200.114 193.940,199.675 194.669,199.675 195.023 C 199.675 195.378,197.992 196.708,195.935 197.979 C 193.098 199.733,192.550 200.295,193.667 200.308 C 195.999 200.335,198.100 198.843,201.616 194.662 C 201.979 194.230,202.276 193.458,202.276 192.947 C 202.276 192.437,202.714 191.180,203.248 190.156 C 204.484 187.787,204.493 185.315,203.273 183.702 C 202.748 183.007,202.308 181.888,202.297 181.215 C 202.213 176.214,186.615 170.778,183.415 174.634 M187.440 184.090 C 186.003 185.429,185.708 187.076,186.426 189.756 C 187.128 192.374,192.028 191.858,193.040 189.060 C 194.784 184.238,190.941 180.828,187.440 184.090 " stroke="none" fill="#197bb9" fill-rule="evenodd"></path><path id="path2" d="M236.360 58.375 C 234.983 59.642,232.195 63.465,232.195 64.085 C 232.195 64.304,231.829 64.891,231.382 65.390 C 229.471 67.520,228.943 68.274,228.943 68.869 C 228.943 69.216,228.504 69.939,227.968 70.475 C 226.582 71.862,219.187 83.118,219.187 83.842 C 219.187 84.173,218.967 84.542,218.699 84.661 C 218.431 84.780,217.367 86.122,216.334 87.642 C 214.762 89.958,214.109 90.407,212.308 90.407 C 211.125 90.407,209.966 90.717,209.731 91.097 C 209.448 91.555,210.256 91.720,212.125 91.585 L 214.945 91.382 225.421 75.609 C 231.183 66.934,236.427 59.251,237.074 58.536 C 238.525 56.933,238.044 56.825,236.360 58.375 M239.350 58.360 C 239.886 58.565,240.472 58.924,240.650 59.159 C 240.965 59.573,250.807 66.215,255.750 69.350 C 257.265 70.310,258.036 70.544,257.818 69.977 C 257.627 69.479,256.979 68.905,256.378 68.701 C 255.246 68.317,252.927 66.937,252.358 66.307 C 252.179 66.109,250.862 65.247,249.431 64.390 C 248.000 63.534,246.683 62.671,246.504 62.473 C 245.551 61.419,239.848 57.894,239.168 57.938 C 238.712 57.967,238.790 58.147,239.350 58.360 M238.627 66.829 C 236.732 69.164,234.797 72.163,234.797 72.765 C 234.797 73.107,234.577 73.485,234.309 73.604 C 232.041 74.612,219.686 95.190,220.848 96.025 C 221.544 96.526,222.570 97.296,223.128 97.736 C 225.827 99.868,228.306 101.463,228.917 101.463 C 229.289 101.463,229.595 101.683,229.598 101.951 C 229.600 102.220,230.478 102.938,231.549 103.547 C 232.620 104.156,233.496 104.369,233.496 104.019 C 233.496 103.669,232.837 103.098,232.033 102.750 C 229.845 101.804,228.031 100.588,227.447 99.675 C 227.161 99.228,226.618 98.862,226.240 98.862 C 225.116 98.862,220.340 94.806,220.961 94.378 C 221.275 94.161,222.239 92.813,223.103 91.382 C 223.967 89.951,224.912 88.488,225.204 88.130 C 226.799 86.170,233.496 75.872,233.496 75.379 C 233.496 75.059,233.742 74.797,234.042 74.797 C 234.342 74.797,234.931 74.138,235.350 73.333 C 235.769 72.528,236.684 70.992,237.383 69.919 C 239.487 66.691,240.058 65.691,239.798 65.691 C 239.662 65.691,239.135 66.203,238.627 66.829 M244.553 69.268 C 244.998 69.805,245.734 70.244,246.189 70.244 C 246.643 70.244,247.184 70.683,247.390 71.220 C 247.596 71.756,248.139 72.183,248.597 72.169 C 249.056 72.154,248.418 71.276,247.179 70.217 C 244.814 68.196,243.170 67.602,244.553 69.268 M259.147 71.479 C 259.345 71.801,260.607 72.686,261.949 73.445 C 264.238 74.741,264.289 74.745,262.764 73.511 C 261.870 72.788,260.785 71.903,260.353 71.545 C 259.375 70.736,258.663 70.697,259.147 71.479 M249.756 72.833 C 249.756 73.184,250.488 73.655,251.382 73.879 C 252.276 74.104,253.008 74.524,253.008 74.814 C 253.008 75.516,257.149 78.050,258.288 78.045 C 258.783 78.043,258.309 77.584,257.236 77.026 C 256.163 76.468,254.680 75.445,253.942 74.754 C 253.203 74.062,252.252 73.496,251.828 73.496 C 251.404 73.496,251.057 73.203,251.057 72.846 C 251.057 72.488,250.764 72.195,250.407 72.195 C 250.049 72.195,249.756 72.482,249.756 72.833 M238.049 73.607 C 238.049 74.026,237.563 74.906,236.969 75.563 C 236.375 76.219,236.073 76.940,236.298 77.165 C 236.523 77.390,237.229 76.659,237.866 75.539 C 238.945 73.643,241.489 72.700,242.060 73.984 C 242.179 74.252,244.662 76.026,247.577 77.925 C 255.918 83.360,256.201 84.182,251.479 89.268 C 249.526 91.371,248.533 91.486,246.429 89.853 C 245.576 89.191,243.561 87.856,241.951 86.887 L 239.024 85.125 241.301 87.098 C 242.553 88.183,243.870 89.089,244.228 89.112 C 244.585 89.134,245.716 89.838,246.740 90.675 C 249.196 92.685,250.568 92.223,253.334 88.455 C 256.968 83.504,255.448 81.206,244.456 75.035 C 243.734 74.629,242.816 73.970,242.417 73.571 C 241.455 72.609,238.049 72.637,238.049 73.607 M264.715 75.050 C 264.715 75.190,266.911 76.795,269.593 78.615 C 272.276 80.436,274.470 81.711,274.467 81.450 C 274.465 81.189,273.660 80.485,272.679 79.886 C 271.697 79.287,269.504 77.896,267.805 76.795 C 266.106 75.695,264.715 74.909,264.715 75.050 M234.400 78.977 C 233.679 80.855,234.529 82.702,236.748 84.077 C 238.431 85.121,238.797 85.204,238.153 84.395 C 237.673 83.794,236.722 83.125,236.039 82.908 C 234.635 82.463,234.362 80.045,235.577 78.829 C 236.184 78.222,236.180 78.049,235.557 78.049 C 235.116 78.049,234.596 78.467,234.400 78.977 M260.813 80.325 C 261.258 80.862,261.915 81.301,262.273 81.301 C 262.636 81.301,262.565 80.869,262.114 80.325 C 261.668 79.789,261.011 79.350,260.654 79.350 C 260.291 79.350,260.361 79.781,260.813 80.325 M275.355 82.452 C 275.916 83.360,280.326 85.928,280.321 85.344 C 280.319 85.088,279.368 84.300,278.207 83.593 C 275.367 81.863,274.867 81.663,275.355 82.452 M266.667 84.228 C 267.112 84.764,267.935 85.203,268.497 85.203 C 269.313 85.203,269.265 85.013,268.254 84.248 C 266.603 82.999,265.637 82.986,266.667 84.228 M271.545 87.403 C 272.618 88.314,273.935 89.065,274.472 89.072 C 275.635 89.088,274.808 88.433,271.545 86.752 L 269.593 85.748 271.545 87.403 M258.795 87.930 C 258.375 88.715,257.340 90.102,256.495 91.013 C 255.162 92.451,254.441 94.309,255.217 94.309 C 255.358 94.309,256.413 92.846,257.561 91.057 C 259.876 87.449,261.485 86.948,264.140 89.009 C 267.354 91.504,271.169 93.633,270.827 92.741 C 270.635 92.243,269.987 91.669,269.386 91.465 C 268.047 91.011,265.829 89.619,265.301 88.900 C 263.619 86.612,259.805 86.043,258.795 87.930 M284.590 88.727 C 285.952 89.723,286.570 89.614,285.880 88.499 C 285.645 88.117,284.974 87.805,284.390 87.805 C 283.502 87.805,283.535 87.956,284.590 88.727 M277.398 91.279 C 278.472 92.204,279.610 92.972,279.928 92.985 C 281.801 93.060,282.149 95.321,280.601 97.355 C 279.734 98.494,279.024 99.637,279.024 99.895 C 279.024 100.154,278.337 101.271,277.498 102.378 C 274.589 106.212,269.919 113.255,269.919 113.808 C 269.919 114.113,269.699 114.461,269.431 114.580 C 268.843 114.841,266.016 118.807,266.016 119.370 C 266.016 119.589,265.650 120.176,265.203 120.674 C 262.680 123.489,262.504 123.772,263.466 123.470 C 264.230 123.231,281.521 98.338,282.683 95.806 C 283.140 94.808,281.352 92.988,278.049 91.091 L 275.447 89.597 277.398 91.279 M288.293 91.267 C 290.388 92.983,290.539 94.429,288.872 96.810 C 285.967 100.959,284.262 104.065,284.890 104.065 C 285.264 104.065,285.758 103.553,285.989 102.927 C 286.220 102.301,286.577 101.642,286.782 101.463 C 290.761 97.991,292.037 93.086,289.457 91.179 C 286.930 89.311,285.990 89.382,288.293 91.267 M206.816 92.699 C 205.559 94.213,206.456 94.498,207.801 93.012 C 208.451 92.294,208.680 91.707,208.311 91.707 C 207.941 91.707,207.269 92.153,206.816 92.699 M273.664 95.465 C 276.282 97.652,276.289 98.255,273.738 101.807 C 271.408 105.052,270.174 105.735,268.755 104.564 C 267.929 103.883,267.811 103.909,268.074 104.715 C 268.838 107.054,271.626 106.197,274.065 102.875 C 276.964 98.925,277.072 96.985,274.498 95.082 C 271.762 93.059,271.131 93.348,273.664 95.465 M204.252 96.522 C 203.925 97.382,203.347 98.277,202.967 98.512 C 202.587 98.747,202.276 99.231,202.276 99.589 C 202.276 100.670,203.368 99.650,204.791 97.238 C 205.530 95.985,205.845 94.959,205.490 94.959 C 205.136 94.959,204.578 95.663,204.252 96.522 M255.204 96.124 C 255.716 96.958,260.444 100.163,261.164 100.163 C 261.955 100.163,260.623 98.754,259.286 98.178 C 258.516 97.846,257.167 97.059,256.288 96.429 C 255.409 95.800,254.921 95.662,255.204 96.124 M262.114 100.766 C 262.114 101.402,266.590 104.371,266.954 103.977 C 267.075 103.846,266.035 102.938,264.644 101.957 C 263.252 100.977,262.114 100.441,262.114 100.766 M199.960 102.954 C 199.223 104.102,195.857 109.097,192.480 114.054 C 184.878 125.217,184.187 126.265,183.639 127.480 C 183.397 128.016,182.369 129.522,181.355 130.825 C 180.342 132.129,179.512 133.519,179.512 133.915 C 179.512 134.310,179.220 134.634,178.862 134.634 C 178.504 134.634,178.211 135.059,178.211 135.577 C 178.211 136.096,177.846 136.755,177.398 137.041 C 176.447 137.650,175.083 139.682,174.539 141.301 C 174.329 141.927,173.891 142.439,173.567 142.439 C 173.242 142.439,172.691 143.098,172.343 143.902 C 171.654 145.497,170.293 147.776,169.722 148.293 C 169.287 148.686,156.703 167.407,155.747 169.083 C 155.375 169.735,154.675 170.745,154.191 171.328 C 153.707 171.912,153.468 172.546,153.659 172.738 C 153.949 173.027,173.224 144.736,184.065 128.110 C 187.005 123.602,200.736 103.147,201.844 101.626 C 202.169 101.179,202.180 100.825,201.868 100.841 C 201.556 100.856,200.698 101.807,199.960 102.954 M234.431 105.300 C 235.065 106.326,239.350 108.601,239.350 107.912 C 239.350 107.547,238.472 106.943,237.398 106.569 C 236.325 106.195,235.447 105.625,235.447 105.302 C 235.447 104.979,235.137 104.715,234.758 104.715 C 234.380 104.715,234.232 104.979,234.431 105.300 M282.072 107.371 C 281.065 108.772,280.529 109.919,280.880 109.919 C 281.556 109.919,284.544 105.465,284.139 105.061 C 284.009 104.931,283.079 105.970,282.072 107.371 M240.285 109.203 C 240.961 110.298,245.150 112.487,244.794 111.559 C 244.609 111.079,243.748 110.508,242.880 110.290 C 242.011 110.072,241.301 109.607,241.301 109.256 C 241.301 108.905,240.991 108.618,240.612 108.618 C 240.233 108.618,240.086 108.881,240.285 109.203 M277.149 114.513 C 275.676 116.718,274.472 118.640,274.472 118.784 C 274.472 118.927,273.154 120.855,271.545 123.067 C 269.935 125.279,268.620 127.543,268.622 128.098 C 268.624 128.652,269.083 128.228,269.641 127.154 C 270.199 126.081,271.221 124.599,271.913 123.861 C 272.605 123.122,273.171 122.171,273.171 121.747 C 273.171 121.323,273.396 120.976,273.672 120.976 C 273.948 120.976,274.893 119.659,275.772 118.049 C 276.652 116.439,277.597 115.122,277.873 115.122 C 278.148 115.122,278.374 114.779,278.374 114.360 C 278.374 113.941,278.860 113.061,279.454 112.405 C 280.048 111.749,280.375 111.052,280.180 110.858 C 279.985 110.663,278.621 112.308,277.149 114.513 M246.204 113.211 C 246.438 113.591,247.261 114.173,248.031 114.505 C 248.801 114.837,250.163 115.596,251.057 116.192 C 252.384 117.077,252.336 116.959,250.793 115.549 C 249.754 114.598,248.510 113.821,248.029 113.821 C 247.548 113.821,247.154 113.528,247.154 113.171 C 247.154 112.813,246.845 112.520,246.466 112.520 C 246.087 112.520,245.969 112.831,246.204 113.211 M253.984 118.351 C 254.699 118.650,255.943 119.521,256.748 120.286 C 257.553 121.051,258.211 121.428,258.211 121.123 C 258.211 120.346,254.537 117.715,253.522 117.765 C 253.061 117.787,253.268 118.051,253.984 118.351 M270.385 130.925 C 270.584 131.965,270.047 133.507,268.841 135.365 C 267.824 136.930,266.846 138.505,266.667 138.863 C 266.488 139.222,264.585 142.094,262.439 145.247 C 260.293 148.399,258.098 151.680,257.561 152.538 C 257.024 153.396,254.171 157.694,251.221 162.089 C 248.270 166.485,245.489 170.628,245.042 171.296 C 244.594 171.965,243.423 173.645,242.439 175.031 C 241.455 176.416,240.650 177.821,240.650 178.152 C 240.650 178.483,240.418 178.851,240.134 178.970 C 239.850 179.089,234.677 186.650,228.637 195.772 C 222.597 204.894,217.379 212.724,217.041 213.171 C 216.703 213.618,216.681 213.976,216.994 213.966 C 217.306 213.955,218.732 212.065,220.163 209.765 C 221.593 207.465,222.984 205.571,223.252 205.556 C 223.520 205.541,223.740 205.224,223.740 204.852 C 223.740 204.082,226.414 200.112,227.154 199.783 C 227.423 199.664,227.642 199.286,227.642 198.944 C 227.642 198.405,229.958 194.757,230.894 193.821 C 231.551 193.164,232.894 190.862,233.265 189.756 C 233.476 189.130,233.913 188.618,234.238 188.618 C 234.563 188.618,235.114 187.959,235.462 187.154 C 236.128 185.614,237.284 183.697,238.374 182.326 C 238.732 181.877,239.317 181.133,239.675 180.673 C 240.572 179.521,244.155 174.130,244.553 173.333 C 244.732 172.976,246.341 170.535,248.130 167.911 C 249.919 165.286,251.675 162.652,252.033 162.057 C 252.390 161.462,252.829 160.829,253.008 160.650 C 253.988 159.671,256.260 156.053,256.260 155.473 C 256.260 155.101,256.486 154.797,256.763 154.797 C 257.039 154.797,257.844 153.721,258.551 152.406 C 259.259 151.090,260.142 149.700,260.514 149.316 C 261.844 147.945,267.317 139.432,267.317 138.735 C 267.317 138.345,267.756 137.857,268.293 137.651 C 268.829 137.445,269.268 136.828,269.268 136.281 C 269.268 135.733,269.548 135.285,269.889 135.285 C 270.789 135.285,271.508 130.760,270.731 129.983 C 270.297 129.549,270.182 129.862,270.385 130.925 M182.875 164.939 C 177.526 166.426,172.111 170.146,169.005 174.467 C 167.998 175.868,167.941 176.167,168.740 175.861 C 169.299 175.646,169.756 175.219,169.756 174.911 C 169.756 174.257,173.572 170.433,175.355 169.300 C 181.252 165.556,185.787 164.578,193.171 165.460 C 195.484 165.736,196.288 165.680,195.447 165.302 C 192.855 164.136,186.430 163.951,182.875 164.939 M198.067 166.742 C 198.772 167.230,200.008 167.835,200.813 168.086 C 201.618 168.337,202.276 168.816,202.276 169.150 C 202.276 169.483,202.583 169.756,202.958 169.756 C 203.618 169.756,205.106 171.194,207.805 174.438 C 209.478 176.450,211.247 180.039,211.588 182.114 L 211.855 183.740 211.944 182.089 C 212.144 178.362,207.201 171.460,201.906 168.073 C 198.641 165.985,195.298 164.825,198.067 166.742 M184.554 166.883 C 184.346 167.091,182.780 167.617,181.074 168.052 C 179.369 168.487,177.833 169.268,177.662 169.787 C 177.418 170.524,177.551 170.569,178.268 169.994 C 178.774 169.588,180.211 169.042,181.463 168.780 C 182.715 168.519,184.041 168.064,184.410 167.769 C 184.779 167.474,186.681 167.123,188.638 166.989 L 192.195 166.745 188.564 166.624 C 186.566 166.558,184.762 166.674,184.554 166.883 M194.797 168.164 C 196.228 168.668,197.911 169.382,198.537 169.749 C 199.163 170.117,199.675 170.179,199.675 169.887 C 199.675 169.165,194.984 167.143,193.440 167.200 C 192.755 167.226,193.366 167.659,194.797 168.164 M173.008 173.089 C 169.727 176.945,168.463 179.008,168.471 180.488 C 168.476 181.299,169.214 180.454,170.432 178.245 C 171.506 176.296,173.440 173.735,174.730 172.554 C 176.019 171.373,176.671 170.408,176.179 170.410 C 175.687 170.412,174.260 171.617,173.008 173.089 M203.177 173.362 C 214.412 184.438,211.234 201.589,196.769 207.941 C 194.095 209.115,193.809 209.383,195.205 209.405 C 196.145 209.419,197.278 208.992,197.724 208.455 C 198.169 207.919,199.092 207.480,199.775 207.480 C 200.458 207.480,201.185 207.041,201.391 206.504 C 201.597 205.967,202.163 205.528,202.650 205.528 C 203.932 205.528,208.696 198.961,209.184 196.521 C 209.412 195.379,209.854 194.287,210.165 194.094 C 210.954 193.607,210.879 184.883,210.081 184.390 C 209.724 184.169,209.431 183.273,209.431 182.398 C 209.431 179.380,202.971 170.407,200.797 170.407 C 200.458 170.407,201.529 171.736,203.177 173.362 M182.746 174.082 C 180.284 175.726,176.910 179.035,176.914 179.802 C 176.915 180.179,177.925 179.390,179.157 178.049 C 180.389 176.707,181.669 175.610,182.001 175.610 C 182.333 175.610,182.959 175.183,183.393 174.660 C 183.923 174.022,185.811 173.639,189.163 173.491 L 194.146 173.270 189.250 173.139 C 185.614 173.042,183.941 173.284,182.746 174.082 M150.295 177.398 C 148.852 179.455,147.436 181.431,147.149 181.789 C 146.861 182.146,145.918 183.610,145.054 185.041 C 144.190 186.472,143.322 187.789,143.124 187.967 C 142.926 188.146,142.472 188.787,142.114 189.390 C 141.756 189.994,140.317 192.116,138.916 194.106 C 137.515 196.096,136.534 197.889,136.736 198.091 C 136.938 198.293,140.548 193.244,144.759 186.871 C 148.969 180.499,152.693 174.919,153.035 174.472 C 153.376 174.024,153.489 173.659,153.286 173.659 C 153.083 173.659,151.737 175.341,150.295 177.398 M195.409 174.655 C 196.103 175.180,196.898 175.610,197.175 175.610 C 197.452 175.610,198.577 176.488,199.675 177.561 C 200.773 178.634,201.862 179.512,202.095 179.512 C 202.952 179.512,198.674 175.530,196.828 174.609 C 194.409 173.403,193.780 173.423,195.409 174.655 M187.238 175.153 C 186.363 175.820,186.831 175.957,189.979 175.957 C 193.333 175.957,193.608 175.863,192.335 175.156 C 190.495 174.133,188.579 174.132,187.238 175.153 M180.563 178.864 C 179.270 180.296,178.211 181.826,178.211 182.264 C 178.211 182.702,179.107 181.973,180.203 180.645 C 181.298 179.316,182.826 177.786,183.599 177.245 C 184.676 176.490,184.761 176.260,183.960 176.260 C 183.386 176.260,181.857 177.432,180.563 178.864 M196.918 178.485 C 198.253 179.708,199.471 180.583,199.625 180.429 C 200.079 179.975,196.257 176.260,195.335 176.260 C 194.871 176.260,195.583 177.261,196.918 178.485 M166.576 178.934 C 166.101 180.009,165.850 181.027,166.020 181.196 C 166.190 181.366,166.700 180.608,167.154 179.512 C 168.231 176.913,167.704 176.386,166.576 178.934 M202.301 181.138 C 202.310 181.854,202.748 183.007,203.273 183.702 C 204.513 185.341,204.503 184.091,203.256 181.700 C 202.479 180.210,202.288 180.098,202.301 181.138 M175.656 182.401 C 174.707 184.792,175.000 189.436,176.114 189.657 C 176.570 189.747,176.643 189.672,176.276 189.491 C 175.402 189.057,175.419 184.986,176.302 183.336 C 176.683 182.624,176.864 181.692,176.705 181.265 C 176.546 180.837,176.074 181.349,175.656 182.401 M200.163 182.113 C 203.568 185.931,198.423 198.374,193.439 198.374 C 192.556 198.374,191.757 199.995,192.348 200.587 C 193.701 201.939,196.801 200.814,199.509 197.988 C 201.083 196.345,202.164 194.808,201.910 194.573 C 201.656 194.338,201.326 194.487,201.177 194.902 C 200.350 197.206,196.002 200.335,193.667 200.308 C 192.550 200.295,193.098 199.733,195.935 197.979 C 197.992 196.708,199.675 195.378,199.675 195.023 C 199.675 194.669,200.114 193.940,200.650 193.403 C 202.139 191.914,202.015 183.218,200.488 182.062 C 199.519 181.330,199.471 181.337,200.163 182.113 M164.907 186.296 C 164.350 191.496,165.903 195.071,167.556 192.396 C 168.314 191.171,168.320 181.989,167.563 182.746 C 167.209 183.100,166.889 185.283,166.851 187.599 C 166.814 189.914,166.574 192.017,166.318 192.273 C 165.777 192.814,165.645 191.056,165.836 185.854 C 166.020 180.837,165.463 181.102,164.907 186.296 M186.063 184.478 C 184.502 186.464,184.317 188.778,185.633 189.871 C 186.405 190.511,186.497 190.227,186.211 188.093 C 185.932 186.017,186.144 185.298,187.367 184.158 C 188.190 183.392,188.537 182.764,188.137 182.764 C 187.738 182.764,186.805 183.535,186.063 184.478 M192.537 184.228 C 193.867 185.650,193.890 186.116,192.817 189.919 C 192.370 191.502,192.385 191.510,193.394 190.244 C 194.803 188.475,194.745 185.164,193.282 183.841 C 191.518 182.244,190.956 182.536,192.537 184.228 M177.747 186.341 C 177.752 188.130,177.878 188.785,178.028 187.796 C 178.177 186.807,178.173 185.344,178.019 184.544 C 177.864 183.744,177.742 184.553,177.747 186.341 M211.892 190.138 C 211.578 196.138,211.497 196.400,208.594 200.767 C 204.552 206.847,195.850 212.929,194.421 210.672 C 193.953 209.933,193.839 209.976,193.831 210.894 C 193.816 212.660,195.943 212.279,200.128 209.766 C 205.551 206.509,207.802 204.180,210.858 198.661 C 212.323 196.015,213.844 185.616,212.904 184.676 C 212.417 184.190,212.119 185.802,211.892 190.138 M203.089 190.382 C 201.926 192.882,202.121 194.529,203.319 192.320 C 203.863 191.316,204.217 190.076,204.105 189.564 C 203.980 188.990,203.591 189.303,203.089 190.382 M134.632 200.488 C 134.291 201.293,132.263 204.439,130.125 207.480 C 127.986 210.520,125.611 214.325,124.845 215.935 C 124.080 217.545,123.042 219.690,122.540 220.703 C 122.037 221.716,121.637 223.326,121.650 224.280 C 121.667 225.472,122.155 224.668,123.206 221.714 C 125.114 216.357,125.388 215.848,130.302 208.557 C 136.062 200.010,136.642 199.024,135.909 199.024 C 135.548 199.024,134.973 199.683,134.632 200.488 M213.458 218.504 C 212.013 220.668,211.046 222.439,211.309 222.439 C 211.853 222.439,214.634 218.832,214.634 218.126 C 214.634 217.872,215.120 217.126,215.714 216.470 C 216.308 215.814,216.635 215.117,216.440 214.923 C 216.246 214.728,214.904 216.340,213.458 218.504 M209.550 223.881 C 209.127 224.304,208.780 224.887,208.780 225.176 C 208.780 225.464,207.226 227.967,205.327 230.736 C 203.427 233.506,198.535 240.723,194.456 246.773 C 182.260 264.863,177.195 268.550,163.577 269.252 C 157.792 269.551,156.921 269.715,159.024 270.112 C 165.337 271.304,182.764 266.147,182.764 263.087 C 182.764 262.667,183.438 262.016,184.261 261.641 C 185.084 261.266,186.913 259.243,188.326 257.146 C 189.739 255.049,191.114 253.236,191.382 253.117 C 191.650 252.997,191.870 252.500,191.870 252.011 C 191.870 251.522,192.236 250.887,192.683 250.601 C 193.596 250.017,194.812 248.204,195.758 246.016 C 196.106 245.211,196.659 244.553,196.987 244.553 C 197.314 244.553,197.766 243.821,197.991 242.927 C 198.215 242.033,198.686 241.301,199.037 241.301 C 199.388 241.301,199.675 240.977,199.675 240.581 C 199.675 240.186,200.553 238.753,201.626 237.398 C 202.699 236.043,203.577 234.635,203.577 234.270 C 203.577 233.904,203.797 233.507,204.065 233.388 C 204.806 233.058,207.480 229.089,207.480 228.319 C 207.480 227.947,207.699 227.640,207.967 227.638 C 208.523 227.633,210.892 223.683,210.546 223.337 C 210.422 223.213,209.973 223.457,209.550 223.881 M121.651 238.462 C 121.637 239.226,122.063 240.690,122.598 241.714 C 123.864 244.142,123.888 242.165,122.627 239.262 C 121.892 237.568,121.671 237.387,121.651 238.462 M123.577 244.304 C 123.577 244.662,124.007 245.523,124.532 246.217 C 125.057 246.912,125.487 247.187,125.487 246.829 C 125.487 246.472,125.057 245.611,124.532 244.916 C 124.007 244.222,123.577 243.946,123.577 244.304 M126.875 249.921 C 128.243 252.331,129.447 253.582,129.413 252.559 C 129.404 252.269,128.517 251.008,127.442 249.756 L 125.488 247.480 126.875 249.921 M131.089 255.067 C 131.508 256.080,136.888 260.163,137.805 260.163 C 138.148 260.163,138.526 260.382,138.645 260.650 C 138.974 261.391,142.943 264.065,143.714 264.065 C 144.086 264.065,144.390 264.338,144.390 264.672 C 144.390 265.005,145.049 265.484,145.854 265.735 C 146.659 265.986,147.503 266.480,147.730 266.834 C 147.957 267.187,148.496 267.358,148.929 267.214 C 149.361 267.069,148.885 266.521,147.871 265.996 C 145.578 264.808,136.445 258.663,133.170 256.105 C 131.828 255.056,130.892 254.589,131.089 255.067 M151.782 268.297 C 152.806 268.831,154.270 269.234,155.034 269.193 C 156.347 269.122,156.352 269.100,155.122 268.805 C 154.407 268.632,153.543 268.227,153.203 267.904 C 152.863 267.581,151.985 267.319,151.252 267.321 C 150.142 267.324,150.231 267.488,151.782 268.297 " stroke="none" fill="#4c98c8" fill-rule="evenodd"></path><path id="path3" d="M236.613 59.024 C 234.793 61.124,214.704 91.708,215.160 91.686 C 215.407 91.674,217.277 89.113,219.315 85.995 C 228.072 72.597,237.458 58.901,238.211 58.423 C 238.706 58.108,238.746 57.902,238.312 57.896 C 237.920 57.891,237.156 58.398,236.613 59.024 M241.585 60.421 C 241.784 60.744,242.990 61.623,244.265 62.375 C 245.539 63.127,246.419 63.478,246.220 63.156 C 246.021 62.834,244.815 61.955,243.540 61.203 C 242.266 60.450,241.386 60.099,241.585 60.421 M247.439 64.324 C 247.638 64.646,248.844 65.525,250.118 66.277 C 251.393 67.029,252.273 67.381,252.074 67.058 C 251.874 66.736,250.669 65.857,249.394 65.105 C 248.119 64.353,247.239 64.001,247.439 64.324 M228.959 80.018 C 220.865 92.168,219.135 95.156,219.826 95.796 C 220.499 96.419,220.578 96.408,220.202 95.744 C 219.769 94.980,233.026 74.174,234.309 73.604 C 234.577 73.485,234.797 73.134,234.797 72.824 C 234.797 72.172,238.529 66.523,239.258 66.073 C 239.527 65.907,240.366 66.118,241.121 66.544 C 245.874 69.219,246.624 69.546,245.839 68.601 C 245.402 68.074,244.737 67.642,244.362 67.642 C 243.987 67.642,243.218 67.238,242.653 66.744 C 239.601 64.073,239.550 64.122,228.959 80.018 M253.008 67.899 C 253.008 68.049,256.886 70.757,261.626 73.917 C 266.366 77.077,270.390 79.814,270.569 80.001 C 270.748 80.187,275.065 83.112,280.163 86.502 C 289.702 92.845,290.888 94.241,288.455 96.260 C 287.919 96.705,287.486 97.400,287.494 97.803 C 287.502 98.207,288.081 97.805,288.780 96.911 C 291.254 93.749,290.676 92.875,282.439 87.322 C 278.236 84.489,271.059 79.633,266.491 76.532 C 256.728 69.905,253.008 67.523,253.008 67.899 M248.068 70.732 C 248.750 71.537,249.701 72.195,250.182 72.195 C 250.663 72.195,251.057 72.488,251.057 72.846 C 251.057 73.203,251.385 73.496,251.787 73.496 C 252.291 73.496,252.267 73.194,251.707 72.520 C 251.262 71.984,250.591 71.545,250.215 71.545 C 249.840 71.545,248.925 71.033,248.181 70.407 C 246.831 69.269,246.831 69.270,248.068 70.732 M254.935 75.400 C 256.173 76.499,257.466 77.398,257.807 77.398 C 258.149 77.398,258.306 77.313,258.157 77.209 C 258.008 77.106,256.715 76.206,255.285 75.211 L 252.683 73.402 254.935 75.400 M236.585 77.394 C 234.332 80.529,234.333 81.988,236.589 83.366 C 237.571 83.965,239.764 85.356,241.463 86.457 C 243.163 87.557,244.553 88.314,244.553 88.139 C 244.553 87.964,243.309 87.042,241.789 86.090 C 240.268 85.138,238.878 84.153,238.699 83.903 C 238.520 83.652,237.715 83.100,236.911 82.676 C 235.001 81.671,235.062 80.302,237.139 77.580 C 238.069 76.360,238.728 75.259,238.602 75.134 C 238.477 75.008,237.569 76.025,236.585 77.394 M242.602 75.004 C 242.602 75.161,245.089 76.961,248.128 79.004 C 254.943 83.586,254.786 83.309,252.565 86.819 C 250.373 90.284,249.119 90.834,246.696 89.395 L 244.878 88.314 246.414 89.685 C 248.446 91.501,249.485 91.416,251.479 89.268 C 254.209 86.328,255.194 83.993,254.206 82.803 C 253.057 81.418,242.602 74.392,242.602 75.004 M258.862 78.054 C 258.862 78.431,259.374 78.926,260.000 79.153 C 260.626 79.380,262.163 80.322,263.415 81.246 C 267.025 83.912,269.173 85.040,268.050 83.682 C 267.559 83.088,266.825 82.602,266.418 82.602 C 266.011 82.602,264.949 81.940,264.058 81.132 C 261.610 78.910,258.862 77.283,258.862 78.054 M257.272 91.456 C 255.668 93.872,255.066 95.326,255.493 95.753 C 255.920 96.181,256.107 96.100,256.046 95.517 C 255.628 91.556,261.007 87.518,264.083 89.483 L 265.691 90.511 264.156 89.158 C 261.550 86.862,259.973 87.388,257.272 91.456 M266.254 90.915 C 266.463 91.253,268.375 92.639,270.503 93.995 C 275.133 96.944,275.475 97.859,273.248 101.335 C 270.828 105.114,270.308 105.121,264.903 101.454 C 262.238 99.646,260.234 98.451,260.448 98.798 C 261.320 100.208,269.848 105.352,270.744 105.008 C 271.982 104.533,275.772 99.265,275.772 98.020 C 275.772 97.495,274.821 96.344,273.659 95.463 C 270.571 93.124,265.812 90.201,266.254 90.915 M207.698 93.171 C 205.685 95.421,198.771 106.016,199.315 106.016 C 199.484 106.016,201.599 103.057,204.014 99.440 C 206.430 95.823,209.003 92.622,209.732 92.327 C 210.664 91.949,210.753 91.778,210.032 91.749 C 209.468 91.726,208.418 92.366,207.698 93.171 M281.337 93.171 C 281.573 93.797,282.027 94.309,282.346 94.309 C 283.564 94.309,282.669 95.866,273.759 109.247 C 263.908 124.041,263.603 124.353,260.695 122.636 C 259.637 122.011,258.633 121.638,258.465 121.806 C 258.296 121.975,259.413 122.735,260.947 123.494 L 263.737 124.874 264.892 123.413 C 265.528 122.609,267.431 119.830,269.121 117.237 C 270.812 114.644,274.286 109.473,276.842 105.745 C 284.295 94.877,284.137 95.227,282.385 93.493 C 281.249 92.369,281.008 92.294,281.337 93.171 M223.794 99.059 C 223.943 99.167,224.943 99.770,226.016 100.398 L 227.967 101.541 226.432 100.201 C 225.588 99.465,224.588 98.862,224.210 98.862 C 223.832 98.862,223.645 98.950,223.794 99.059 M277.902 112.358 C 268.472 126.464,267.326 128.254,268.429 127.154 C 269.373 126.213,274.472 119.137,274.472 118.768 C 274.472 118.596,276.360 115.730,278.668 112.399 C 283.133 105.954,287.589 98.862,287.174 98.862 C 287.036 98.862,282.863 104.935,277.902 112.358 M228.293 101.735 C 228.293 102.091,236.123 107.317,236.657 107.317 C 236.884 107.317,235.607 106.301,233.819 105.059 C 232.032 103.817,230.216 102.500,229.784 102.132 C 228.972 101.441,228.293 101.260,228.293 101.735 M192.752 115.149 C 189.584 119.814,185.675 125.654,184.065 128.125 C 180.663 133.350,146.381 184.646,145.485 185.854 C 145.153 186.301,145.064 186.667,145.287 186.667 C 145.510 186.667,147.986 183.228,150.789 179.024 C 153.592 174.821,165.388 157.187,177.002 139.837 C 200.179 105.213,199.223 106.667,198.806 106.667 C 198.644 106.667,195.919 110.484,192.752 115.149 M239.649 109.413 C 240.737 110.388,241.885 111.192,242.202 111.202 C 242.518 111.212,241.933 110.582,240.901 109.802 C 238.018 107.625,237.460 107.452,239.649 109.413 M269.399 130.551 C 270.004 132.155,269.861 132.800,268.377 135.151 C 267.427 136.655,266.797 137.886,266.976 137.886 C 268.907 137.886,271.162 130.733,269.632 129.463 C 268.830 128.797,268.796 128.953,269.399 130.551 M263.002 143.205 C 258.387 150.211,257.324 151.984,258.393 150.894 C 259.987 149.268,266.744 139.048,266.432 138.735 C 266.271 138.575,264.728 140.586,263.002 143.205 M249.368 163.731 C 245.110 170.086,241.342 175.488,240.994 175.737 C 240.647 175.986,240.552 176.379,240.783 176.610 C 241.014 176.841,242.027 175.759,243.035 174.206 C 244.042 172.653,245.030 171.236,245.231 171.057 C 245.433 170.878,246.307 169.561,247.174 168.130 C 248.041 166.699,250.745 162.638,253.183 159.106 C 255.621 155.573,257.502 152.570,257.363 152.431 C 257.224 152.292,253.626 157.377,249.368 163.731 M181.555 164.649 C 180.353 164.994,179.485 165.393,179.626 165.534 C 179.767 165.675,181.336 165.392,183.112 164.905 C 184.888 164.417,185.756 164.019,185.041 164.019 C 184.325 164.020,182.757 164.303,181.555 164.649 M192.195 164.536 C 193.626 164.796,195.675 165.201,196.748 165.437 C 198.518 165.825,198.487 165.779,196.423 164.933 C 195.171 164.421,193.122 164.016,191.870 164.033 L 189.593 164.065 192.195 164.536 M174.364 168.313 C 172.426 169.643,170.385 171.463,169.826 172.358 C 169.108 173.509,169.687 173.193,171.811 171.275 C 173.461 169.785,175.722 168.094,176.836 167.518 C 178.775 166.516,179.415 165.831,178.374 165.873 C 178.106 165.884,176.301 166.982,174.364 168.313 M199.024 166.115 C 199.024 166.258,200.122 166.996,201.463 167.753 L 203.902 169.131 201.951 167.496 C 200.161 165.995,199.024 165.459,199.024 166.115 M184.358 167.742 C 184.018 168.065,183.154 168.470,182.439 168.642 C 181.236 168.931,181.245 168.960,182.563 169.030 C 183.347 169.072,184.169 168.813,184.390 168.455 C 185.000 167.469,191.175 167.695,194.412 168.822 C 198.759 170.336,199.703 170.927,203.556 174.546 C 206.626 177.430,206.638 176.936,203.577 173.635 C 199.123 168.831,187.093 165.142,184.358 167.742 M176.935 170.760 C 173.150 173.432,168.441 180.182,168.462 182.905 C 168.465 183.364,169.168 182.236,170.024 180.397 C 171.918 176.331,175.680 172.049,178.814 170.392 C 180.092 169.716,180.699 169.165,180.163 169.166 C 179.626 169.168,178.173 169.885,176.935 170.760 M204.228 169.309 C 204.228 169.421,205.179 170.372,206.341 171.423 L 208.455 173.333 206.545 171.220 C 204.764 169.249,204.228 168.807,204.228 169.309 M187.317 172.358 C 184.632 172.775,184.766 172.817,188.943 172.865 C 192.018 172.900,193.074 172.735,192.195 172.358 C 191.480 172.050,190.748 171.822,190.569 171.851 C 190.390 171.879,188.927 172.107,187.317 172.358 M180.709 174.821 C 179.399 175.791,177.973 177.171,177.541 177.886 C 177.063 178.676,177.615 178.395,178.946 177.171 C 180.152 176.063,181.862 174.673,182.746 174.082 C 183.631 173.491,184.070 173.019,183.722 173.032 C 183.374 173.045,182.018 173.850,180.709 174.821 M195.359 173.988 C 197.717 175.218,198.429 175.205,196.786 173.963 C 196.092 173.438,195.067 173.010,194.510 173.012 C 193.952 173.014,194.334 173.453,195.359 173.988 M208.817 174.645 C 209.374 175.355,210.190 176.778,210.630 177.808 C 211.071 178.838,211.567 179.544,211.734 179.377 C 212.205 178.906,210.187 175.199,208.930 174.226 C 207.885 173.418,207.877 173.448,208.817 174.645 M167.131 176.423 C 165.625 178.863,164.867 181.344,165.450 181.927 C 165.672 182.149,165.854 181.858,165.854 181.281 C 165.854 180.704,166.562 178.899,167.428 177.270 C 169.245 173.853,169.054 173.308,167.131 176.423 M200.366 177.286 C 201.596 178.744,202.733 179.832,202.894 179.703 C 203.055 179.574,202.049 178.381,200.659 177.051 L 198.131 174.634 200.366 177.286 M188.780 176.058 C 189.407 176.222,190.431 176.222,191.057 176.058 C 191.683 175.895,191.171 175.761,189.919 175.761 C 188.667 175.761,188.154 175.895,188.780 176.058 M181.344 179.510 C 179.488 181.435,178.212 183.357,178.212 184.225 C 178.212 185.330,178.553 185.002,179.596 182.897 C 181.009 180.041,184.014 177.292,186.341 176.727 C 187.441 176.460,187.397 176.399,186.059 176.336 C 184.955 176.283,183.529 177.243,181.344 179.510 M194.145 177.285 C 197.078 178.814,198.434 180.218,199.752 183.089 C 200.666 185.079,200.950 185.346,200.961 184.225 C 200.979 182.389,195.198 176.259,193.453 176.264 C 192.502 176.267,192.671 176.516,194.145 177.285 M229.097 193.925 C 223.046 202.990,215.926 213.625,213.275 217.560 C 210.624 221.494,208.163 225.222,207.805 225.844 C 207.447 226.466,205.316 229.653,203.070 232.926 C 200.823 236.199,199.095 238.987,199.230 239.121 C 199.438 239.330,207.165 228.254,209.106 224.965 C 211.220 221.382,239.716 179.108,240.268 178.735 C 240.637 178.486,240.749 178.094,240.519 177.863 C 240.288 177.633,235.149 184.861,229.097 193.925 M175.748 180.834 C 175.314 181.528,174.961 182.466,174.963 182.918 C 174.966 183.370,175.410 182.891,175.951 181.854 C 177.078 179.693,176.929 178.943,175.748 180.834 M202.927 181.280 C 202.927 181.697,203.220 182.218,203.577 182.439 C 203.935 182.660,204.271 183.775,204.325 184.916 C 204.417 186.872,204.438 186.889,204.693 185.211 C 204.841 184.231,204.505 182.777,203.945 181.977 C 203.385 181.178,202.927 180.864,202.927 181.280 M212.073 181.960 C 212.051 182.770,212.380 183.988,212.804 184.668 C 215.826 189.507,209.615 203.615,202.348 208.416 C 200.421 209.690,199.101 210.732,199.416 210.732 C 200.777 210.732,206.783 205.934,208.585 203.408 C 213.170 196.981,214.990 189.124,213.164 183.643 C 212.518 181.703,212.097 181.055,212.073 181.960 M186.816 182.549 C 185.746 182.979,184.065 186.236,184.065 187.877 C 184.065 191.879,191.383 193.763,193.954 190.424 C 197.469 185.856,192.426 180.292,186.816 182.549 M164.320 185.203 C 163.648 189.267,163.851 192.318,164.847 193.145 C 165.890 194.011,168.455 193.479,168.455 192.397 C 168.455 191.991,168.028 192.065,167.409 192.579 C 165.505 194.159,164.386 191.611,164.884 186.829 C 165.346 182.391,164.966 181.295,164.320 185.203 M193.282 183.841 C 194.681 185.106,194.820 188.429,193.544 190.111 C 191.261 193.121,184.715 191.321,184.715 187.683 C 184.715 183.656,190.307 181.148,193.282 183.841 M174.360 186.466 C 174.332 187.965,174.540 189.335,174.823 189.509 C 175.106 189.684,175.232 188.750,175.101 187.434 C 174.746 183.835,174.418 183.406,174.360 186.466 M209.056 188.716 C 209.083 191.454,209.321 193.356,209.584 192.944 C 210.176 192.016,210.114 187.550,209.479 185.366 C 209.188 184.368,209.025 185.663,209.056 188.716 M167.982 187.317 C 167.982 188.927,168.109 189.585,168.264 188.780 C 168.419 187.976,168.419 186.659,168.264 185.854 C 168.109 185.049,167.982 185.707,167.982 187.317 M135.426 200.880 C 125.943 215.001,123.886 218.411,124.487 219.012 C 124.682 219.208,125.116 218.647,125.451 217.766 C 125.995 216.335,130.020 210.056,137.605 198.808 C 139.012 196.722,140.455 194.528,140.813 193.933 C 141.171 193.338,142.304 191.738,143.330 190.379 C 144.357 189.020,145.055 187.765,144.880 187.590 C 144.705 187.415,140.451 193.396,135.426 200.880 M204.319 188.943 C 204.184 191.484,200.953 197.080,198.362 199.260 C 197.241 200.203,196.579 200.976,196.891 200.976 C 199.214 200.976,205.139 191.672,204.689 188.731 C 204.430 187.039,204.420 187.045,204.319 188.943 M199.833 191.346 C 198.940 193.821,196.004 196.770,193.474 197.732 C 192.592 198.067,191.893 198.715,191.921 199.171 C 191.962 199.823,192.043 199.827,192.301 199.187 C 192.481 198.740,192.986 198.374,193.424 198.374 C 195.826 198.374,201.280 192.278,200.847 190.077 C 200.739 189.528,200.282 190.099,199.833 191.346 M207.275 197.355 C 206.612 198.964,204.566 201.662,202.599 203.522 C 200.676 205.341,199.351 206.829,199.654 206.829 C 201.642 206.829,209.267 196.882,208.656 195.085 C 208.546 194.760,207.924 195.782,207.275 197.355 M192.425 201.140 C 192.753 201.468,193.713 201.627,194.559 201.494 C 195.861 201.289,195.769 201.198,193.963 200.898 C 192.671 200.684,192.064 200.779,192.425 201.140 M195.243 207.877 C 192.694 208.990,192.369 212.302,194.797 212.422 C 195.787 212.470,195.826 212.421,194.959 212.214 C 192.830 211.705,193.610 209.202,196.263 208.030 C 197.603 207.438,198.407 206.950,198.049 206.945 C 197.691 206.940,196.429 207.359,195.243 207.877 M122.703 223.157 C 121.362 227.308,121.287 235.835,122.563 239.174 C 123.078 240.523,123.629 242.211,123.788 242.927 C 124.060 244.154,124.081 244.150,124.152 242.844 C 124.194 242.082,123.789 240.409,123.252 239.125 C 121.972 236.062,121.995 228.175,123.296 223.794 C 124.618 219.341,124.111 218.797,122.703 223.157 M197.224 241.789 C 195.540 244.220,194.993 245.203,195.322 245.203 C 195.475 245.203,196.374 244.033,197.321 242.602 C 199.246 239.694,199.162 238.990,197.224 241.789 M193.310 247.642 C 192.623 248.626,190.958 251.041,189.611 253.008 C 188.263 254.976,185.952 257.864,184.475 259.428 C 182.914 261.079,182.359 261.978,183.151 261.573 C 183.900 261.189,185.246 259.910,186.141 258.730 C 189.132 254.790,195.193 245.854,194.874 245.854 C 194.702 245.854,193.998 246.659,193.310 247.642 M125.546 246.904 C 125.556 247.221,126.360 248.369,127.335 249.456 C 129.296 251.646,129.123 251.087,126.946 248.205 C 126.166 247.173,125.536 246.588,125.546 246.904 M129.431 252.857 C 129.431 253.725,146.235 265.689,146.742 265.182 C 146.873 265.051,143.690 262.720,139.669 260.002 C 135.648 257.284,131.699 254.441,130.894 253.684 C 130.089 252.927,129.431 252.555,129.431 252.857 M179.741 263.410 C 178.973 263.720,178.151 264.287,177.914 264.670 C 177.341 265.597,177.639 265.552,180.063 264.343 C 182.999 262.878,182.762 262.192,179.741 263.410 M148.580 266.306 C 149.274 266.862,150.298 267.294,150.856 267.266 C 151.732 267.221,151.737 267.165,150.894 266.853 C 150.358 266.654,149.333 266.222,148.618 265.892 C 147.338 265.304,147.337 265.310,148.580 266.306 M175.252 265.938 C 174.912 266.252,173.463 266.885,172.033 267.345 C 170.602 267.804,169.751 268.288,170.142 268.419 C 170.916 268.679,176.911 266.283,176.911 265.714 C 176.911 265.173,175.937 265.304,175.252 265.938 M159.187 269.097 C 161.065 269.229,164.138 269.229,166.016 269.097 C 167.894 268.966,166.358 268.859,162.602 268.859 C 158.846 268.859,157.309 268.966,159.187 269.097 " stroke="none" fill="#76b0d5" fill-rule="evenodd"></path><path id="path4" d="M235.356 61.951 C 233.650 64.566,216.300 90.535,215.554 91.593 C 215.472 91.709,214.030 91.896,212.350 92.010 C 208.421 92.275,211.407 88.305,181.752 132.683 C 167.529 153.967,153.524 174.894,150.629 179.187 C 147.734 183.480,145.250 187.285,145.109 187.642 C 144.967 188.000,144.089 189.318,143.158 190.572 C 142.226 191.825,141.171 193.338,140.813 193.933 C 140.455 194.528,139.012 196.722,137.605 198.808 C 125.921 216.136,125.012 217.715,123.292 223.695 C 122.049 228.019,122.014 236.372,123.229 239.024 L 124.122 240.976 124.175 239.225 C 124.204 238.263,123.935 237.294,123.577 237.073 C 120.585 235.224,125.934 215.530,130.732 210.732 C 131.668 209.795,133.984 206.148,133.984 205.609 C 133.984 205.267,134.203 204.889,134.472 204.770 C 135.164 204.462,150.894 180.849,150.894 180.117 C 150.894 179.784,151.171 179.512,151.509 179.512 C 151.847 179.512,152.506 178.807,152.973 177.945 C 153.439 177.083,155.577 173.792,157.724 170.631 C 159.870 167.470,161.735 164.629,161.868 164.319 C 162.118 163.733,165.932 158.091,170.829 151.060 C 172.385 148.826,173.659 146.728,173.659 146.399 C 173.659 146.069,173.878 145.702,174.146 145.583 C 174.825 145.281,178.862 139.279,178.862 138.572 C 178.862 138.254,179.097 137.897,179.384 137.778 C 179.671 137.659,184.857 130.098,190.908 120.976 C 196.958 111.854,202.284 104.003,202.743 103.531 C 203.202 103.058,203.577 102.390,203.577 102.047 C 203.577 99.255,209.883 93.060,212.750 93.035 L 215.744 93.008 222.831 82.580 C 226.729 76.844,230.358 71.356,230.894 70.385 C 231.431 69.413,232.016 68.472,232.195 68.293 C 232.926 67.562,235.447 63.764,235.447 63.395 C 235.447 63.176,235.860 62.584,236.365 62.079 C 236.869 61.574,237.385 60.854,237.510 60.479 C 237.771 59.697,241.951 60.918,241.951 61.776 C 241.951 62.057,242.463 62.472,243.089 62.699 C 244.815 63.323,246.703 64.553,248.466 66.204 C 249.340 67.023,250.699 67.854,251.485 68.051 C 252.271 68.249,253.072 68.823,253.266 69.327 C 253.459 69.831,254.066 70.244,254.614 70.244 C 255.162 70.244,255.610 70.517,255.610 70.850 C 255.610 71.184,256.268 71.663,257.073 71.914 C 257.878 72.165,258.683 72.581,258.862 72.839 C 259.281 73.443,267.937 79.350,268.403 79.350 C 268.597 79.350,269.865 80.228,271.220 81.301 C 272.575 82.374,273.992 83.252,274.370 83.252 C 274.748 83.252,275.291 83.618,275.577 84.065 C 276.161 84.978,277.975 86.194,280.163 87.140 C 280.967 87.488,281.626 88.073,281.626 88.439 C 281.626 88.806,282.065 89.106,282.602 89.106 C 283.138 89.106,283.577 89.379,283.577 89.712 C 283.577 90.046,284.213 90.521,284.991 90.767 C 287.046 91.420,289.012 93.451,288.541 94.435 C 288.040 95.481,283.794 101.912,276.098 113.284 C 272.878 118.041,270.127 122.230,269.984 122.592 C 269.841 122.955,269.548 123.398,269.333 123.577 C 267.004 125.518,266.657 126.610,267.704 128.709 C 268.724 130.753,268.561 134.915,267.442 135.400 C 267.176 135.515,264.924 138.683,262.439 142.439 C 259.954 146.195,257.693 149.366,257.415 149.485 C 257.138 149.604,256.911 149.956,256.911 150.265 C 256.911 150.904,253.168 156.623,251.893 157.933 C 251.433 158.405,251.057 159.210,251.057 159.721 C 251.057 160.232,250.755 160.650,250.386 160.650 C 250.017 160.650,249.520 161.163,249.281 161.789 C 249.042 162.415,248.603 163.220,248.305 163.577 C 246.864 165.308,241.951 173.116,241.951 173.674 C 241.951 174.023,241.686 174.309,241.363 174.309 C 241.039 174.309,239.941 175.660,238.924 177.311 C 237.906 178.962,236.775 180.792,236.410 181.376 C 236.045 181.961,233.118 186.336,229.906 191.100 C 226.693 195.864,223.772 200.254,223.415 200.856 C 223.057 201.458,222.618 202.098,222.439 202.276 C 221.503 203.213,219.187 206.861,219.187 207.399 C 219.187 207.742,218.963 208.119,218.690 208.238 C 218.036 208.523,189.268 251.640,189.268 252.335 C 189.268 252.628,188.829 253.037,188.293 253.243 C 187.756 253.449,187.317 253.937,187.317 254.327 C 187.317 254.922,184.873 257.811,180.929 261.878 C 180.456 262.365,179.683 262.764,179.210 262.764 C 178.737 262.764,178.182 263.203,177.976 263.740 C 177.770 264.276,177.126 264.715,176.544 264.715 C 175.961 264.715,174.708 265.124,173.759 265.624 C 169.245 268.001,163.055 268.436,153.821 267.027 L 151.220 266.630 153.821 267.614 C 159.735 269.851,170.792 268.701,176.585 265.245 C 177.659 264.605,179.176 263.800,179.957 263.455 C 181.726 262.675,186.249 257.822,189.310 253.417 C 194.407 246.083,198.876 239.477,199.106 238.937 C 199.240 238.623,201.106 235.794,203.252 232.651 C 205.398 229.508,207.447 226.436,207.805 225.825 C 208.163 225.213,210.624 221.494,213.275 217.560 C 227.503 196.442,240.356 177.158,240.585 176.585 C 240.728 176.228,241.028 175.789,241.251 175.610 C 241.474 175.431,248.070 165.677,255.909 153.933 L 270.162 132.582 269.127 129.789 L 268.091 126.996 277.786 112.536 C 283.117 104.583,287.480 97.850,287.480 97.573 C 287.480 97.296,287.919 96.705,288.455 96.260 C 290.888 94.241,289.702 92.845,280.163 86.502 C 275.065 83.112,270.748 80.186,270.569 80.000 C 269.740 79.135,238.605 58.537,238.127 58.537 C 237.829 58.537,236.582 60.073,235.356 61.951 M237.938 64.878 C 236.884 66.125,224.463 84.489,223.415 86.351 C 223.057 86.987,222.033 88.521,221.138 89.760 C 217.891 94.261,217.694 94.997,219.285 96.690 C 220.071 97.527,220.987 98.211,221.321 98.211 C 221.654 98.211,223.035 99.089,224.390 100.163 C 225.745 101.236,227.163 102.114,227.541 102.114 C 227.919 102.114,228.462 102.480,228.748 102.927 C 229.277 103.753,231.076 105.019,232.846 105.810 C 233.382 106.050,233.967 106.430,234.146 106.654 C 234.325 106.877,235.642 107.767,237.073 108.632 C 238.504 109.496,240.239 110.721,240.928 111.354 C 241.617 111.987,242.787 112.696,243.529 112.929 C 244.271 113.161,245.738 114.189,246.790 115.212 C 247.842 116.236,249.201 117.073,249.810 117.073 C 250.419 117.073,251.062 117.448,251.237 117.906 C 251.413 118.364,252.688 119.315,254.071 120.020 C 255.454 120.724,256.878 121.657,257.236 122.093 C 257.593 122.529,259.274 123.617,260.971 124.511 L 264.055 126.137 266.743 122.499 C 268.221 120.497,269.765 118.239,270.174 117.479 C 271.065 115.823,273.330 112.325,273.806 111.870 C 274.663 111.051,281.339 101.069,282.070 99.512 C 282.322 98.976,282.911 98.150,283.378 97.677 C 285.122 95.913,283.424 91.707,280.968 91.707 C 280.615 91.707,280.325 91.407,280.325 91.041 C 280.325 90.674,279.667 90.090,278.862 89.742 C 277.092 88.976,275.163 87.765,273.965 86.667 C 273.477 86.220,272.660 85.854,272.149 85.854 C 271.638 85.854,271.220 85.610,271.220 85.312 C 271.220 85.013,268.805 83.204,265.854 81.291 C 262.902 79.378,260.390 77.573,260.271 77.281 C 260.152 76.988,259.774 76.748,259.432 76.748 C 258.702 76.748,254.734 74.046,254.417 73.333 C 254.298 73.065,253.777 72.846,253.259 72.846 C 252.741 72.846,252.148 72.407,251.943 71.870 C 251.737 71.333,251.148 70.894,250.635 70.894 C 250.121 70.894,249.264 70.528,248.730 70.081 C 248.197 69.634,247.404 68.965,246.969 68.595 C 246.084 67.841,239.450 63.740,239.115 63.740 C 238.997 63.740,238.468 64.252,237.938 64.878 M242.653 66.744 C 243.218 67.238,243.907 67.642,244.185 67.642 C 244.463 67.642,245.759 68.447,247.063 69.431 C 248.368 70.415,249.914 71.512,250.498 71.870 C 253.252 73.556,261.991 79.483,263.667 80.800 C 264.699 81.612,265.870 82.392,266.268 82.534 C 266.666 82.675,268.058 83.626,269.362 84.647 C 270.665 85.669,271.940 86.504,272.195 86.504 C 272.450 86.504,273.767 87.382,275.122 88.455 C 276.477 89.528,277.794 90.407,278.049 90.407 C 278.868 90.407,283.577 94.395,283.577 95.089 C 283.577 95.457,281.466 98.872,278.886 102.676 C 276.306 106.481,272.959 111.496,271.449 113.821 C 263.048 126.756,264.969 126.403,251.757 117.432 C 246.725 114.015,242.429 111.220,242.210 111.220 C 241.992 111.220,240.705 110.341,239.350 109.268 C 237.995 108.195,236.731 107.317,236.542 107.317 C 236.352 107.317,233.614 105.566,230.456 103.426 C 222.307 97.901,222.488 98.030,220.634 96.463 L 218.951 95.040 228.948 80.035 C 239.551 64.121,239.601 64.072,242.653 66.744 M238.900 74.606 C 238.663 75.248,237.790 76.678,236.958 77.785 C 235.059 80.315,235.045 81.694,236.911 82.676 C 237.715 83.100,238.520 83.646,238.699 83.890 C 239.800 85.390,248.656 90.427,249.615 90.098 C 250.956 89.640,254.547 84.163,254.042 83.346 C 253.650 82.713,243.152 75.481,240.803 74.226 C 239.548 73.556,239.267 73.613,238.900 74.606 M243.252 76.812 C 243.252 77.134,243.557 77.398,243.929 77.398 C 244.509 77.398,248.126 79.671,249.106 80.650 C 249.285 80.829,249.997 81.288,250.688 81.669 C 253.281 83.100,253.365 84.240,251.091 87.111 C 249.127 89.592,248.857 89.733,247.838 88.810 C 247.227 88.257,246.269 87.805,245.709 87.805 C 245.150 87.805,244.524 87.366,244.318 86.829 C 244.112 86.293,243.495 85.854,242.947 85.854 C 242.399 85.854,241.943 85.634,241.934 85.366 C 241.924 85.098,240.731 84.147,239.283 83.253 C 236.449 81.504,236.117 79.238,238.365 76.989 C 238.907 76.448,239.350 75.748,239.350 75.435 C 239.350 75.121,240.228 75.171,241.301 75.545 C 242.374 75.919,243.252 76.489,243.252 76.812 M257.888 91.545 C 256.820 93.244,255.866 94.798,255.766 94.998 C 255.424 95.682,269.823 104.711,270.685 104.353 C 272.016 103.799,274.984 98.801,274.678 97.630 C 274.323 96.274,262.748 88.455,261.095 88.455 C 260.289 88.455,259.121 89.581,257.888 91.545 M262.873 89.638 C 262.992 89.931,265.504 91.736,268.455 93.649 C 274.396 97.500,274.726 98.232,271.911 101.314 C 269.790 103.636,269.171 103.593,265.280 100.851 C 263.981 99.936,262.255 98.748,261.444 98.211 C 260.633 97.675,259.286 96.650,258.450 95.935 L 256.930 94.634 258.709 91.897 C 260.334 89.397,262.333 88.312,262.873 89.638 M180.519 163.852 C 180.315 164.183,179.346 164.636,178.367 164.860 C 175.758 165.457,168.455 171.473,168.455 173.024 C 168.455 173.731,168.192 174.309,167.871 174.309 C 167.079 174.309,164.553 179.246,164.553 180.795 C 164.553 181.478,164.299 182.194,163.988 182.386 C 161.642 183.836,162.839 193.529,165.445 194.183 C 168.915 195.054,169.756 193.711,169.756 187.294 C 169.756 183.841,170.021 181.463,170.407 181.463 C 170.764 181.463,171.057 181.082,171.057 180.616 C 171.057 178.845,176.959 171.784,178.485 171.729 C 178.815 171.717,179.647 171.199,180.334 170.577 C 182.260 168.833,193.951 168.940,197.401 170.732 C 200.505 172.344,206.179 177.834,206.179 179.225 C 206.179 179.792,206.618 180.695,207.154 181.231 C 210.497 184.574,207.247 178.678,203.579 174.746 C 198.537 169.339,186.319 165.334,184.390 168.455 C 184.169 168.813,183.409 169.106,182.700 169.106 C 176.536 169.106,168.233 179.820,168.464 187.479 C 168.621 192.728,168.549 193.053,167.123 193.506 C 163.961 194.509,163.129 190.796,164.788 183.089 C 169.142 162.870,195.316 156.829,208.183 173.075 C 209.313 174.502,210.379 175.529,210.551 175.357 C 210.722 175.186,210.545 174.660,210.157 174.189 C 209.768 173.718,208.702 172.398,207.787 171.256 C 206.872 170.113,205.039 168.519,203.712 167.713 C 202.386 166.907,201.154 166.086,200.975 165.888 C 198.850 163.542,181.762 161.841,180.519 163.852 M181.959 172.822 C 174.159 177.011,169.991 190.569,176.502 190.569 C 178.914 190.569,179.512 189.782,179.512 186.605 C 179.512 179.685,187.727 175.182,194.452 178.415 C 202.159 182.120,201.064 194.863,192.846 197.102 C 189.412 198.038,191.921 203.545,195.385 202.675 C 202.765 200.823,207.914 188.429,204.427 180.911 C 203.455 178.816,199.482 174.309,198.606 174.309 C 198.427 174.309,197.842 173.870,197.305 173.333 C 196.769 172.797,195.783 172.358,195.114 172.358 C 194.445 172.358,193.717 172.065,193.496 171.707 C 192.663 170.359,185.203 171.079,181.959 172.822 M194.303 172.963 C 200.082 174.519,204.878 180.984,204.878 187.219 C 204.878 193.688,199.501 201.071,194.679 201.223 C 191.421 201.325,190.638 198.810,193.580 197.692 C 200.544 195.044,202.859 185.998,198.039 180.270 C 191.919 172.997,179.354 176.815,178.572 186.185 C 178.476 187.344,178.355 188.678,178.304 189.149 C 177.958 192.351,174.637 189.460,174.706 186.016 C 174.864 178.089,184.064 170.227,191.016 172.080 C 191.441 172.193,192.920 172.590,194.303 172.963 M210.732 176.515 C 210.732 176.742,211.007 177.436,211.344 178.058 C 217.427 189.279,211.970 204.308,199.487 210.710 C 194.744 213.143,192.964 213.034,193.290 210.329 C 193.456 208.948,194.122 208.376,196.748 207.356 C 204.999 204.154,210.580 194.330,208.873 186.016 C 208.308 183.261,208.268 183.402,208.201 188.435 C 208.094 196.509,202.208 205.401,196.229 206.522 C 192.741 207.177,191.312 209.026,192.564 211.264 C 193.816 213.503,195.664 213.742,198.786 212.069 C 200.159 211.334,201.518 210.732,201.806 210.732 C 202.981 210.732,210.732 203.131,210.732 201.980 C 210.732 201.571,211.067 200.901,211.477 200.491 C 214.219 197.749,215.660 185.614,213.659 182.114 C 213.147 181.220,212.719 179.865,212.706 179.104 C 212.693 178.343,212.244 177.356,211.707 176.911 C 211.171 176.465,210.732 176.287,210.732 176.515 M186.520 181.827 C 183.507 183.462,182.015 189.422,184.390 190.334 C 184.927 190.540,185.368 191.043,185.371 191.452 C 185.376 192.239,188.289 193.821,189.732 193.821 C 190.202 193.821,191.228 193.455,192.012 193.008 C 199.656 188.646,194.248 177.633,186.520 181.827 M193.617 183.528 C 198.561 188.173,191.353 195.285,186.143 190.901 C 183.846 188.969,183.586 187.529,185.027 184.742 C 186.597 181.707,191.013 181.082,193.617 183.528 M124.316 242.764 C 124.268 243.748,124.520 244.553,124.878 244.553 C 125.236 244.553,125.528 244.897,125.528 245.318 C 125.528 248.751,130.498 253.733,141.001 260.828 C 149.259 266.407,152.062 267.881,150.244 265.691 C 149.799 265.154,148.885 264.715,148.213 264.715 C 147.541 264.715,146.992 264.416,146.992 264.049 C 146.992 263.682,146.333 263.098,145.528 262.750 C 143.341 261.804,141.527 260.588,140.943 259.675 C 140.657 259.228,140.128 258.862,139.768 258.862 C 138.724 258.862,130.782 252.783,130.422 251.707 C 130.243 251.171,129.373 249.953,128.489 249.000 C 127.606 248.048,126.693 246.511,126.460 245.586 C 126.228 244.660,125.797 243.902,125.503 243.902 C 125.209 243.902,124.842 243.244,124.687 242.439 C 124.445 241.184,124.392 241.231,124.316 242.764 " stroke="none" fill="#b1d2e7" fill-rule="evenodd"></path></g></svg>