<svg id="svg" version="1.1" width="500" height="594" xmlns="http://www.w3.org/2000/svg" xmlns:xlink="http://www.w3.org/1999/xlink" style="display: block;"><g id="svgg"><path id="path0" d="M117.600 3.575 C 117.600 3.781,119.400 5.807,121.600 8.077 C 125.638 12.245,127.562 21.093,124.800 22.800 C 124.360 23.072,124.000 23.993,124.000 24.847 C 124.000 25.701,124.360 26.400,124.800 26.400 C 125.240 26.400,125.600 26.955,125.600 27.633 C 125.600 28.312,126.344 29.662,127.253 30.633 C 128.162 31.605,129.463 33.570,130.144 35.000 C 130.825 36.430,131.701 37.600,132.091 37.600 C 132.481 37.600,132.800 38.294,132.800 39.142 C 132.800 39.990,133.700 41.392,134.800 42.257 C 135.900 43.122,136.800 44.346,136.800 44.976 C 136.800 45.606,137.700 46.967,138.800 48.000 C 139.900 49.033,140.800 50.451,140.800 51.150 C 140.800 51.848,141.700 53.096,142.800 53.922 C 143.900 54.748,144.800 56.091,144.800 56.905 C 144.800 57.720,145.520 58.836,146.400 59.386 C 147.280 59.935,148.000 60.974,148.000 61.694 C 148.000 62.415,148.540 63.452,149.200 64.000 C 149.860 64.548,150.400 65.402,150.401 65.898 C 150.402 66.394,151.302 67.846,152.401 69.124 C 153.500 70.403,154.400 71.877,154.400 72.400 C 154.400 72.924,155.120 74.004,156.000 74.800 C 156.880 75.596,157.600 76.770,157.600 77.409 C 157.600 78.047,158.500 79.278,159.600 80.143 C 160.700 81.008,161.600 82.279,161.600 82.966 C 161.600 83.654,162.500 85.051,163.600 86.070 C 164.700 87.090,165.600 88.425,165.600 89.038 C 165.600 89.651,166.320 90.804,167.200 91.600 C 168.080 92.396,168.800 93.570,168.800 94.209 C 168.800 94.847,169.700 96.078,170.800 96.943 C 171.900 97.808,172.800 99.210,172.800 100.058 C 172.800 100.906,173.153 101.600,173.585 101.600 C 174.016 101.600,174.589 102.474,174.857 103.541 C 175.125 104.609,176.032 106.105,176.872 106.865 C 177.712 107.626,178.400 108.749,178.400 109.362 C 178.400 109.975,179.300 111.310,180.400 112.330 C 181.500 113.349,182.400 114.662,182.400 115.248 C 182.400 117.027,186.579 120.800,188.550 120.800 C 189.567 120.800,190.400 120.414,190.400 119.943 C 190.400 118.835,188.365 116.800,187.257 116.800 C 186.786 116.800,186.400 115.900,186.400 114.800 C 186.400 113.700,186.040 112.800,185.600 112.800 C 185.160 112.800,184.800 112.260,184.800 111.600 C 184.800 110.940,184.440 110.400,184.000 110.400 C 183.560 110.400,183.200 109.680,183.200 108.800 C 183.200 107.911,182.667 107.200,182.000 107.200 C 181.284 107.200,180.800 106.464,180.800 105.377 C 180.800 104.374,180.080 103.034,179.200 102.400 C 178.320 101.766,177.600 100.426,177.600 99.423 C 177.600 98.421,177.214 97.600,176.743 97.600 C 175.331 97.600,173.600 95.428,173.600 93.657 C 173.600 92.717,173.080 92.000,172.400 92.000 C 171.740 92.000,171.200 91.460,171.200 90.800 C 171.200 90.140,170.840 89.600,170.400 89.600 C 169.960 89.600,169.600 88.880,169.600 88.000 C 169.600 87.120,169.240 86.400,168.800 86.400 C 168.360 86.400,168.000 85.860,168.000 85.200 C 168.000 84.540,167.460 84.000,166.800 84.000 C 166.133 84.000,165.600 83.289,165.600 82.400 C 165.600 81.520,165.240 80.800,164.800 80.800 C 164.360 80.800,164.000 80.260,164.000 79.600 C 164.000 78.940,163.640 78.400,163.200 78.400 C 162.760 78.400,162.400 77.669,162.400 76.775 C 162.400 75.881,161.860 74.943,161.200 74.689 C 160.540 74.436,160.000 73.547,160.000 72.714 C 160.000 71.881,159.640 71.200,159.200 71.200 C 158.760 71.200,158.400 70.660,158.400 70.000 C 158.400 69.340,157.860 68.800,157.200 68.800 C 156.533 68.800,156.000 68.089,156.000 67.200 C 156.000 66.320,155.640 65.600,155.200 65.600 C 154.760 65.600,154.400 65.060,154.400 64.400 C 154.400 63.740,154.040 63.200,153.600 63.200 C 153.160 63.200,152.800 62.480,152.800 61.600 C 152.800 60.711,152.267 60.000,151.600 60.000 C 150.940 60.000,150.400 59.460,150.400 58.800 C 150.400 58.140,150.040 57.600,149.600 57.600 C 149.160 57.600,148.800 56.854,148.800 55.943 C 148.800 54.172,147.069 52.000,145.657 52.000 C 145.186 52.000,144.800 51.179,144.800 50.177 C 144.800 49.174,144.080 47.834,143.200 47.200 C 142.320 46.566,141.600 45.457,141.600 44.735 C 141.600 44.014,140.700 42.748,139.600 41.922 C 138.498 41.095,137.600 39.607,137.600 38.610 C 137.600 37.534,137.113 36.800,136.400 36.800 C 135.684 36.800,135.200 36.064,135.200 34.977 C 135.200 33.974,134.480 32.634,133.600 32.000 C 132.720 31.366,132.000 30.026,132.000 29.023 C 132.000 27.936,131.516 27.200,130.800 27.200 C 129.811 27.200,129.600 25.753,129.600 18.977 C 129.600 11.671,129.421 10.625,128.000 9.600 C 127.120 8.966,126.400 7.626,126.400 6.623 C 126.400 5.212,125.948 4.800,124.400 4.800 C 123.300 4.800,122.400 4.440,122.400 4.000 C 122.400 3.560,121.320 3.200,120.000 3.200 C 118.680 3.200,117.600 3.369,117.600 3.575 M96.000 26.836 C 96.000 28.853,99.152 32.800,100.764 32.800 C 101.224 32.800,101.600 33.340,101.600 34.000 C 101.600 34.747,102.356 35.200,103.600 35.200 C 104.700 35.200,105.600 35.560,105.600 36.000 C 105.600 36.440,107.220 36.800,109.200 36.800 C 112.308 36.800,112.800 37.026,112.800 38.457 C 112.800 40.228,114.531 42.400,115.943 42.400 C 116.414 42.400,116.800 43.221,116.800 44.223 C 116.800 45.226,117.520 46.566,118.400 47.200 C 119.280 47.834,120.000 49.174,120.000 50.177 C 120.000 51.264,120.484 52.000,121.200 52.000 C 121.880 52.000,122.400 52.717,122.400 53.657 C 122.400 55.428,124.131 57.600,125.543 57.600 C 126.014 57.600,126.400 58.140,126.400 58.800 C 126.400 59.460,126.760 60.000,127.200 60.000 C 127.640 60.000,128.000 60.720,128.000 61.600 C 128.000 62.480,128.360 63.200,128.800 63.200 C 129.240 63.200,129.600 64.100,129.600 65.200 C 129.600 66.300,129.986 67.200,130.457 67.200 C 131.753 67.200,133.600 69.316,133.600 70.800 C 133.600 72.284,135.447 74.400,136.743 74.400 C 137.214 74.400,137.600 75.300,137.600 76.400 C 137.600 77.500,137.960 78.400,138.400 78.400 C 138.840 78.400,139.200 78.940,139.200 79.600 C 139.200 80.260,139.740 80.800,140.400 80.800 C 141.067 80.800,141.600 81.511,141.600 82.400 C 141.600 83.280,141.960 84.000,142.400 84.000 C 142.840 84.000,143.200 84.746,143.200 85.657 C 143.200 87.428,144.931 89.600,146.343 89.600 C 146.814 89.600,147.200 90.500,147.200 91.600 C 147.200 92.700,147.560 93.600,148.000 93.600 C 148.440 93.600,148.800 94.140,148.800 94.800 C 148.800 95.460,149.160 96.000,149.600 96.000 C 150.040 96.000,150.400 96.720,150.400 97.600 C 150.400 98.489,150.933 99.200,151.600 99.200 C 152.260 99.200,152.800 99.740,152.800 100.400 C 152.800 101.060,153.160 101.600,153.600 101.600 C 154.040 101.600,154.400 102.320,154.400 103.200 C 154.400 104.089,154.933 104.800,155.600 104.800 C 156.260 104.800,156.800 105.340,156.800 106.000 C 156.800 106.660,157.160 107.200,157.600 107.200 C 158.040 107.200,158.400 107.920,158.400 108.800 C 158.400 109.680,158.760 110.400,159.200 110.400 C 159.640 110.400,160.000 111.300,160.000 112.400 C 160.000 113.644,160.453 114.400,161.200 114.400 C 161.860 114.400,162.400 114.861,162.400 115.423 C 162.400 115.986,163.120 116.966,164.000 117.600 C 164.880 118.234,165.600 119.574,165.600 120.577 C 165.600 121.664,166.084 122.400,166.800 122.400 C 167.460 122.400,168.000 123.081,168.000 123.914 C 168.000 125.302,169.442 126.400,171.265 126.400 C 171.669 126.400,172.000 125.680,172.000 124.800 C 172.000 123.920,171.640 123.200,171.200 123.200 C 170.760 123.200,170.400 122.611,170.400 121.892 C 170.400 121.172,169.500 119.749,168.400 118.730 C 167.300 117.710,166.400 116.382,166.400 115.778 C 166.400 115.173,165.500 113.833,164.400 112.800 C 163.300 111.767,162.400 110.343,162.400 109.637 C 162.400 108.931,161.680 107.834,160.800 107.200 C 159.920 106.566,159.200 105.432,159.200 104.681 C 159.200 103.931,158.300 102.608,157.200 101.743 C 156.100 100.878,155.200 99.618,155.200 98.943 C 155.200 98.268,154.300 97.008,153.200 96.143 C 152.100 95.278,151.200 93.897,151.200 93.075 C 151.200 92.253,150.300 90.904,149.200 90.078 C 148.100 89.252,147.200 88.120,147.200 87.564 C 147.200 85.762,143.735 80.000,142.652 80.000 C 142.073 80.000,141.600 79.179,141.600 78.177 C 141.600 77.174,140.880 75.834,140.000 75.200 C 139.120 74.566,138.400 73.432,138.400 72.681 C 138.400 71.931,137.500 70.608,136.400 69.743 C 135.300 68.878,134.400 67.553,134.400 66.800 C 134.400 66.047,133.500 64.722,132.400 63.857 C 131.300 62.992,130.400 61.675,130.400 60.932 C 130.400 60.188,129.500 58.904,128.400 58.078 C 127.300 57.252,126.400 55.928,126.400 55.135 C 126.400 54.343,126.040 53.472,125.600 53.200 C 125.160 52.928,124.800 52.092,124.800 51.343 C 124.800 50.593,123.900 49.304,122.800 48.478 C 121.700 47.652,120.800 46.392,120.800 45.678 C 120.800 44.964,119.900 43.704,118.800 42.878 C 117.700 42.052,116.800 40.762,116.800 40.012 C 116.800 39.262,116.080 37.996,115.200 37.200 C 114.320 36.404,113.600 35.088,113.600 34.276 C 113.600 33.058,112.965 32.800,109.975 32.800 C 107.491 32.800,106.205 32.422,105.889 31.600 C 105.636 30.940,104.818 30.400,104.071 30.400 C 103.325 30.400,101.493 29.140,100.000 27.600 C 96.769 24.266,96.000 24.120,96.000 26.836 M264.000 46.000 C 264.000 46.676,264.715 47.200,265.638 47.200 C 267.508 47.200,271.137 50.946,271.175 52.914 C 271.189 53.637,271.740 54.436,272.400 54.689 C 273.248 55.015,273.600 56.337,273.600 59.191 C 273.600 67.074,265.762 75.492,257.809 76.152 C 255.590 76.336,254.737 76.803,254.518 77.954 C 254.356 78.809,253.363 80.185,252.312 81.012 C 251.260 81.839,250.400 83.210,250.400 84.058 C 250.400 84.906,250.081 85.600,249.691 85.600 C 249.301 85.600,248.408 86.810,247.706 88.290 C 247.004 89.769,245.890 91.427,245.231 91.974 C 243.863 93.109,241.600 97.370,241.600 98.811 C 241.600 99.342,240.700 100.452,239.600 101.278 C 238.500 102.104,237.600 103.352,237.600 104.050 C 237.600 104.749,236.700 106.167,235.600 107.200 C 234.500 108.233,233.600 109.518,233.600 110.055 C 233.600 110.593,232.706 111.880,231.614 112.916 C 230.521 113.952,229.621 115.430,229.614 116.200 C 229.606 116.970,229.281 117.600,228.891 117.600 C 228.501 117.600,227.592 118.845,226.870 120.366 C 226.148 121.887,225.207 123.349,224.779 123.613 C 223.407 124.461,223.946 126.400,225.553 126.400 C 226.407 126.400,227.328 126.760,227.600 127.200 C 227.872 127.640,228.587 128.000,229.190 128.000 C 232.000 128.000,243.200 141.208,243.200 144.523 C 243.200 145.115,243.537 145.600,243.949 145.600 C 244.361 145.600,244.811 146.770,244.949 148.200 C 245.349 152.341,249.100 152.008,249.448 147.800 C 249.638 145.509,249.402 144.800,248.448 144.800 C 247.650 144.800,247.200 144.079,247.200 142.800 C 247.200 141.700,246.840 140.800,246.400 140.800 C 245.960 140.800,245.600 140.234,245.600 139.543 C 245.600 137.686,235.557 128.000,233.632 128.000 C 232.300 128.000,232.000 127.485,232.000 125.200 C 232.000 123.244,232.362 122.400,233.200 122.400 C 233.916 122.400,234.400 121.664,234.400 120.577 C 234.400 119.574,235.120 118.234,236.000 117.600 C 236.880 116.966,237.600 115.626,237.600 114.623 C 237.600 113.536,238.084 112.800,238.800 112.800 C 239.460 112.800,240.000 112.260,240.000 111.600 C 240.000 110.940,240.360 110.400,240.800 110.400 C 241.240 110.400,241.600 109.680,241.600 108.800 C 241.600 107.911,242.133 107.200,242.800 107.200 C 243.460 107.200,244.000 106.660,244.000 106.000 C 244.000 105.340,244.360 104.800,244.800 104.800 C 245.240 104.800,245.600 104.080,245.600 103.200 C 245.600 102.320,245.960 101.600,246.400 101.600 C 246.840 101.600,247.200 101.060,247.200 100.400 C 247.200 99.740,247.740 99.200,248.400 99.200 C 249.067 99.200,249.600 98.489,249.600 97.600 C 249.600 96.720,249.960 96.000,250.400 96.000 C 250.840 96.000,251.200 95.460,251.200 94.800 C 251.200 94.140,251.560 93.600,252.000 93.600 C 252.440 93.600,252.800 92.700,252.800 91.600 C 252.800 90.500,253.186 89.600,253.657 89.600 C 255.069 89.600,256.800 87.428,256.800 85.657 C 256.800 84.746,257.160 84.000,257.600 84.000 C 258.040 84.000,258.400 83.280,258.400 82.400 C 258.400 81.013,258.933 80.800,262.400 80.800 C 265.422 80.800,266.400 80.507,266.400 79.600 C 266.400 78.853,267.156 78.400,268.400 78.400 C 269.500 78.400,270.400 78.040,270.400 77.600 C 270.400 77.160,271.120 76.800,272.000 76.800 C 273.173 76.800,273.600 76.267,273.600 74.800 C 273.600 73.700,273.986 72.800,274.457 72.800 C 276.910 72.800,277.600 70.441,277.600 62.057 C 277.600 56.952,277.283 53.600,276.800 53.600 C 276.360 53.600,276.000 52.880,276.000 52.000 C 276.000 51.111,275.467 50.400,274.800 50.400 C 274.140 50.400,273.600 50.014,273.600 49.543 C 273.600 48.131,271.428 46.400,269.657 46.400 C 268.746 46.400,268.000 46.040,268.000 45.600 C 268.000 45.160,267.100 44.800,266.000 44.800 C 264.756 44.800,264.000 45.253,264.000 46.000 M241.600 68.000 C 241.600 68.889,242.133 69.600,242.800 69.600 C 243.467 69.600,244.000 68.889,244.000 68.000 C 244.000 67.111,243.467 66.400,242.800 66.400 C 242.133 66.400,241.600 67.111,241.600 68.000 M236.000 78.000 C 236.000 78.660,236.540 79.200,237.200 79.200 C 237.860 79.200,238.400 78.660,238.400 78.000 C 238.400 77.340,237.860 76.800,237.200 76.800 C 236.540 76.800,236.000 77.340,236.000 78.000 M232.000 82.400 C 232.000 83.289,232.533 84.000,233.200 84.000 C 233.867 84.000,234.400 83.289,234.400 82.400 C 234.400 81.511,233.867 80.800,233.200 80.800 C 232.533 80.800,232.000 81.511,232.000 82.400 M215.200 109.933 C 215.200 110.630,215.770 111.200,216.467 111.200 C 217.879 111.200,217.633 109.478,216.150 108.983 C 215.628 108.809,215.200 109.237,215.200 109.933 M211.200 115.600 C 211.200 116.260,211.740 116.800,212.400 116.800 C 213.060 116.800,213.600 116.260,213.600 115.600 C 213.600 114.940,213.060 114.400,212.400 114.400 C 211.740 114.400,211.200 114.940,211.200 115.600 M192.800 119.667 C 192.800 120.363,193.228 120.791,193.750 120.617 C 195.233 120.122,195.479 118.400,194.067 118.400 C 193.370 118.400,192.800 118.970,192.800 119.667 M203.200 119.600 C 203.200 120.260,203.740 120.800,204.400 120.800 C 205.060 120.800,205.600 120.260,205.600 119.600 C 205.600 118.940,205.060 118.400,204.400 118.400 C 203.740 118.400,203.200 118.940,203.200 119.600 M152.800 139.200 C 152.800 140.089,152.267 140.800,151.600 140.800 C 150.853 140.800,150.400 141.556,150.400 142.800 C 150.400 144.044,150.853 144.800,151.600 144.800 C 152.332 144.800,152.800 144.054,152.800 142.886 C 152.800 141.833,153.340 140.764,154.000 140.511 C 154.660 140.257,155.200 139.499,155.200 138.825 C 155.200 138.151,154.660 137.600,154.000 137.600 C 153.333 137.600,152.800 138.311,152.800 139.200 M315.200 151.600 C 315.200 152.347,315.956 152.800,317.200 152.800 C 318.444 152.800,319.200 152.347,319.200 151.600 C 319.200 150.853,318.444 150.400,317.200 150.400 C 315.956 150.400,315.200 150.853,315.200 151.600 M71.200 153.600 C 71.200 154.040,71.740 154.400,72.400 154.400 C 73.060 154.400,73.600 154.040,73.600 153.600 C 73.600 153.160,73.060 152.800,72.400 152.800 C 71.740 152.800,71.200 153.160,71.200 153.600 M322.400 153.553 C 322.400 154.765,323.889 155.343,325.607 154.798 C 328.014 154.034,327.516 152.800,324.800 152.800 C 323.480 152.800,322.400 153.139,322.400 153.553 M330.400 155.600 C 330.400 156.260,331.099 156.800,331.953 156.800 C 332.807 156.800,333.728 157.160,334.000 157.600 C 334.795 158.887,338.400 158.559,338.400 157.200 C 338.400 156.453,337.644 156.000,336.400 156.000 C 335.300 156.000,334.400 155.640,334.400 155.200 C 334.400 154.760,333.500 154.400,332.400 154.400 C 331.156 154.400,330.400 154.853,330.400 155.600 M340.000 159.600 C 340.000 160.260,340.664 160.800,341.476 160.800 C 342.288 160.800,343.604 161.520,344.400 162.400 C 345.196 163.280,346.523 164.000,347.349 164.000 C 348.175 164.000,349.057 164.540,349.311 165.200 C 349.564 165.860,350.316 166.400,350.982 166.400 C 351.647 166.400,353.744 168.020,355.641 170.000 C 357.538 171.980,359.555 173.600,360.122 173.600 C 361.415 173.600,370.400 182.417,370.400 183.686 C 370.400 184.200,372.020 186.264,374.000 188.273 C 375.980 190.281,377.600 192.431,377.600 193.050 C 377.600 193.669,378.500 194.852,379.600 195.678 C 380.700 196.504,381.600 197.793,381.600 198.543 C 381.600 199.292,381.960 200.128,382.400 200.400 C 382.840 200.672,383.200 201.555,383.200 202.362 C 383.200 203.169,383.740 204.036,384.400 204.289 C 385.060 204.543,385.600 205.460,385.600 206.328 C 385.600 207.196,385.960 208.128,386.400 208.400 C 386.840 208.672,387.200 209.953,387.200 211.247 C 387.200 212.541,387.560 213.600,388.000 213.600 C 388.440 213.600,388.800 214.636,388.800 215.902 C 388.800 217.168,389.340 218.652,390.000 219.200 C 390.683 219.767,391.200 221.511,391.200 223.251 C 391.200 224.931,391.560 226.528,392.000 226.800 C 393.104 227.482,393.104 370.918,392.000 371.600 C 391.560 371.872,391.189 373.423,391.175 375.047 C 391.161 376.671,390.621 378.699,389.975 379.553 C 389.329 380.407,388.800 381.937,388.800 382.953 C 388.800 383.969,388.440 384.800,388.000 384.800 C 387.560 384.800,387.200 385.499,387.200 386.353 C 387.200 387.207,386.840 388.128,386.400 388.400 C 385.960 388.672,385.600 389.747,385.600 390.790 C 385.600 391.833,385.060 393.226,384.400 393.886 C 383.740 394.546,383.200 395.596,383.200 396.219 C 383.200 396.842,382.480 398.004,381.600 398.800 C 380.720 399.596,380.000 400.646,380.000 401.132 C 380.000 401.618,379.100 402.987,378.000 404.173 C 376.900 405.360,376.000 406.726,376.000 407.210 C 376.000 407.694,374.200 409.919,372.000 412.154 C 369.800 414.389,368.000 416.599,368.000 417.065 C 368.000 418.238,363.912 422.400,362.759 422.400 C 362.241 422.400,359.989 424.200,357.754 426.400 C 355.519 428.600,353.186 430.400,352.569 430.400 C 351.952 430.400,350.794 431.123,349.995 432.006 C 348.376 433.794,344.335 436.000,342.677 436.000 C 342.085 436.000,341.600 436.360,341.600 436.800 C 341.600 437.240,340.901 437.600,340.047 437.600 C 339.193 437.600,338.286 437.937,338.031 438.349 C 337.300 439.533,332.726 441.600,330.837 441.600 C 329.893 441.600,328.778 441.932,328.360 442.338 C 327.942 442.745,326.520 443.195,325.200 443.338 L 322.800 443.600 322.575 453.000 C 322.446 458.373,322.017 462.400,321.575 462.400 C 321.149 462.400,320.800 463.064,320.800 463.876 C 320.800 466.249,318.181 468.000,314.631 468.000 C 311.186 468.000,304.800 462.931,304.800 460.196 C 304.800 459.527,303.540 457.904,302.000 456.588 C 300.460 455.273,299.200 453.699,299.200 453.091 C 299.200 452.483,298.240 450.909,297.068 449.593 L 294.936 447.200 198.241 447.200 L 101.546 447.200 99.173 449.628 C 97.868 450.963,96.800 452.512,96.800 453.071 C 96.800 453.629,95.540 455.307,94.000 456.800 C 92.460 458.293,91.197 460.073,91.193 460.757 C 91.185 462.049,87.684 465.164,84.219 466.962 C 81.193 468.532,78.565 468.217,76.173 466.000 C 73.381 463.410,72.800 463.479,72.800 466.400 C 72.800 468.000,73.200 468.800,74.000 468.800 C 74.667 468.800,75.200 469.511,75.200 470.400 C 75.200 473.091,88.885 472.788,91.636 470.036 C 92.716 468.956,93.600 467.696,93.600 467.236 C 93.600 466.776,94.140 466.400,94.800 466.400 C 95.467 466.400,96.000 465.689,96.000 464.800 C 96.000 463.920,96.360 463.200,96.800 463.200 C 97.240 463.200,97.600 462.814,97.600 462.343 C 97.600 461.235,99.635 459.200,100.743 459.200 C 101.214 459.200,101.600 458.454,101.600 457.543 C 101.600 455.772,103.331 453.600,104.743 453.600 C 105.214 453.600,105.600 453.060,105.600 452.400 C 105.600 451.340,116.667 451.200,200.400 451.200 C 276.862 451.200,295.200 451.398,295.200 452.223 C 295.200 452.786,295.920 453.766,296.800 454.400 C 297.680 455.034,298.400 456.374,298.400 457.377 C 298.400 458.379,298.786 459.200,299.257 459.200 C 300.365 459.200,302.400 461.235,302.400 462.343 C 302.400 462.814,302.760 463.200,303.200 463.200 C 303.640 463.200,304.000 463.920,304.000 464.800 C 304.000 465.689,304.533 466.400,305.200 466.400 C 305.860 466.400,306.400 466.940,306.400 467.600 C 306.400 468.267,307.111 468.800,308.000 468.800 C 309.067 468.800,309.600 469.333,309.600 470.400 C 309.600 471.888,310.133 472.000,317.200 472.000 C 324.267 472.000,324.800 471.888,324.800 470.400 C 324.800 469.511,325.333 468.800,326.000 468.800 C 327.005 468.800,327.200 467.111,327.200 458.400 L 327.200 448.000 330.800 448.000 C 333.467 448.000,334.400 447.689,334.400 446.800 C 334.400 446.053,335.156 445.600,336.400 445.600 C 337.500 445.600,338.400 445.240,338.400 444.800 C 338.400 444.360,339.300 444.000,340.400 444.000 C 341.500 444.000,342.400 443.640,342.400 443.200 C 342.400 442.760,343.120 442.400,344.000 442.400 C 344.889 442.400,345.600 441.867,345.600 441.200 C 345.600 440.453,346.356 440.000,347.600 440.000 C 348.700 440.000,349.600 439.640,349.600 439.200 C 349.600 438.760,350.500 438.400,351.600 438.400 C 352.700 438.400,353.600 438.014,353.600 437.543 C 353.600 436.247,355.716 434.400,357.200 434.400 C 358.684 434.400,360.800 432.553,360.800 431.257 C 360.800 430.786,361.340 430.400,362.000 430.400 C 362.660 430.400,363.200 430.040,363.200 429.600 C 363.200 429.160,363.946 428.800,364.857 428.800 C 366.426 428.800,368.800 427.114,368.800 426.000 C 368.800 425.332,370.932 423.200,371.600 423.200 C 372.714 423.200,374.400 420.826,374.400 419.257 C 374.400 418.346,374.760 417.600,375.200 417.600 C 375.640 417.600,376.000 417.060,376.000 416.400 C 376.000 415.740,376.376 415.200,376.836 415.200 C 378.294 415.200,381.600 411.339,381.600 409.636 C 381.600 408.736,381.986 408.000,382.457 408.000 C 383.869 408.000,385.600 405.828,385.600 404.057 C 385.600 403.117,386.120 402.400,386.800 402.400 C 387.547 402.400,388.000 401.644,388.000 400.400 C 388.000 399.300,388.360 398.400,388.800 398.400 C 389.240 398.400,389.600 397.500,389.600 396.400 C 389.600 395.300,389.960 394.400,390.400 394.400 C 390.840 394.400,391.200 393.140,391.200 391.600 C 391.200 389.644,391.562 388.800,392.400 388.800 C 393.238 388.800,393.600 387.956,393.600 386.000 C 393.600 384.460,393.960 383.200,394.400 383.200 C 394.840 383.200,395.200 381.940,395.200 380.400 C 395.200 378.860,395.560 377.600,396.000 377.600 C 396.528 377.600,396.800 351.467,396.800 300.800 C 396.800 250.133,396.528 224.000,396.000 224.000 C 395.560 224.000,395.200 222.380,395.200 220.400 C 395.200 218.420,394.840 216.800,394.400 216.800 C 393.960 216.800,393.600 215.900,393.600 214.800 C 393.600 213.556,393.147 212.800,392.400 212.800 C 391.562 212.800,391.200 211.956,391.200 210.000 C 391.200 208.460,390.840 207.200,390.400 207.200 C 389.960 207.200,389.600 206.300,389.600 205.200 C 389.600 204.100,389.240 203.200,388.800 203.200 C 388.360 203.200,388.000 202.480,388.000 201.600 C 388.000 200.711,387.467 200.000,386.800 200.000 C 386.120 200.000,385.600 199.283,385.600 198.343 C 385.600 196.572,383.869 194.400,382.457 194.400 C 381.986 194.400,381.600 193.500,381.600 192.400 C 381.600 191.300,381.240 190.400,380.800 190.400 C 380.360 190.400,380.000 190.014,380.000 189.543 C 380.000 188.435,377.965 186.400,376.857 186.400 C 376.386 186.400,376.000 185.664,376.000 184.764 C 376.000 183.061,372.694 179.200,371.236 179.200 C 370.776 179.200,370.400 178.824,370.400 178.364 C 370.400 177.278,366.722 173.600,365.636 173.600 C 365.176 173.600,364.800 173.060,364.800 172.400 C 364.800 171.720,364.083 171.200,363.143 171.200 C 361.574 171.200,359.200 169.514,359.200 168.400 C 359.200 167.286,356.826 165.600,355.257 165.600 C 354.346 165.600,353.600 165.240,353.600 164.800 C 353.600 164.360,352.700 164.000,351.600 164.000 C 350.500 164.000,349.600 163.614,349.600 163.143 C 349.600 161.731,347.428 160.000,345.657 160.000 C 344.746 160.000,344.000 159.640,344.000 159.200 C 344.000 158.760,343.100 158.400,342.000 158.400 C 340.756 158.400,340.000 158.853,340.000 159.600 M29.600 176.400 C 29.600 177.060,30.140 177.600,30.800 177.600 C 31.460 177.600,32.000 177.060,32.000 176.400 C 32.000 175.740,31.460 175.200,30.800 175.200 C 30.140 175.200,29.600 175.740,29.600 176.400 M62.800 209.600 C 62.528 210.040,61.607 210.400,60.753 210.400 C 59.899 210.400,59.200 210.740,59.200 211.156 C 59.200 211.572,58.236 212.382,57.057 212.956 C 54.287 214.305,52.132 218.048,52.058 221.640 C 52.026 223.202,51.633 224.847,51.183 225.297 C 50.073 226.407,50.098 372.018,51.208 373.128 C 51.644 373.564,52.000 375.198,52.001 376.760 C 52.002 379.772,58.723 388.000,61.182 388.000 C 62.650 388.000,63.760 386.187,62.542 385.781 C 62.024 385.608,61.600 385.111,61.600 384.676 C 61.600 383.796,59.601 381.600,58.800 381.600 C 56.007 381.600,56.000 381.395,56.000 301.200 C 56.000 219.602,55.953 220.800,59.143 220.800 C 59.614 220.800,60.000 220.424,60.000 219.964 C 60.000 218.168,63.964 215.200,66.364 215.200 C 67.996 215.200,68.800 214.804,68.800 214.000 C 68.800 212.939,81.156 212.800,175.200 212.800 C 269.244 212.800,281.600 212.939,281.600 214.000 C 281.600 214.823,282.425 215.200,284.223 215.200 C 285.929 215.200,287.250 215.760,288.000 216.800 C 288.634 217.680,289.614 218.400,290.177 218.400 C 290.739 218.400,291.200 218.940,291.200 219.600 C 291.200 220.260,291.560 220.800,292.000 220.800 C 292.440 220.800,292.800 221.520,292.800 222.400 C 292.800 223.289,293.333 224.000,294.000 224.000 C 294.747 224.000,295.200 223.244,295.200 222.000 C 295.200 220.900,294.840 220.000,294.400 220.000 C 293.960 220.000,293.600 219.355,293.600 218.567 C 293.600 216.778,287.209 210.400,285.417 210.400 C 284.690 210.400,283.872 210.040,283.600 209.600 C 282.916 208.493,63.484 208.493,62.800 209.600 M6.400 212.400 C 6.400 213.060,6.940 213.600,7.600 213.600 C 8.260 213.600,8.800 213.060,8.800 212.400 C 8.800 211.740,8.260 211.200,7.600 211.200 C 6.940 211.200,6.400 211.740,6.400 212.400 M330.400 230.400 C 330.400 230.840,329.701 231.200,328.847 231.200 C 327.993 231.200,327.078 231.550,326.813 231.979 C 326.549 232.407,325.087 233.348,323.566 234.070 C 322.000 234.813,320.800 235.976,320.800 236.752 C 320.800 237.505,319.900 238.967,318.800 240.000 C 316.921 241.765,316.800 242.372,316.800 250.000 C 316.800 257.628,316.921 258.235,318.800 260.000 C 319.900 261.033,320.800 262.382,320.800 262.997 C 320.800 264.609,322.830 266.400,324.657 266.400 C 325.522 266.400,326.436 266.940,326.689 267.600 C 326.943 268.260,327.881 268.800,328.775 268.800 C 329.669 268.800,330.400 269.160,330.400 269.600 C 330.400 270.040,331.300 270.400,332.400 270.400 C 333.644 270.400,334.400 269.947,334.400 269.200 C 334.400 268.533,333.689 268.000,332.800 268.000 C 331.920 268.000,331.200 267.640,331.200 267.200 C 331.200 266.760,330.300 266.400,329.200 266.400 C 327.956 266.400,327.200 265.947,327.200 265.200 C 327.200 264.540,326.660 264.000,326.000 264.000 C 325.284 264.000,324.800 263.264,324.800 262.177 C 324.800 261.174,324.080 259.834,323.200 259.200 C 321.452 257.940,320.736 247.200,322.400 247.200 C 322.840 247.200,323.200 246.454,323.200 245.543 C 323.200 243.772,324.931 241.600,326.343 241.600 C 326.814 241.600,327.200 241.214,327.200 240.743 C 327.200 239.635,329.235 237.600,330.343 237.600 C 330.814 237.600,331.200 237.240,331.200 236.800 C 331.200 236.360,332.460 236.000,334.000 236.000 C 335.956 236.000,336.800 235.638,336.800 234.800 C 336.800 233.962,337.644 233.600,339.600 233.600 C 341.556 233.600,342.400 233.962,342.400 234.800 C 342.400 235.467,343.111 236.000,344.000 236.000 C 344.880 236.000,345.600 236.360,345.600 236.800 C 345.600 237.240,346.500 237.600,347.600 237.600 C 348.700 237.600,349.600 237.960,349.600 238.400 C 349.600 238.840,350.140 239.200,350.800 239.200 C 351.460 239.200,352.000 239.740,352.000 240.400 C 352.000 241.060,352.360 241.600,352.800 241.600 C 353.240 241.600,353.600 242.320,353.600 243.200 C 353.600 244.080,353.960 244.800,354.400 244.800 C 354.840 244.800,355.200 245.700,355.200 246.800 C 355.200 248.044,355.653 248.800,356.400 248.800 C 357.147 248.800,357.600 248.044,357.600 246.800 C 357.600 245.700,357.240 244.800,356.800 244.800 C 356.360 244.800,356.000 243.900,356.000 242.800 C 356.000 241.700,355.640 240.800,355.200 240.800 C 354.760 240.800,354.400 240.190,354.400 239.444 C 354.400 237.600,350.448 233.600,348.625 233.600 C 347.814 233.600,346.943 233.060,346.689 232.400 C 346.436 231.740,345.569 231.200,344.762 231.200 C 343.955 231.200,343.072 230.840,342.800 230.400 C 342.528 229.960,339.627 229.600,336.353 229.600 C 332.918 229.600,330.400 229.938,330.400 230.400 M345.600 267.200 C 345.600 267.640,346.320 268.000,347.200 268.000 C 348.080 268.000,348.800 267.640,348.800 267.200 C 348.800 266.760,348.080 266.400,347.200 266.400 C 346.320 266.400,345.600 266.760,345.600 267.200 M330.753 315.575 C 329.899 316.221,328.706 316.761,328.102 316.775 C 327.498 316.789,324.708 319.200,321.902 322.133 L 316.800 327.466 316.800 335.647 C 316.800 342.182,317.042 343.922,318.000 344.289 C 318.660 344.543,319.200 345.371,319.200 346.131 C 319.200 347.983,323.135 352.000,324.950 352.000 C 325.747 352.000,326.400 352.360,326.400 352.800 C 326.400 353.240,327.300 353.600,328.400 353.600 C 329.500 353.600,330.400 353.960,330.400 354.400 C 330.400 354.840,331.300 355.200,332.400 355.200 C 333.644 355.200,334.400 354.747,334.400 354.000 C 334.400 353.333,333.689 352.800,332.800 352.800 C 331.920 352.800,331.200 352.440,331.200 352.000 C 331.200 351.560,330.300 351.200,329.200 351.200 C 328.100 351.200,327.200 350.840,327.200 350.400 C 327.200 349.960,326.660 349.600,326.000 349.600 C 325.340 349.600,324.800 349.060,324.800 348.400 C 324.800 347.740,324.440 347.200,324.000 347.200 C 323.560 347.200,323.200 346.480,323.200 345.600 C 323.200 344.720,322.840 344.000,322.400 344.000 C 321.938 344.000,321.600 341.467,321.600 338.000 C 321.600 334.533,321.938 332.000,322.400 332.000 C 322.840 332.000,323.200 331.280,323.200 330.400 C 323.200 329.520,323.560 328.800,324.000 328.800 C 324.440 328.800,324.800 328.260,324.800 327.600 C 324.800 326.940,325.186 326.400,325.657 326.400 C 326.765 326.400,328.800 324.365,328.800 323.257 C 328.800 322.786,329.340 322.400,330.000 322.400 C 330.660 322.400,331.200 322.040,331.200 321.600 C 331.200 321.160,332.460 320.800,334.000 320.800 C 335.540 320.800,336.800 320.440,336.800 320.000 C 336.800 319.560,337.520 319.200,338.400 319.200 C 339.280 319.200,340.000 319.560,340.000 320.000 C 340.000 320.440,341.260 320.800,342.800 320.800 C 344.340 320.800,345.600 321.160,345.600 321.600 C 345.600 322.040,346.500 322.400,347.600 322.400 C 348.844 322.400,349.600 322.853,349.600 323.600 C 349.600 324.260,349.986 324.800,350.457 324.800 C 351.869 324.800,353.600 326.972,353.600 328.743 C 353.600 329.683,354.120 330.400,354.800 330.400 C 356.159 330.400,356.487 326.795,355.200 326.000 C 354.760 325.728,354.400 325.015,354.400 324.414 C 354.400 322.998,349.802 318.400,348.386 318.400 C 347.785 318.400,347.072 318.040,346.800 317.600 C 346.528 317.160,345.645 316.800,344.838 316.800 C 344.031 316.800,343.164 316.260,342.911 315.600 C 342.277 313.948,332.929 313.929,330.753 315.575 M355.200 334.000 C 355.200 335.244,355.653 336.000,356.400 336.000 C 357.147 336.000,357.600 335.244,357.600 334.000 C 357.600 332.756,357.147 332.000,356.400 332.000 C 355.653 332.000,355.200 332.756,355.200 334.000 M353.600 343.533 C 353.600 344.878,354.039 345.600,354.856 345.600 C 355.690 345.600,356.025 345.016,355.856 343.863 C 355.479 341.301,353.600 341.027,353.600 343.533 M348.000 350.800 C 348.000 351.460,348.540 352.000,349.200 352.000 C 349.860 352.000,350.400 351.460,350.400 350.800 C 350.400 350.140,349.860 349.600,349.200 349.600 C 348.540 349.600,348.000 350.140,348.000 350.800 M3.200 375.600 C 3.200 377.834,4.367 378.282,5.114 376.335 C 5.883 374.333,5.691 373.600,4.400 373.600 C 3.653 373.600,3.200 374.356,3.200 375.600 M4.800 381.200 C 4.800 382.444,5.253 383.200,6.000 383.200 C 6.747 383.200,7.200 382.444,7.200 381.200 C 7.200 379.956,6.747 379.200,6.000 379.200 C 5.253 379.200,4.800 379.956,4.800 381.200 M6.400 388.000 C 6.400 390.311,6.733 391.200,7.600 391.200 C 8.267 391.200,8.800 391.911,8.800 392.800 C 8.800 393.680,9.160 394.400,9.600 394.400 C 10.040 394.400,10.400 395.135,10.400 396.033 C 10.400 398.502,13.454 401.531,14.400 400.001 C 14.893 399.202,14.753 398.614,13.964 398.172 C 13.324 397.814,12.800 396.818,12.800 395.960 C 12.800 395.102,12.440 394.400,12.000 394.400 C 11.560 394.400,11.200 393.724,11.200 392.898 C 11.200 392.072,10.660 390.948,10.000 390.400 C 9.340 389.852,8.800 388.368,8.800 387.102 C 8.800 385.589,8.389 384.800,7.600 384.800 C 6.733 384.800,6.400 385.689,6.400 388.000 M64.800 388.400 C 64.800 389.147,65.556 389.600,66.800 389.600 C 68.044 389.600,68.800 389.147,68.800 388.400 C 68.800 387.653,68.044 387.200,66.800 387.200 C 65.556 387.200,64.800 387.653,64.800 388.400 M14.400 403.657 C 14.400 405.767,16.016 408.000,17.543 408.000 C 18.014 408.000,18.400 408.736,18.400 409.636 C 18.400 411.339,21.706 415.200,23.164 415.200 C 23.624 415.200,24.000 415.740,24.000 416.400 C 24.000 417.060,24.360 417.600,24.800 417.600 C 25.240 417.600,25.600 418.346,25.600 419.257 C 25.600 420.826,27.286 423.200,28.400 423.200 C 29.068 423.200,31.200 425.332,31.200 426.000 C 31.200 427.114,33.574 428.800,35.143 428.800 C 36.054 428.800,36.800 429.160,36.800 429.600 C 36.800 430.040,37.340 430.400,38.000 430.400 C 38.660 430.400,39.200 430.786,39.200 431.257 C 39.200 432.553,41.316 434.400,42.800 434.400 C 44.284 434.400,46.400 436.247,46.400 437.543 C 46.400 438.014,47.300 438.400,48.400 438.400 C 49.500 438.400,50.400 438.760,50.400 439.200 C 50.400 439.640,51.300 440.000,52.400 440.000 C 53.644 440.000,54.400 440.453,54.400 441.200 C 54.400 441.867,55.111 442.400,56.000 442.400 C 56.880 442.400,57.600 442.760,57.600 443.200 C 57.600 443.640,58.500 444.000,59.600 444.000 C 60.700 444.000,61.600 444.360,61.600 444.800 C 61.600 445.240,62.500 445.600,63.600 445.600 C 64.876 445.600,65.600 446.050,65.600 446.844 C 65.600 447.829,66.391 448.037,69.400 447.844 C 74.311 447.529,75.306 443.803,70.600 443.349 C 69.170 443.211,68.000 442.761,68.000 442.349 C 68.000 441.937,66.740 441.600,65.200 441.600 C 63.660 441.600,62.400 441.240,62.400 440.800 C 62.400 440.360,61.669 440.000,60.775 440.000 C 59.881 440.000,58.943 439.460,58.689 438.800 C 58.436 438.140,57.569 437.600,56.762 437.600 C 55.955 437.600,55.072 437.240,54.800 436.800 C 54.528 436.360,53.607 436.000,52.753 436.000 C 51.899 436.000,51.200 435.640,51.200 435.200 C 51.200 434.760,50.570 434.394,49.800 434.386 C 49.030 434.379,47.552 433.479,46.516 432.386 C 45.480 431.294,44.206 430.400,43.686 430.400 C 43.166 430.400,40.967 428.600,38.800 426.400 C 36.633 424.200,34.354 422.400,33.736 422.400 C 32.242 422.400,26.400 416.510,26.400 415.004 C 26.400 414.352,24.600 412.135,22.400 410.077 C 20.200 408.020,18.400 405.866,18.400 405.292 C 18.400 404.236,15.927 401.600,14.937 401.600 C 14.642 401.600,14.400 402.526,14.400 403.657 " stroke="none" fill="#000000" fill-rule="evenodd"></path><path id="path1" d="" stroke="none" fill="#00ffff" fill-rule="evenodd"></path><path id="path2" d="M116.800 4.022 C 116.800 4.574,118.600 6.724,120.800 8.800 C 125.132 12.889,126.856 21.440,123.600 22.689 C 122.940 22.943,122.400 23.675,122.400 24.318 C 122.400 24.960,122.940 26.026,123.600 26.686 C 124.260 27.346,124.800 28.320,124.800 28.851 C 124.800 29.382,125.700 30.651,126.800 31.670 C 127.900 32.690,128.800 34.025,128.800 34.638 C 128.800 35.251,129.520 36.404,130.400 37.200 C 131.280 37.996,132.000 39.262,132.000 40.012 C 132.000 40.762,132.900 42.052,134.000 42.878 C 135.100 43.704,136.000 44.952,136.000 45.650 C 136.000 46.349,136.900 47.767,138.000 48.800 C 139.100 49.833,140.000 51.194,140.000 51.824 C 140.000 52.454,140.900 53.678,142.000 54.543 C 143.100 55.408,144.000 56.731,144.000 57.481 C 144.000 58.232,144.720 59.366,145.600 60.000 C 146.480 60.634,147.200 61.772,147.200 62.529 C 147.200 63.286,147.550 64.122,147.979 64.387 C 148.407 64.651,149.348 66.113,150.070 67.634 C 150.792 69.155,151.701 70.400,152.091 70.400 C 152.481 70.400,152.800 71.070,152.800 71.888 C 152.800 72.706,153.700 74.052,154.800 74.878 C 155.900 75.704,156.800 76.952,156.800 77.650 C 156.800 78.349,157.700 79.767,158.800 80.800 C 159.900 81.833,160.800 83.251,160.800 83.950 C 160.800 84.648,161.700 85.896,162.800 86.722 C 163.900 87.548,164.800 88.894,164.800 89.712 C 164.800 90.530,165.119 91.200,165.509 91.200 C 165.899 91.200,166.782 92.389,167.472 93.842 C 168.161 95.295,169.462 97.151,170.363 97.966 C 171.263 98.781,172.000 100.112,172.000 100.924 C 172.000 101.736,172.336 102.400,172.746 102.400 C 173.156 102.400,173.740 103.182,174.044 104.139 C 174.347 105.095,175.272 106.603,176.098 107.489 C 176.924 108.376,177.600 109.511,177.600 110.011 C 177.600 110.512,178.500 111.767,179.600 112.800 C 180.700 113.833,181.600 115.184,181.600 115.801 C 181.600 117.897,186.124 121.607,188.538 121.491 C 190.699 121.387,190.711 121.366,188.800 121.023 C 186.449 120.601,182.400 117.007,182.400 115.342 C 182.400 114.705,181.500 113.349,180.400 112.330 C 179.300 111.310,178.400 109.975,178.400 109.362 C 178.400 108.749,177.712 107.626,176.872 106.865 C 176.032 106.105,175.125 104.609,174.857 103.541 C 174.589 102.474,174.016 101.600,173.585 101.600 C 173.153 101.600,172.800 100.906,172.800 100.058 C 172.800 99.210,171.900 97.808,170.800 96.943 C 169.700 96.078,168.800 94.847,168.800 94.209 C 168.800 93.570,168.080 92.396,167.200 91.600 C 166.320 90.804,165.600 89.651,165.600 89.038 C 165.600 88.425,164.700 87.090,163.600 86.070 C 162.500 85.051,161.600 83.654,161.600 82.966 C 161.600 82.279,160.700 81.008,159.600 80.143 C 158.500 79.278,157.600 78.047,157.600 77.409 C 157.600 76.770,156.880 75.596,156.000 74.800 C 155.120 74.004,154.400 72.924,154.400 72.400 C 154.400 71.877,153.500 70.403,152.401 69.124 C 151.302 67.846,150.402 66.394,150.401 65.898 C 150.400 65.402,149.860 64.548,149.200 64.000 C 148.540 63.452,148.000 62.415,148.000 61.694 C 148.000 60.974,147.280 59.935,146.400 59.386 C 145.520 58.836,144.800 57.720,144.800 56.905 C 144.800 56.091,143.900 54.748,142.800 53.922 C 141.700 53.096,140.800 51.848,140.800 51.150 C 140.800 50.451,139.900 49.033,138.800 48.000 C 137.700 46.967,136.800 45.606,136.800 44.976 C 136.800 44.346,135.900 43.122,134.800 42.257 C 133.700 41.392,132.800 39.990,132.800 39.142 C 132.800 38.294,132.481 37.600,132.091 37.600 C 131.701 37.600,130.825 36.430,130.144 35.000 C 129.463 33.570,128.162 31.605,127.253 30.633 C 126.344 29.662,125.600 28.312,125.600 27.633 C 125.600 26.955,125.240 26.400,124.800 26.400 C 124.360 26.400,124.000 25.701,124.000 24.847 C 124.000 23.993,124.360 23.072,124.800 22.800 C 127.703 21.006,125.632 12.286,121.200 7.636 C 118.780 5.097,116.800 3.471,116.800 4.022 M99.507 27.200 C 101.417 28.960,103.530 30.400,104.204 30.400 C 104.878 30.400,105.636 30.940,105.889 31.600 C 106.205 32.422,107.491 32.800,109.975 32.800 C 112.965 32.800,113.600 33.058,113.600 34.276 C 113.600 35.088,114.320 36.404,115.200 37.200 C 116.080 37.996,116.800 39.262,116.800 40.012 C 116.800 40.762,117.700 42.052,118.800 42.878 C 119.900 43.704,120.800 44.964,120.800 45.678 C 120.800 46.392,121.700 47.652,122.800 48.478 C 123.900 49.304,124.800 50.593,124.800 51.343 C 124.800 52.092,125.160 52.928,125.600 53.200 C 126.040 53.472,126.400 54.343,126.400 55.135 C 126.400 55.928,127.300 57.252,128.400 58.078 C 129.500 58.904,130.400 60.188,130.400 60.932 C 130.400 61.675,131.300 62.992,132.400 63.857 C 133.500 64.722,134.400 66.047,134.400 66.800 C 134.400 67.553,135.300 68.878,136.400 69.743 C 137.500 70.608,138.400 71.931,138.400 72.681 C 138.400 73.432,139.120 74.566,140.000 75.200 C 140.880 75.834,141.600 77.174,141.600 78.177 C 141.600 79.179,142.073 80.000,142.652 80.000 C 143.735 80.000,147.200 85.762,147.200 87.564 C 147.200 88.120,148.100 89.252,149.200 90.078 C 150.300 90.904,151.200 92.253,151.200 93.075 C 151.200 93.897,152.100 95.278,153.200 96.143 C 154.300 97.008,155.200 98.268,155.200 98.943 C 155.200 99.618,156.100 100.878,157.200 101.743 C 158.300 102.608,159.200 103.931,159.200 104.681 C 159.200 105.432,159.920 106.566,160.800 107.200 C 161.680 107.834,162.400 108.931,162.400 109.637 C 162.400 110.343,163.300 111.767,164.400 112.800 C 165.500 113.833,166.400 115.173,166.400 115.778 C 166.400 116.382,167.300 117.710,168.400 118.730 C 169.500 119.749,170.400 121.172,170.400 121.892 C 170.400 122.611,170.760 123.200,171.200 123.200 C 172.357 123.200,172.185 126.192,171.000 126.670 C 170.403 126.911,170.564 127.099,171.400 127.137 C 172.944 127.206,173.431 123.684,172.000 122.800 C 171.560 122.528,171.200 121.770,171.200 121.115 C 171.200 120.460,170.300 119.090,169.200 118.070 C 168.100 117.051,167.200 115.684,167.200 115.032 C 167.200 114.381,166.480 113.196,165.600 112.400 C 164.720 111.604,164.000 110.554,164.000 110.068 C 164.000 109.582,163.100 108.213,162.000 107.027 C 160.900 105.840,160.000 104.365,160.000 103.747 C 160.000 103.129,159.100 101.948,158.000 101.122 C 156.900 100.296,156.000 99.012,156.000 98.268 C 156.000 97.525,155.100 96.208,154.000 95.343 C 152.900 94.478,152.000 93.144,152.000 92.379 C 152.000 91.614,151.331 90.405,150.514 89.694 C 149.697 88.982,148.773 87.590,148.461 86.600 C 148.148 85.610,147.556 84.800,147.146 84.800 C 146.736 84.800,146.400 84.143,146.400 83.339 C 146.400 82.536,145.500 81.033,144.400 80.000 C 143.300 78.967,142.400 77.543,142.400 76.837 C 142.400 76.131,141.680 75.034,140.800 74.400 C 139.920 73.766,139.200 72.657,139.200 71.935 C 139.200 71.214,138.300 69.948,137.200 69.122 C 136.100 68.296,135.200 66.947,135.200 66.125 C 135.200 65.303,134.300 63.922,133.200 63.057 C 132.100 62.192,131.200 60.869,131.200 60.119 C 131.200 59.368,130.480 58.234,129.600 57.600 C 128.720 56.966,128.000 55.795,128.000 54.998 C 128.000 54.202,127.460 53.343,126.800 53.089 C 126.140 52.836,125.600 52.010,125.600 51.254 C 125.600 50.498,124.700 49.033,123.600 48.000 C 122.500 46.967,121.600 45.464,121.600 44.661 C 121.600 43.857,121.281 43.200,120.891 43.200 C 120.501 43.200,119.608 41.990,118.906 40.510 C 118.204 39.031,117.045 37.336,116.331 36.743 C 115.617 36.151,114.720 34.841,114.336 33.833 C 113.774 32.355,113.036 32.000,110.518 32.000 C 108.719 32.000,106.974 31.492,106.400 30.800 C 105.852 30.140,104.944 29.600,104.382 29.600 C 103.820 29.600,102.100 28.340,100.560 26.800 C 99.020 25.260,97.372 24.000,96.898 24.000 C 96.424 24.000,97.598 25.440,99.507 27.200 M263.455 45.991 C 263.545 46.866,264.297 47.712,265.127 47.872 C 267.029 48.239,270.400 51.558,270.400 53.066 C 270.400 53.692,270.940 54.652,271.600 55.200 C 272.323 55.800,272.800 57.550,272.800 59.600 C 272.800 61.650,272.323 63.400,271.600 64.000 C 270.940 64.548,270.400 65.506,270.400 66.130 C 270.400 67.522,264.320 73.600,262.928 73.600 C 262.373 73.600,261.578 73.936,261.160 74.347 C 260.742 74.757,258.963 75.207,257.207 75.347 C 254.768 75.540,253.942 75.975,253.712 77.189 C 253.546 78.062,252.553 79.514,251.505 80.414 C 250.457 81.314,249.600 82.505,249.600 83.059 C 249.600 83.613,248.856 84.862,247.947 85.833 C 247.038 86.805,245.737 88.770,245.056 90.200 C 244.375 91.630,243.499 92.800,243.109 92.800 C 242.719 92.800,242.400 93.520,242.400 94.400 C 242.400 95.280,242.064 96.000,241.654 96.000 C 241.244 96.000,240.660 96.782,240.356 97.739 C 240.053 98.695,239.128 100.203,238.302 101.089 C 237.476 101.976,236.800 103.111,236.800 103.611 C 236.800 104.112,235.900 105.367,234.800 106.400 C 233.700 107.433,232.800 108.805,232.800 109.448 C 232.800 110.091,231.900 111.451,230.800 112.470 C 229.700 113.490,228.800 114.825,228.800 115.438 C 228.800 116.051,228.077 117.206,227.194 118.005 C 223.593 121.264,221.984 127.200,224.702 127.200 C 225.528 127.200,226.652 127.740,227.200 128.400 C 227.748 129.060,228.692 129.600,229.298 129.600 C 230.733 129.600,240.000 138.867,240.000 140.302 C 240.000 140.908,240.540 141.852,241.200 142.400 C 241.860 142.948,242.400 144.072,242.400 144.898 C 242.400 145.724,242.737 146.400,243.149 146.400 C 243.561 146.400,244.011 147.570,244.149 149.000 C 244.405 151.655,247.217 153.103,248.883 151.437 C 249.281 151.039,248.639 150.752,247.391 150.769 C 245.496 150.796,245.166 150.449,244.949 148.200 C 244.811 146.770,244.361 145.600,243.949 145.600 C 243.537 145.600,243.200 145.115,243.200 144.523 C 243.200 141.208,232.000 128.000,229.190 128.000 C 228.587 128.000,227.872 127.640,227.600 127.200 C 227.328 126.760,226.407 126.400,225.553 126.400 C 223.946 126.400,223.407 124.461,224.779 123.613 C 225.207 123.349,226.148 121.887,226.870 120.366 C 227.592 118.845,228.501 117.600,228.891 117.600 C 229.281 117.600,229.606 116.970,229.614 116.200 C 229.621 115.430,230.521 113.952,231.614 112.916 C 232.706 111.880,233.600 110.593,233.600 110.055 C 233.600 109.518,234.500 108.233,235.600 107.200 C 236.700 106.167,237.600 104.749,237.600 104.050 C 237.600 103.352,238.500 102.104,239.600 101.278 C 240.700 100.452,241.600 99.342,241.600 98.811 C 241.600 97.370,243.863 93.109,245.231 91.974 C 245.890 91.427,247.004 89.769,247.706 88.290 C 248.408 86.810,249.301 85.600,249.691 85.600 C 250.081 85.600,250.400 84.906,250.400 84.058 C 250.400 83.210,251.260 81.839,252.312 81.012 C 253.363 80.185,254.356 78.809,254.518 77.954 C 254.737 76.803,255.590 76.336,257.809 76.152 C 265.762 75.492,273.600 67.074,273.600 59.191 C 273.600 56.337,273.248 55.015,272.400 54.689 C 271.740 54.436,271.189 53.637,271.175 52.914 C 271.137 50.974,267.520 47.200,265.697 47.200 C 264.828 47.200,263.932 46.570,263.705 45.800 C 263.381 44.701,263.327 44.742,263.455 45.991 M242.600 66.105 C 243.370 66.332,244.000 67.185,244.000 68.000 C 244.000 68.815,243.370 69.647,242.600 69.849 C 241.576 70.116,241.698 70.239,243.053 70.307 C 245.558 70.433,245.312 66.105,242.800 65.853 C 241.553 65.727,241.509 65.783,242.600 66.105 M238.400 77.941 C 238.400 78.569,237.770 79.247,237.000 79.449 C 235.946 79.724,236.045 79.837,237.400 79.907 C 238.698 79.974,239.200 79.553,239.200 78.400 C 239.200 77.520,239.020 76.800,238.800 76.800 C 238.580 76.800,238.400 77.314,238.400 77.941 M234.412 82.600 C 234.422 84.056,234.573 84.170,235.200 83.200 C 236.202 81.649,236.202 80.800,235.200 80.800 C 234.760 80.800,234.406 81.610,234.412 82.600 M217.268 109.888 C 217.541 110.600,217.144 111.208,216.259 111.437 C 215.089 111.740,215.156 111.833,216.600 111.907 C 218.431 112.002,219.126 110.143,217.609 109.206 C 217.166 108.932,217.016 109.232,217.268 109.888 M213.600 115.894 C 213.600 116.328,212.970 116.847,212.200 117.049 C 211.119 117.331,211.199 117.436,212.553 117.507 C 214.494 117.610,215.685 116.394,214.413 115.608 C 213.966 115.332,213.600 115.460,213.600 115.894 M194.200 120.133 C 193.015 121.374,192.989 121.600,194.025 121.600 C 194.699 121.600,195.463 121.044,195.724 120.365 C 196.418 118.557,195.795 118.462,194.200 120.133 M155.200 138.627 C 155.200 139.338,154.627 140.241,153.928 140.633 C 153.135 141.076,152.780 142.071,152.987 143.272 C 153.298 145.079,153.357 145.099,153.932 143.600 C 154.269 142.720,154.933 141.191,155.407 140.201 C 155.881 139.212,156.029 138.162,155.735 137.868 C 155.441 137.574,155.200 137.915,155.200 138.627 M314.493 151.800 C 314.413 153.339,314.777 153.583,317.000 153.480 C 319.347 153.372,319.391 153.328,317.449 153.032 C 316.266 152.851,315.138 152.095,314.942 151.352 C 314.689 150.393,314.559 150.523,314.493 151.800 M73.663 153.400 C 73.628 153.950,72.988 154.400,72.240 154.400 C 71.182 154.400,71.093 154.613,71.840 155.360 C 73.029 156.549,74.803 155.099,74.153 153.470 C 73.842 152.690,73.709 152.671,73.663 153.400 M321.624 153.825 C 321.592 155.698,323.645 156.427,325.844 155.324 C 327.495 154.495,327.473 154.469,325.477 154.889 C 323.942 155.211,323.119 154.929,322.502 153.867 C 321.699 152.486,321.647 152.483,321.624 153.825 M329.693 155.800 C 329.632 156.986,330.056 157.600,330.937 157.600 C 331.672 157.600,332.932 158.195,333.736 158.923 C 334.891 159.969,335.575 160.064,336.999 159.377 C 338.778 158.519,338.774 158.508,336.647 158.454 C 335.463 158.424,334.272 158.040,334.000 157.600 C 333.728 157.160,332.833 156.800,332.011 156.800 C 331.190 156.800,330.353 156.170,330.151 155.400 C 329.876 154.346,329.763 154.445,329.693 155.800 M339.293 159.800 C 339.228 161.050,339.651 161.600,340.676 161.600 C 341.488 161.600,342.806 162.323,343.605 163.206 C 345.156 164.919,349.244 167.200,350.764 167.200 C 351.269 167.200,353.226 168.820,355.113 170.800 C 357.000 172.780,359.038 174.400,359.642 174.400 C 360.894 174.400,368.798 182.367,368.799 183.630 C 368.800 184.087,370.600 186.233,372.800 188.400 C 375.000 190.567,376.800 192.852,376.800 193.478 C 376.800 194.104,377.700 195.451,378.800 196.470 C 379.900 197.490,380.800 198.690,380.800 199.137 C 380.800 199.585,381.520 201.233,382.400 202.800 C 383.280 204.367,384.000 206.189,384.000 206.849 C 384.000 207.510,384.540 208.257,385.200 208.511 C 385.940 208.795,386.400 210.011,386.400 211.686 C 386.400 213.179,386.760 214.400,387.200 214.400 C 387.640 214.400,388.000 215.436,388.000 216.702 C 388.000 217.968,388.540 219.452,389.200 220.000 C 389.883 220.567,390.400 222.311,390.400 224.051 C 390.400 225.731,390.760 227.328,391.200 227.600 C 391.724 227.924,392.000 252.659,392.000 299.200 C 392.000 345.741,391.724 370.476,391.200 370.800 C 390.760 371.072,390.400 372.669,390.400 374.349 C 390.400 376.089,389.883 377.833,389.200 378.400 C 388.540 378.948,388.000 380.432,388.000 381.698 C 388.000 382.964,387.640 384.000,387.200 384.000 C 386.760 384.000,386.400 384.900,386.400 386.000 C 386.400 387.100,386.047 388.000,385.615 388.000 C 385.184 388.000,384.610 388.990,384.340 390.200 C 383.614 393.458,381.796 397.241,380.400 398.400 C 379.724 398.961,378.596 400.631,377.894 402.110 C 377.192 403.590,376.299 404.800,375.909 404.800 C 375.519 404.800,375.196 405.430,375.191 406.200 C 375.186 406.970,373.386 409.377,371.191 411.548 C 368.996 413.719,367.200 415.860,367.200 416.304 C 367.200 417.426,363.100 421.600,361.998 421.600 C 361.502 421.600,359.319 423.396,357.148 425.591 C 354.977 427.786,352.570 429.586,351.800 429.591 C 351.030 429.596,350.400 429.919,350.400 430.309 C 350.400 430.699,349.155 431.608,347.634 432.330 C 346.113 433.052,344.651 433.993,344.387 434.421 C 344.122 434.850,343.207 435.200,342.353 435.200 C 341.499 435.200,340.800 435.560,340.800 436.000 C 340.800 436.440,340.315 436.800,339.723 436.800 C 338.347 436.800,333.777 439.067,333.169 440.051 C 332.914 440.463,331.647 440.800,330.353 440.800 C 329.059 440.800,328.000 441.138,328.000 441.552 C 328.000 441.965,326.650 442.415,325.000 442.552 L 322.000 442.800 321.775 452.200 C 321.646 457.573,321.217 461.600,320.775 461.600 C 320.349 461.600,320.000 462.264,320.000 463.076 C 320.000 465.212,317.445 467.200,314.698 467.200 C 312.208 467.200,305.600 461.773,305.600 459.727 C 305.600 459.170,304.340 457.493,302.800 456.000 C 301.260 454.507,300.000 452.789,300.000 452.182 C 300.000 451.574,298.948 450.025,297.662 448.738 L 295.323 446.400 198.218 446.400 L 101.114 446.400 98.557 449.038 C 97.151 450.489,96.000 452.073,96.000 452.558 C 96.000 453.043,94.740 454.700,93.200 456.240 C 91.660 457.780,90.400 459.439,90.400 459.927 C 90.400 461.451,86.208 465.600,84.668 465.600 C 83.860 465.600,83.200 465.960,83.200 466.400 C 83.200 467.961,79.098 467.170,76.973 465.200 C 75.787 464.100,74.314 463.200,73.700 463.200 C 73.086 463.200,73.623 464.003,74.892 464.985 C 76.161 465.967,77.320 467.047,77.467 467.385 C 78.708 470.246,91.172 464.226,91.193 460.757 C 91.197 460.073,92.460 458.293,94.000 456.800 C 95.540 455.307,96.800 453.629,96.800 453.071 C 96.800 452.512,97.868 450.963,99.173 449.628 L 101.546 447.200 198.241 447.200 L 294.936 447.200 297.068 449.593 C 298.240 450.909,299.200 452.483,299.200 453.091 C 299.200 453.699,300.460 455.273,302.000 456.588 C 303.540 457.904,304.800 459.527,304.800 460.196 C 304.800 463.000,311.188 468.000,314.770 468.000 C 318.338 468.000,320.800 466.260,320.800 463.737 C 320.800 463.002,321.149 462.400,321.575 462.400 C 322.017 462.400,322.446 458.373,322.575 453.000 L 322.800 443.600 325.200 443.338 C 326.520 443.195,327.942 442.745,328.360 442.338 C 328.778 441.932,329.893 441.600,330.837 441.600 C 332.726 441.600,337.300 439.533,338.031 438.349 C 338.286 437.937,339.193 437.600,340.047 437.600 C 340.901 437.600,341.600 437.240,341.600 436.800 C 341.600 436.360,342.085 436.000,342.677 436.000 C 344.335 436.000,348.376 433.794,349.995 432.006 C 350.794 431.123,351.952 430.400,352.569 430.400 C 353.186 430.400,355.519 428.600,357.754 426.400 C 359.989 424.200,362.241 422.400,362.759 422.400 C 363.912 422.400,368.000 418.238,368.000 417.065 C 368.000 416.599,369.800 414.389,372.000 412.154 C 374.200 409.919,376.000 407.694,376.000 407.210 C 376.000 406.726,376.900 405.360,378.000 404.173 C 379.100 402.987,380.000 401.618,380.000 401.132 C 380.000 400.646,380.720 399.596,381.600 398.800 C 382.480 398.004,383.200 396.842,383.200 396.219 C 383.200 395.596,383.740 394.546,384.400 393.886 C 385.060 393.226,385.600 391.833,385.600 390.790 C 385.600 389.747,385.960 388.672,386.400 388.400 C 386.840 388.128,387.200 387.207,387.200 386.353 C 387.200 385.499,387.560 384.800,388.000 384.800 C 388.440 384.800,388.800 383.969,388.800 382.953 C 388.800 381.937,389.329 380.407,389.975 379.553 C 390.621 378.699,391.161 376.671,391.175 375.047 C 391.189 373.423,391.560 371.872,392.000 371.600 C 392.524 371.276,392.800 346.274,392.800 299.200 C 392.800 252.126,392.524 227.124,392.000 226.800 C 391.560 226.528,391.200 224.931,391.200 223.251 C 391.200 221.511,390.683 219.767,390.000 219.200 C 389.340 218.652,388.800 217.168,388.800 215.902 C 388.800 214.636,388.440 213.600,388.000 213.600 C 387.560 213.600,387.200 212.541,387.200 211.247 C 387.200 209.953,386.840 208.672,386.400 208.400 C 385.960 208.128,385.600 207.196,385.600 206.328 C 385.600 205.460,385.060 204.543,384.400 204.289 C 383.740 204.036,383.200 203.169,383.200 202.362 C 383.200 201.555,382.840 200.672,382.400 200.400 C 381.960 200.128,381.600 199.292,381.600 198.543 C 381.600 197.793,380.700 196.504,379.600 195.678 C 378.500 194.852,377.600 193.669,377.600 193.050 C 377.600 192.431,375.980 190.281,374.000 188.273 C 372.020 186.264,370.400 184.200,370.400 183.686 C 370.400 182.417,361.415 173.600,360.122 173.600 C 359.555 173.600,357.538 171.980,355.641 170.000 C 353.744 168.020,351.647 166.400,350.982 166.400 C 350.316 166.400,349.564 165.860,349.311 165.200 C 349.057 164.540,348.175 164.000,347.349 164.000 C 346.523 164.000,345.196 163.280,344.400 162.400 C 343.604 161.520,342.314 160.800,341.535 160.800 C 340.755 160.800,339.953 160.170,339.751 159.400 C 339.476 158.346,339.363 158.445,339.293 159.800 M32.000 176.208 C 32.000 176.909,31.370 177.647,30.600 177.849 C 29.288 178.191,29.290 178.220,30.625 178.307 C 32.071 178.401,33.412 176.345,32.499 175.432 C 32.224 175.158,32.000 175.507,32.000 176.208 M62.400 208.800 C 62.400 209.240,61.875 209.600,61.233 209.600 C 59.209 209.600,52.800 213.929,52.800 215.296 C 52.800 216.016,52.260 217.052,51.600 217.600 C 50.917 218.167,50.400 219.911,50.400 221.651 C 50.400 223.331,50.040 224.928,49.600 225.200 C 49.076 225.524,48.800 251.059,48.800 299.200 C 48.800 347.341,49.076 372.876,49.600 373.200 C 50.040 373.472,50.400 375.034,50.400 376.672 C 50.400 381.457,60.871 391.121,62.754 388.075 C 63.000 387.676,62.525 387.526,61.696 387.743 C 59.147 388.410,52.002 380.315,52.001 376.760 C 52.000 375.198,51.644 373.564,51.208 373.128 C 50.098 372.018,50.073 226.407,51.183 225.297 C 51.633 224.847,52.026 223.202,52.058 221.640 C 52.132 218.048,54.287 214.305,57.057 212.956 C 58.236 212.382,59.200 211.572,59.200 211.156 C 59.200 210.740,59.899 210.400,60.753 210.400 C 61.607 210.400,62.528 210.040,62.800 209.600 C 63.484 208.493,282.916 208.493,283.600 209.600 C 283.872 210.040,284.690 210.400,285.417 210.400 C 287.209 210.400,293.600 216.778,293.600 218.567 C 293.600 219.355,293.936 220.000,294.347 220.000 C 294.758 220.000,295.244 220.990,295.427 222.200 C 295.737 224.248,295.769 224.220,295.880 221.800 C 295.946 220.370,295.640 219.200,295.200 219.200 C 294.760 219.200,294.400 218.601,294.400 217.868 C 294.400 216.091,287.971 209.614,286.200 209.606 C 285.430 209.603,284.800 209.240,284.800 208.800 C 284.800 208.271,247.200 208.000,173.600 208.000 C 100.000 208.000,62.400 208.271,62.400 208.800 M8.812 212.141 C 8.806 212.879,8.170 213.647,7.400 213.849 C 6.319 214.131,6.399 214.236,7.753 214.307 C 9.869 214.419,10.553 213.532,9.559 211.962 C 8.943 210.987,8.823 211.016,8.812 212.141 M329.600 229.600 C 329.600 230.040,329.075 230.400,328.433 230.400 C 326.398 230.400,320.000 234.733,320.000 236.110 C 320.000 236.837,319.106 238.280,318.014 239.316 C 314.946 242.226,314.935 258.176,318.000 260.478 C 319.100 261.304,320.000 262.665,320.000 263.502 C 320.000 265.223,322.144 267.136,324.114 267.175 C 324.837 267.189,325.636 267.740,325.889 268.400 C 326.143 269.060,327.081 269.600,327.975 269.600 C 328.869 269.600,329.600 269.960,329.600 270.400 C 329.600 270.840,330.770 271.146,332.200 271.080 C 334.620 270.969,334.648 270.937,332.600 270.627 C 331.390 270.444,330.400 269.958,330.400 269.547 C 330.400 269.136,329.669 268.800,328.775 268.800 C 327.881 268.800,326.943 268.260,326.689 267.600 C 326.436 266.940,325.522 266.400,324.657 266.400 C 322.830 266.400,320.800 264.609,320.800 262.997 C 320.800 262.382,319.900 261.033,318.800 260.000 C 316.921 258.235,316.800 257.628,316.800 250.000 C 316.800 242.372,316.921 241.765,318.800 240.000 C 319.900 238.967,320.800 237.505,320.800 236.752 C 320.800 235.976,322.000 234.813,323.566 234.070 C 325.087 233.348,326.549 232.407,326.813 231.979 C 327.078 231.550,327.993 231.200,328.847 231.200 C 329.701 231.200,330.400 230.840,330.400 230.400 C 330.400 229.938,332.918 229.600,336.353 229.600 C 339.627 229.600,342.528 229.960,342.800 230.400 C 343.072 230.840,343.955 231.200,344.762 231.200 C 345.569 231.200,346.436 231.740,346.689 232.400 C 346.943 233.060,347.814 233.600,348.625 233.600 C 350.448 233.600,354.400 237.600,354.400 239.444 C 354.400 240.190,354.760 240.800,355.200 240.800 C 355.640 240.800,356.000 241.700,356.000 242.800 C 356.000 243.900,356.360 244.800,356.800 244.800 C 357.240 244.800,357.624 245.790,357.654 247.000 L 357.708 249.200 358.617 247.309 C 359.364 245.754,359.283 245.239,358.163 244.420 C 357.413 243.872,356.800 242.653,356.800 241.712 C 356.800 240.770,356.440 240.000,356.000 240.000 C 355.560 240.000,355.200 239.424,355.200 238.720 C 355.200 238.016,353.976 236.216,352.480 234.720 C 350.984 233.224,349.184 232.000,348.480 232.000 C 347.776 232.000,347.200 231.640,347.200 231.200 C 347.200 230.760,346.501 230.400,345.647 230.400 C 344.793 230.400,343.872 230.040,343.600 229.600 C 343.328 229.160,340.067 228.800,336.353 228.800 C 332.384 228.800,329.600 229.130,329.600 229.600 M348.863 267.000 C 348.828 267.550,348.188 268.000,347.440 268.000 C 346.382 268.000,346.293 268.213,347.040 268.960 C 348.229 270.149,350.003 268.699,349.353 267.070 C 349.042 266.290,348.909 266.271,348.863 267.000 M329.600 314.800 C 329.052 315.460,328.107 316.000,327.499 316.000 C 326.892 316.000,324.056 318.409,321.197 321.353 L 316.000 326.706 316.000 335.667 C 316.000 342.895,316.232 344.718,317.200 345.089 C 317.860 345.343,318.400 346.104,318.400 346.782 C 318.400 348.451,322.654 352.800,324.287 352.800 C 325.009 352.800,325.600 353.160,325.600 353.600 C 325.600 354.040,326.370 354.400,327.312 354.400 C 328.253 354.400,329.472 355.013,330.020 355.763 C 330.839 356.883,331.354 356.964,332.909 356.217 L 334.800 355.308 332.600 355.254 C 331.390 355.224,330.400 354.840,330.400 354.400 C 330.400 353.960,329.500 353.600,328.400 353.600 C 327.300 353.600,326.400 353.240,326.400 352.800 C 326.400 352.360,325.790 352.000,325.044 352.000 C 323.200 352.000,319.200 348.048,319.200 346.225 C 319.200 345.414,318.660 344.543,318.000 344.289 C 317.042 343.922,316.800 342.182,316.800 335.647 L 316.800 327.466 321.902 322.133 C 324.708 319.200,327.498 316.789,328.102 316.775 C 328.706 316.761,329.899 316.221,330.753 315.575 C 332.929 313.929,342.277 313.948,342.911 315.600 C 343.164 316.260,344.031 316.800,344.838 316.800 C 345.645 316.800,346.528 317.160,346.800 317.600 C 347.072 318.040,347.785 318.400,348.386 318.400 C 349.742 318.400,354.400 322.971,354.400 324.302 C 354.400 324.840,354.725 325.622,355.122 326.040 C 355.520 326.458,356.018 327.520,356.230 328.400 C 356.593 329.913,356.619 329.907,356.707 328.291 C 356.896 324.815,351.595 317.600,348.852 317.600 C 347.943 317.600,347.200 317.240,347.200 316.800 C 347.200 316.360,346.634 316.000,345.943 316.000 C 345.251 316.000,344.146 315.460,343.486 314.800 C 342.638 313.952,340.570 313.600,336.441 313.600 C 332.221 313.600,330.319 313.934,329.600 314.800 M356.200 331.751 C 357.085 331.983,357.609 332.906,357.624 334.259 C 357.646 336.145,357.749 336.228,358.491 334.951 C 359.672 332.921,358.786 331.183,356.625 331.293 C 355.270 331.362,355.161 331.480,356.200 331.751 M355.793 343.539 C 356.084 345.066,355.852 345.600,354.893 345.600 C 354.182 345.600,353.600 345.986,353.600 346.459 C 353.600 346.931,354.230 347.197,355.000 347.050 C 356.559 346.753,357.363 343.443,356.167 342.247 C 355.676 341.756,355.541 342.222,355.793 343.539 M350.400 350.608 C 350.400 351.309,349.770 352.047,349.000 352.249 C 347.688 352.591,347.690 352.620,349.025 352.707 C 350.471 352.801,351.812 350.745,350.899 349.832 C 350.624 349.558,350.400 349.907,350.400 350.608 M4.269 373.318 C 5.409 373.649,5.620 374.220,5.212 375.872 C 4.814 377.486,4.912 377.779,5.618 377.085 C 6.988 375.740,6.227 373.244,4.391 373.055 C 3.015 372.914,2.999 372.950,4.269 373.318 M5.752 378.942 C 6.495 379.138,7.251 380.266,7.432 381.449 C 7.728 383.391,7.772 383.347,7.880 381.000 C 7.983 378.777,7.739 378.413,6.200 378.493 C 4.923 378.559,4.793 378.689,5.752 378.942 M7.400 384.511 C 8.304 384.773,8.800 385.712,8.800 387.161 C 8.800 388.395,9.340 389.852,10.000 390.400 C 10.660 390.948,11.200 392.072,11.200 392.898 C 11.200 393.724,11.560 394.400,12.000 394.400 C 12.440 394.400,12.800 395.131,12.800 396.025 C 12.800 396.919,13.338 397.857,13.995 398.109 C 14.653 398.361,14.957 398.946,14.672 399.407 C 14.359 399.914,14.540 400.008,15.129 399.644 C 15.870 399.186,15.804 398.709,14.852 397.658 C 14.163 396.897,13.600 395.672,13.600 394.937 C 13.600 394.202,13.240 393.600,12.800 393.600 C 12.360 393.600,12.000 392.952,12.000 392.160 C 12.000 391.368,11.668 390.378,11.262 389.960 C 10.855 389.542,10.405 388.120,10.262 386.800 C 10.054 384.893,9.589 384.370,8.000 384.252 C 6.845 384.167,6.591 384.276,7.400 384.511 M64.093 388.600 C 64.013 390.139,64.377 390.383,66.600 390.280 C 68.947 390.172,68.991 390.128,67.049 389.832 C 65.866 389.651,64.738 388.895,64.542 388.152 C 64.289 387.193,64.159 387.323,64.093 388.600 M16.292 402.458 C 17.451 403.370,18.400 404.616,18.400 405.226 C 18.400 405.836,20.200 408.020,22.400 410.077 C 24.600 412.135,26.400 414.352,26.400 415.004 C 26.400 416.510,32.242 422.400,33.736 422.400 C 34.354 422.400,36.633 424.200,38.800 426.400 C 40.967 428.600,43.166 430.400,43.686 430.400 C 44.206 430.400,45.480 431.294,46.516 432.386 C 47.552 433.479,49.030 434.379,49.800 434.386 C 50.570 434.394,51.200 434.760,51.200 435.200 C 51.200 435.640,51.899 436.000,52.753 436.000 C 53.607 436.000,54.528 436.360,54.800 436.800 C 55.072 437.240,55.955 437.600,56.762 437.600 C 57.569 437.600,58.436 438.140,58.689 438.800 C 58.943 439.460,59.881 440.000,60.775 440.000 C 61.669 440.000,62.400 440.360,62.400 440.800 C 62.400 441.240,63.660 441.600,65.200 441.600 C 66.740 441.600,68.000 441.937,68.000 442.349 C 68.000 442.761,69.170 443.211,70.600 443.349 C 72.849 443.566,73.196 443.896,73.169 445.791 C 73.152 447.039,73.439 447.681,73.837 447.283 C 75.503 445.617,74.055 442.805,71.400 442.549 C 69.970 442.411,68.800 441.961,68.800 441.549 C 68.800 441.137,67.540 440.800,66.000 440.800 C 64.460 440.800,63.200 440.509,63.200 440.154 C 63.200 439.446,57.624 436.800,56.131 436.800 C 55.619 436.800,55.200 436.440,55.200 436.000 C 55.200 435.560,54.469 435.200,53.575 435.200 C 52.681 435.200,51.743 434.660,51.489 434.000 C 51.236 433.340,50.403 432.800,49.638 432.800 C 48.874 432.800,47.596 432.080,46.800 431.200 C 46.004 430.320,44.888 429.600,44.320 429.600 C 43.753 429.600,41.517 427.800,39.351 425.600 C 37.186 423.400,34.884 421.600,34.235 421.600 C 32.813 421.600,27.200 415.703,27.200 414.210 C 27.200 413.627,25.400 411.476,23.200 409.432 C 21.000 407.387,19.200 405.204,19.200 404.581 C 19.200 403.206,16.673 400.800,15.229 400.800 C 14.654 400.800,15.133 401.546,16.292 402.458 " stroke="none" fill="#004e76" fill-rule="evenodd"></path><path id="path3" d="M103.200 4.000 C 103.200 4.440,102.454 4.800,101.543 4.800 C 99.421 4.800,97.600 6.621,97.600 8.743 C 97.600 9.654,97.240 10.400,96.800 10.400 C 96.329 10.400,96.000 13.200,96.000 17.200 C 96.000 21.612,96.309 24.000,96.880 24.000 C 97.364 24.000,99.020 25.260,100.560 26.800 C 102.100 28.340,103.820 29.600,104.382 29.600 C 104.944 29.600,105.852 30.140,106.400 30.800 C 106.974 31.492,108.719 32.000,110.518 32.000 C 113.036 32.000,113.774 32.355,114.336 33.833 C 114.720 34.841,115.617 36.151,116.331 36.743 C 117.045 37.336,118.204 39.031,118.906 40.510 C 119.608 41.990,120.501 43.200,120.891 43.200 C 121.281 43.200,121.600 43.857,121.600 44.661 C 121.600 45.464,122.500 46.967,123.600 48.000 C 124.700 49.033,125.600 50.498,125.600 51.254 C 125.600 52.010,126.140 52.836,126.800 53.089 C 127.460 53.343,128.000 54.202,128.000 54.998 C 128.000 55.795,128.720 56.966,129.600 57.600 C 130.480 58.234,131.200 59.368,131.200 60.119 C 131.200 60.869,132.100 62.192,133.200 63.057 C 134.300 63.922,135.200 65.303,135.200 66.125 C 135.200 66.947,136.100 68.296,137.200 69.122 C 138.300 69.948,139.200 71.214,139.200 71.935 C 139.200 72.657,139.920 73.766,140.800 74.400 C 141.680 75.034,142.400 76.131,142.400 76.837 C 142.400 77.543,143.300 78.967,144.400 80.000 C 145.500 81.033,146.400 82.536,146.400 83.339 C 146.400 84.143,146.736 84.800,147.146 84.800 C 147.556 84.800,148.148 85.610,148.461 86.600 C 148.773 87.590,149.697 88.982,150.514 89.694 C 151.331 90.405,152.000 91.614,152.000 92.379 C 152.000 93.144,152.900 94.478,154.000 95.343 C 155.100 96.208,156.000 97.525,156.000 98.268 C 156.000 99.012,156.900 100.296,158.000 101.122 C 159.100 101.948,160.000 103.129,160.000 103.747 C 160.000 104.365,160.900 105.840,162.000 107.027 C 163.100 108.213,164.000 109.582,164.000 110.068 C 164.000 110.554,164.720 111.604,165.600 112.400 C 166.480 113.196,167.200 114.381,167.200 115.032 C 167.200 115.684,168.100 117.051,169.200 118.070 C 170.300 119.090,171.200 120.460,171.200 121.115 C 171.200 121.770,171.560 122.528,172.000 122.800 C 173.255 123.575,172.964 127.200,171.647 127.200 C 171.013 127.200,170.272 126.840,170.000 126.400 C 169.253 125.191,168.000 125.441,168.000 126.800 C 168.000 127.476,167.285 128.000,166.362 128.000 C 164.899 128.000,156.800 135.150,156.800 136.441 C 156.800 136.725,156.299 138.093,155.686 139.479 C 155.073 140.866,154.364 142.630,154.111 143.400 C 153.857 144.170,152.919 144.800,152.025 144.800 C 150.701 144.800,150.400 145.319,150.400 147.600 L 150.400 150.400 115.600 150.400 C 85.200 150.400,80.800 150.552,80.800 151.600 C 80.800 152.467,79.911 152.800,77.600 152.800 C 75.347 152.800,74.400 153.141,74.400 153.953 C 74.400 155.563,72.838 156.358,71.770 155.290 C 70.663 154.183,65.600 154.109,65.600 155.200 C 65.600 155.640,64.700 156.000,63.600 156.000 C 62.356 156.000,61.600 156.453,61.600 157.200 C 61.600 158.038,60.756 158.400,58.800 158.400 C 57.260 158.400,56.000 158.760,56.000 159.200 C 56.000 159.640,55.254 160.000,54.343 160.000 C 52.572 160.000,50.400 161.731,50.400 163.143 C 50.400 163.614,49.500 164.000,48.400 164.000 C 47.300 164.000,46.400 164.360,46.400 164.800 C 46.400 165.240,45.654 165.600,44.743 165.600 C 43.174 165.600,40.800 167.286,40.800 168.400 C 40.800 169.514,38.426 171.200,36.857 171.200 C 35.946 171.200,35.200 171.701,35.200 172.314 C 35.200 172.927,34.688 173.625,34.062 173.865 C 33.436 174.106,32.806 175.106,32.662 176.088 C 32.494 177.236,31.558 178.154,30.045 178.656 C 26.989 179.669,24.000 182.689,24.000 184.764 C 24.000 185.685,23.476 186.400,22.800 186.400 C 22.140 186.400,21.600 186.861,21.600 187.423 C 21.600 187.986,20.880 188.966,20.000 189.600 C 19.120 190.234,18.400 191.574,18.400 192.577 C 18.400 193.579,18.014 194.400,17.543 194.400 C 16.131 194.400,14.400 196.572,14.400 198.343 C 14.400 199.283,13.880 200.000,13.200 200.000 C 12.533 200.000,12.000 200.711,12.000 201.600 C 12.000 202.480,11.640 203.200,11.200 203.200 C 10.760 203.200,10.400 204.100,10.400 205.200 C 10.400 206.300,9.999 207.200,9.509 207.200 C 8.697 207.200,8.764 209.393,9.681 212.781 C 9.880 213.520,9.327 214.065,8.200 214.237 C 7.210 214.388,6.400 215.026,6.400 215.656 C 6.400 216.285,6.040 216.800,5.600 216.800 C 5.160 216.800,4.800 218.420,4.800 220.400 C 4.800 222.380,4.440 224.000,4.000 224.000 C 2.185 224.000,2.983 372.557,4.800 373.032 C 6.576 373.496,6.932 375.948,5.440 377.440 C 4.693 378.187,4.871 378.400,6.240 378.400 C 8.206 378.400,8.942 383.125,7.000 383.280 C 6.450 383.324,6.900 383.608,8.000 383.911 C 9.463 384.315,10.070 385.099,10.262 386.832 C 10.405 388.134,10.855 389.542,11.262 389.960 C 11.668 390.378,12.000 391.368,12.000 392.160 C 12.000 392.952,12.360 393.600,12.800 393.600 C 13.240 393.600,13.600 394.276,13.600 395.102 C 13.600 395.928,14.144 397.056,14.810 397.608 C 15.730 398.372,15.802 398.874,15.112 399.706 C 14.414 400.547,14.476 400.800,15.378 400.800 C 16.764 400.800,19.200 403.299,19.200 404.720 C 19.200 405.266,21.000 407.387,23.200 409.432 C 25.400 411.476,27.200 413.627,27.200 414.210 C 27.200 415.703,32.813 421.600,34.235 421.600 C 34.884 421.600,37.186 423.400,39.351 425.600 C 41.517 427.800,43.753 429.600,44.320 429.600 C 44.888 429.600,46.004 430.320,46.800 431.200 C 47.596 432.080,48.874 432.800,49.638 432.800 C 50.403 432.800,51.236 433.340,51.489 434.000 C 51.743 434.660,52.681 435.200,53.575 435.200 C 54.469 435.200,55.200 435.560,55.200 436.000 C 55.200 436.440,55.619 436.800,56.131 436.800 C 57.624 436.800,63.200 439.446,63.200 440.154 C 63.200 440.509,64.460 440.800,66.000 440.800 C 67.540 440.800,68.800 441.137,68.800 441.549 C 68.800 441.961,69.970 442.411,71.400 442.549 C 74.173 442.817,75.479 445.641,73.668 447.452 C 72.381 448.739,72.510 463.200,73.808 463.200 C 74.363 463.200,75.787 464.100,76.973 465.200 C 79.098 467.170,83.200 467.961,83.200 466.400 C 83.200 465.960,83.860 465.600,84.668 465.600 C 86.208 465.600,90.400 461.451,90.400 459.927 C 90.400 459.439,91.660 457.780,93.200 456.240 C 94.740 454.700,96.000 453.007,96.000 452.477 C 96.000 451.947,97.187 450.363,98.638 448.957 L 101.276 446.400 198.300 446.400 L 295.323 446.400 297.662 448.738 C 298.948 450.025,300.000 451.574,300.000 452.182 C 300.000 452.789,301.260 454.507,302.800 456.000 C 304.340 457.493,305.600 459.170,305.600 459.727 C 305.600 461.851,312.212 467.200,314.837 467.200 C 317.525 467.200,320.000 465.157,320.000 462.937 C 320.000 462.202,320.349 461.600,320.775 461.600 C 321.217 461.600,321.646 457.573,321.775 452.200 L 322.000 442.800 325.000 442.552 C 326.650 442.415,328.000 441.965,328.000 441.552 C 328.000 441.138,329.059 440.800,330.353 440.800 C 331.647 440.800,332.914 440.463,333.169 440.051 C 333.777 439.067,338.347 436.800,339.723 436.800 C 340.315 436.800,340.800 436.440,340.800 436.000 C 340.800 435.560,341.499 435.200,342.353 435.200 C 343.207 435.200,344.122 434.850,344.387 434.421 C 344.651 433.993,346.113 433.052,347.634 432.330 C 349.155 431.608,350.400 430.699,350.400 430.309 C 350.400 429.919,351.030 429.596,351.800 429.591 C 352.570 429.586,354.977 427.786,357.148 425.591 C 359.319 423.396,361.502 421.600,361.998 421.600 C 363.100 421.600,367.200 417.426,367.200 416.304 C 367.200 415.860,368.996 413.719,371.191 411.548 C 373.386 409.377,375.186 406.970,375.191 406.200 C 375.196 405.430,375.519 404.800,375.909 404.800 C 376.299 404.800,377.192 403.590,377.894 402.110 C 378.596 400.631,379.724 398.961,380.400 398.400 C 381.796 397.241,383.614 393.458,384.340 390.200 C 384.610 388.990,385.184 388.000,385.615 388.000 C 386.047 388.000,386.400 387.100,386.400 386.000 C 386.400 384.900,386.760 384.000,387.200 384.000 C 387.640 384.000,388.000 382.964,388.000 381.698 C 388.000 380.432,388.540 378.948,389.200 378.400 C 389.883 377.833,390.400 376.089,390.400 374.349 C 390.400 372.669,390.760 371.072,391.200 370.800 C 391.724 370.476,392.000 345.741,392.000 299.200 C 392.000 252.659,391.724 227.924,391.200 227.600 C 390.760 227.328,390.400 225.731,390.400 224.051 C 390.400 222.311,389.883 220.567,389.200 220.000 C 388.540 219.452,388.000 217.968,388.000 216.702 C 388.000 215.436,387.640 214.400,387.200 214.400 C 386.760 214.400,386.400 213.179,386.400 211.686 C 386.400 210.011,385.940 208.795,385.200 208.511 C 384.540 208.257,384.000 207.510,384.000 206.849 C 384.000 206.189,383.280 204.367,382.400 202.800 C 381.520 201.233,380.800 199.585,380.800 199.137 C 380.800 198.690,379.900 197.490,378.800 196.470 C 377.700 195.451,376.800 194.104,376.800 193.478 C 376.800 192.852,375.000 190.567,372.800 188.400 C 370.600 186.233,368.800 184.087,368.799 183.630 C 368.798 182.367,360.894 174.400,359.642 174.400 C 359.038 174.400,357.000 172.780,355.113 170.800 C 353.226 168.820,351.269 167.200,350.764 167.200 C 349.244 167.200,345.156 164.919,343.605 163.206 C 342.806 162.323,341.488 161.600,340.676 161.600 C 339.739 161.600,339.200 161.022,339.200 160.017 C 339.200 158.620,338.966 158.541,337.203 159.344 C 335.578 160.084,334.934 160.007,333.740 158.927 C 332.934 158.197,331.672 157.600,330.937 157.600 C 330.109 157.600,329.600 156.956,329.600 155.907 C 329.600 154.519,329.275 154.314,327.800 154.771 C 322.982 156.264,322.312 156.237,321.866 154.530 C 321.479 153.050,321.017 152.910,317.914 153.336 C 314.708 153.775,314.400 153.667,314.400 152.109 L 314.400 150.400 282.160 150.400 C 260.056 150.400,249.647 150.673,249.052 151.268 C 247.241 153.079,244.417 151.773,244.149 149.000 C 244.011 147.570,243.561 146.400,243.149 146.400 C 242.737 146.400,242.400 145.724,242.400 144.898 C 242.400 144.072,241.860 142.948,241.200 142.400 C 240.540 141.852,240.000 140.908,240.000 140.302 C 240.000 138.867,230.733 129.600,229.298 129.600 C 228.692 129.600,227.748 129.060,227.200 128.400 C 226.652 127.740,225.528 127.200,224.702 127.200 C 221.984 127.200,223.593 121.264,227.194 118.005 C 228.077 117.206,228.800 116.051,228.800 115.438 C 228.800 114.825,229.700 113.490,230.800 112.470 C 231.900 111.451,232.800 110.091,232.800 109.448 C 232.800 108.805,233.700 107.433,234.800 106.400 C 235.900 105.367,236.800 104.112,236.800 103.611 C 236.800 103.111,237.476 101.976,238.302 101.089 C 239.128 100.203,240.053 98.695,240.356 97.739 C 240.660 96.782,241.244 96.000,241.654 96.000 C 242.064 96.000,242.400 95.280,242.400 94.400 C 242.400 93.520,242.719 92.800,243.109 92.800 C 243.499 92.800,244.375 91.630,245.056 90.200 C 245.737 88.770,247.038 86.805,247.947 85.833 C 248.856 84.862,249.600 83.613,249.600 83.059 C 249.600 82.505,250.457 81.314,251.505 80.414 C 252.553 79.514,253.546 78.062,253.712 77.189 C 253.942 75.975,254.768 75.540,257.207 75.347 C 258.963 75.207,260.742 74.757,261.160 74.347 C 261.578 73.936,262.373 73.600,262.928 73.600 C 264.320 73.600,270.400 67.522,270.400 66.130 C 270.400 65.506,270.940 64.548,271.600 64.000 C 272.323 63.400,272.800 61.650,272.800 59.600 C 272.800 57.550,272.323 55.800,271.600 55.200 C 270.940 54.652,270.400 53.692,270.400 53.066 C 270.400 51.508,266.773 48.000,265.161 48.000 C 264.440 48.000,263.662 47.280,263.432 46.400 C 262.972 44.642,251.200 43.872,251.200 45.600 C 251.200 46.040,250.454 46.400,249.543 46.400 C 247.772 46.400,245.600 48.131,245.600 49.543 C 245.600 50.014,245.240 50.400,244.800 50.400 C 244.360 50.400,244.000 51.081,244.000 51.914 C 244.000 52.747,243.460 53.636,242.800 53.889 C 240.753 54.675,241.108 65.285,243.200 65.832 C 245.911 66.541,245.325 70.095,242.400 70.680 C 240.887 70.983,240.000 71.652,240.000 72.492 C 240.000 73.224,239.370 74.336,238.600 74.962 C 237.581 75.790,237.472 76.214,238.200 76.517 C 239.820 77.192,239.407 80.000,237.687 80.000 C 236.740 80.000,235.986 80.748,235.671 82.000 C 235.347 83.291,234.608 84.000,233.585 84.000 C 232.709 84.000,232.000 84.537,232.000 85.200 C 232.000 85.860,231.640 86.400,231.200 86.400 C 230.760 86.400,230.400 87.120,230.400 88.000 C 230.400 88.880,230.040 89.600,229.600 89.600 C 229.160 89.600,228.800 90.140,228.800 90.800 C 228.800 91.460,228.260 92.000,227.600 92.000 C 226.920 92.000,226.400 92.717,226.400 93.657 C 226.400 95.428,224.669 97.600,223.257 97.600 C 222.786 97.600,222.400 98.421,222.400 99.423 C 222.400 100.426,221.680 101.766,220.800 102.400 C 219.920 103.034,219.200 104.374,219.200 105.377 C 219.200 106.464,218.716 107.200,218.000 107.200 C 216.641 107.200,216.391 108.453,217.600 109.200 C 219.192 110.184,218.347 111.811,216.000 112.280 C 213.649 112.750,212.770 114.593,214.413 115.608 C 215.585 116.332,214.564 117.600,212.810 117.600 C 211.987 117.600,210.774 118.140,210.114 118.800 C 209.454 119.460,208.241 120.000,207.417 120.000 C 206.594 120.000,205.519 120.401,205.030 120.890 C 203.962 121.958,202.400 121.163,202.400 119.553 C 202.400 117.595,196.289 118.007,195.768 120.000 C 195.348 121.608,192.800 122.295,192.800 120.800 C 192.800 120.360,192.260 120.000,191.600 120.000 C 190.940 120.000,190.400 120.360,190.400 120.800 C 190.400 121.240,189.472 121.600,188.338 121.600 C 186.123 121.600,181.600 117.708,181.600 115.801 C 181.600 115.184,180.700 113.833,179.600 112.800 C 178.500 111.767,177.600 110.512,177.600 110.011 C 177.600 109.511,176.924 108.376,176.098 107.489 C 175.272 106.603,174.347 105.095,174.044 104.139 C 173.740 103.182,173.156 102.400,172.746 102.400 C 172.336 102.400,172.000 101.736,172.000 100.924 C 172.000 100.112,171.263 98.781,170.363 97.966 C 169.462 97.151,168.161 95.295,167.472 93.842 C 166.782 92.389,165.899 91.200,165.509 91.200 C 165.119 91.200,164.800 90.530,164.800 89.712 C 164.800 88.894,163.900 87.548,162.800 86.722 C 161.700 85.896,160.800 84.648,160.800 83.950 C 160.800 83.251,159.900 81.833,158.800 80.800 C 157.700 79.767,156.800 78.349,156.800 77.650 C 156.800 76.952,155.900 75.704,154.800 74.878 C 153.700 74.052,152.800 72.706,152.800 71.888 C 152.800 71.070,152.481 70.400,152.091 70.400 C 151.701 70.400,150.792 69.155,150.070 67.634 C 149.348 66.113,148.407 64.651,147.979 64.387 C 147.550 64.122,147.200 63.286,147.200 62.529 C 147.200 61.772,146.480 60.634,145.600 60.000 C 144.720 59.366,144.000 58.232,144.000 57.481 C 144.000 56.731,143.100 55.408,142.000 54.543 C 140.900 53.678,140.000 52.454,140.000 51.824 C 140.000 51.194,139.100 49.833,138.000 48.800 C 136.900 47.767,136.000 46.349,136.000 45.650 C 136.000 44.952,135.100 43.704,134.000 42.878 C 132.900 42.052,132.000 40.762,132.000 40.012 C 132.000 39.262,131.280 37.996,130.400 37.200 C 129.520 36.404,128.800 35.251,128.800 34.638 C 128.800 34.025,127.900 32.690,126.800 31.670 C 125.700 30.651,124.800 29.382,124.800 28.851 C 124.800 28.320,124.260 27.346,123.600 26.686 C 122.940 26.026,122.400 24.960,122.400 24.318 C 122.400 23.675,122.940 22.943,123.600 22.689 C 126.856 21.440,125.132 12.889,120.800 8.800 C 118.600 6.724,116.800 4.614,116.800 4.112 C 116.800 3.501,114.559 3.200,110.000 3.200 C 106.000 3.200,103.200 3.529,103.200 4.000 M284.800 208.800 C 284.800 209.240,285.430 209.603,286.200 209.606 C 287.935 209.613,294.400 216.075,294.400 217.802 C 294.400 218.497,294.670 219.187,295.000 219.333 C 296.282 219.903,295.263 377.600,293.977 377.600 C 293.330 377.600,292.800 378.320,292.800 379.200 C 292.800 381.776,286.833 387.200,284.000 387.200 C 282.680 387.200,281.600 387.560,281.600 388.000 C 281.600 388.529,245.600 388.800,175.200 388.800 C 104.800 388.800,68.800 389.071,68.800 389.600 C 68.800 390.040,67.720 390.400,66.400 390.400 C 64.461 390.400,64.000 390.062,64.000 388.640 C 64.000 387.271,63.787 387.093,63.040 387.840 C 60.286 390.594,50.400 381.860,50.400 376.672 C 50.400 375.034,50.040 373.472,49.600 373.200 C 49.076 372.876,48.800 347.341,48.800 299.200 C 48.800 251.059,49.076 225.524,49.600 225.200 C 50.040 224.928,50.400 223.331,50.400 221.651 C 50.400 219.911,50.917 218.167,51.600 217.600 C 52.260 217.052,52.800 216.016,52.800 215.296 C 52.800 213.929,59.209 209.600,61.233 209.600 C 61.875 209.600,62.400 209.240,62.400 208.800 C 62.400 208.271,100.000 208.000,173.600 208.000 C 247.200 208.000,284.800 208.271,284.800 208.800 M343.600 229.600 C 343.872 230.040,344.793 230.400,345.647 230.400 C 346.501 230.400,347.200 230.760,347.200 231.200 C 347.200 231.640,347.776 232.000,348.480 232.000 C 349.184 232.000,350.984 233.224,352.480 234.720 C 353.976 236.216,355.200 238.016,355.200 238.720 C 355.200 239.424,355.560 240.000,356.000 240.000 C 356.440 240.000,356.800 240.770,356.800 241.712 C 356.800 242.653,357.416 243.874,358.168 244.424 C 359.329 245.273,359.390 245.747,358.568 247.550 C 358.036 248.719,357.600 250.700,357.600 251.952 C 357.600 253.238,357.078 254.429,356.400 254.689 C 355.740 254.943,355.200 255.881,355.200 256.775 C 355.200 257.669,354.840 258.400,354.400 258.400 C 353.960 258.400,353.600 259.146,353.600 260.057 C 353.600 261.828,351.869 264.000,350.457 264.000 C 349.986 264.000,349.600 265.059,349.600 266.353 C 349.600 268.995,348.315 270.235,346.970 268.890 C 345.863 267.783,342.400 267.714,342.400 268.800 C 342.400 269.240,340.600 269.600,338.400 269.600 C 336.200 269.600,334.400 269.960,334.400 270.400 C 334.400 270.840,333.320 271.200,332.000 271.200 C 330.680 271.200,329.600 270.840,329.600 270.400 C 329.600 269.960,328.869 269.600,327.975 269.600 C 327.081 269.600,326.143 269.060,325.889 268.400 C 325.636 267.740,324.837 267.189,324.114 267.175 C 322.144 267.136,320.000 265.223,320.000 263.502 C 320.000 262.665,319.100 261.304,318.000 260.478 C 314.935 258.176,314.946 242.226,318.014 239.316 C 319.106 238.280,320.000 236.837,320.000 236.110 C 320.000 234.733,326.398 230.400,328.433 230.400 C 329.075 230.400,329.600 230.040,329.600 229.600 C 329.600 229.130,332.384 228.800,336.353 228.800 C 340.067 228.800,343.328 229.160,343.600 229.600 M343.486 314.800 C 344.146 315.460,345.251 316.000,345.943 316.000 C 346.634 316.000,347.200 316.360,347.200 316.800 C 347.200 317.240,347.943 317.600,348.852 317.600 C 352.817 317.600,358.759 328.295,355.808 330.119 C 355.138 330.533,355.462 330.889,356.808 331.216 C 358.174 331.548,358.745 332.187,358.625 333.250 C 358.135 337.589,357.308 340.000,356.309 340.000 C 354.981 340.000,354.873 340.953,356.068 342.148 C 357.678 343.758,356.589 346.778,354.303 347.043 C 352.721 347.227,352.028 347.914,351.478 349.843 C 350.844 352.066,350.355 352.433,347.730 352.651 C 346.034 352.792,344.517 353.406,344.270 354.051 C 343.963 354.851,342.531 355.200,339.552 355.200 C 337.200 355.200,334.319 355.636,333.150 356.168 C 331.347 356.990,330.873 356.929,330.024 355.768 C 329.474 355.016,328.253 354.400,327.312 354.400 C 326.370 354.400,325.600 354.040,325.600 353.600 C 325.600 353.160,325.009 352.800,324.287 352.800 C 322.654 352.800,318.400 348.451,318.400 346.782 C 318.400 346.104,317.860 345.343,317.200 345.089 C 316.232 344.718,316.000 342.895,316.000 335.667 L 316.000 326.706 321.197 321.353 C 324.056 318.409,326.892 316.000,327.499 316.000 C 328.107 316.000,329.052 315.460,329.600 314.800 C 330.319 313.934,332.221 313.600,336.441 313.600 C 340.570 313.600,342.638 313.952,343.486 314.800 " stroke="none" fill="#008bd2" fill-rule="evenodd"></path><path id="path4" d="" stroke="none" fill="#0000ff" fill-rule="evenodd"></path></g></svg>