<svg id="svg" version="1.1" width="500" height="500" xmlns="http://www.w3.org/2000/svg" xmlns:xlink="http://www.w3.org/1999/xlink" style="display: block;"><g id="svgg"><path id="path0" d="M184.509 97.424 C 184.297 97.767,183.005 100.917,181.638 104.424 C 180.270 107.931,178.830 111.520,178.437 112.400 C 178.043 113.280,176.236 117.780,174.420 122.400 C 172.605 127.020,170.729 131.700,170.252 132.800 C 169.107 135.444,168.550 136.821,165.559 144.400 C 164.170 147.920,162.351 152.326,161.517 154.191 C 160.682 156.056,160.000 157.802,160.000 158.070 C 160.000 158.339,159.509 159.693,158.909 161.079 C 158.308 162.466,157.179 165.220,156.399 167.200 C 155.619 169.180,154.327 172.290,153.528 174.112 C 152.729 175.933,151.838 178.367,151.549 179.519 C 151.259 180.672,150.703 181.813,150.311 182.055 C 149.920 182.297,149.600 183.003,149.600 183.625 C 149.600 184.247,148.748 186.656,147.707 188.978 C 146.666 191.300,145.177 194.820,144.399 196.800 C 143.620 198.780,142.492 201.534,141.891 202.921 C 141.291 204.307,140.800 205.661,140.800 205.930 C 140.800 206.198,140.051 208.124,139.135 210.209 C 135.582 218.300,135.200 219.291,135.200 220.427 C 135.200 221.072,134.840 221.600,134.400 221.600 C 133.960 221.600,133.600 222.320,133.600 223.200 C 133.600 224.766,134.137 224.800,158.600 224.812 C 186.190 224.826,186.505 224.877,184.527 229.046 C 183.797 230.584,183.200 232.237,183.200 232.721 C 183.200 233.204,182.840 233.600,182.400 233.600 C 181.960 233.600,181.600 233.953,181.600 234.385 C 181.600 234.816,180.121 238.326,178.313 242.185 C 164.391 271.901,158.196 285.009,154.067 293.488 C 152.490 296.726,151.200 299.876,151.200 300.488 C 151.200 301.099,150.919 301.600,150.576 301.600 C 150.233 301.600,149.254 303.400,148.400 305.600 C 147.546 307.800,146.567 309.600,146.224 309.600 C 145.881 309.600,145.600 310.071,145.600 310.646 C 145.600 311.221,144.376 314.125,142.879 317.099 C 138.233 326.334,138.873 327.649,144.595 320.624 C 146.955 317.728,154.621 309.293,167.666 295.242 C 170.343 292.359,173.763 288.592,175.266 286.870 C 176.770 285.149,178.900 282.778,180.000 281.600 C 184.787 276.478,191.357 269.349,198.800 261.201 C 203.200 256.385,208.997 250.094,211.682 247.222 C 214.367 244.350,217.427 240.955,218.482 239.679 C 219.537 238.402,221.660 236.033,223.200 234.414 C 224.740 232.795,227.778 229.520,229.952 227.135 C 234.062 222.626,245.943 209.681,255.600 199.189 C 258.680 195.843,263.804 190.247,266.987 186.753 L 272.775 180.400 245.428 180.189 C 214.629 179.952,215.540 180.169,219.834 174.080 C 223.733 168.551,228.599 161.530,229.808 159.689 C 230.353 158.858,231.535 157.238,232.434 156.089 C 233.909 154.204,235.771 151.550,238.000 148.158 C 238.889 146.805,251.694 128.286,254.569 124.196 C 257.697 119.747,258.740 118.331,260.600 116.013 C 261.590 114.779,262.400 113.570,262.400 113.328 C 262.400 113.085,264.740 109.580,267.600 105.540 C 270.460 101.499,272.800 97.880,272.800 97.496 C 272.800 96.632,185.043 96.559,184.509 97.424 " stroke="none" fill="#ffffff" fill-rule="evenodd"></path><path id="path1" d="M188.200 7.022 C 181.500 7.152,176.800 7.565,176.800 8.022 C 176.800 8.450,174.640 8.800,172.000 8.800 C 169.360 8.800,167.200 9.123,167.200 9.517 C 167.200 9.911,164.320 10.488,160.800 10.800 C 157.280 11.112,154.400 11.689,154.400 12.083 C 154.400 12.477,153.140 12.800,151.600 12.800 C 150.060 12.800,148.800 13.126,148.800 13.525 C 148.800 13.924,147.000 14.497,144.800 14.800 C 142.600 15.103,140.800 15.676,140.800 16.075 C 140.800 16.474,139.900 16.800,138.800 16.800 C 137.700 16.800,136.800 17.126,136.800 17.525 C 136.800 17.924,135.000 18.497,132.800 18.800 C 130.600 19.103,128.800 19.676,128.800 20.075 C 128.800 20.474,128.260 20.800,127.600 20.800 C 126.940 20.800,126.400 21.119,126.400 21.509 C 126.400 21.899,124.780 22.461,122.800 22.758 C 120.820 23.055,119.200 23.636,119.200 24.049 C 119.200 24.462,118.660 24.800,118.000 24.800 C 117.340 24.800,116.800 25.144,116.800 25.564 C 116.800 25.984,115.540 26.564,114.000 26.853 C 112.460 27.142,111.200 27.698,111.200 28.089 C 111.200 28.480,110.660 28.800,110.000 28.800 C 109.340 28.800,108.800 29.144,108.800 29.564 C 108.800 29.984,107.552 30.562,106.027 30.848 C 104.392 31.154,103.070 31.951,102.804 32.789 C 102.555 33.571,101.236 34.433,99.869 34.706 C 98.503 34.979,96.803 35.871,96.093 36.687 C 95.382 37.503,93.990 38.427,93.000 38.739 C 92.010 39.052,91.200 39.644,91.200 40.054 C 91.200 40.464,90.791 40.800,90.292 40.800 C 89.792 40.800,88.549 41.700,87.530 42.800 C 86.510 43.900,85.282 44.800,84.800 44.800 C 84.318 44.800,83.090 45.700,82.070 46.800 C 81.051 47.900,79.808 48.800,79.308 48.800 C 78.809 48.800,78.400 49.136,78.400 49.546 C 78.400 49.956,77.698 50.515,76.841 50.787 C 75.983 51.059,75.065 51.965,74.800 52.800 C 74.535 53.635,73.555 54.560,72.623 54.856 C 70.417 55.556,55.556 70.417,54.856 72.623 C 54.560 73.555,53.635 74.535,52.800 74.800 C 51.965 75.065,51.065 75.965,50.800 76.800 C 50.535 77.635,49.617 78.541,48.759 78.813 C 47.902 79.085,47.200 79.953,47.200 80.742 C 47.200 81.531,46.322 82.835,45.248 83.642 C 44.175 84.448,43.088 85.938,42.833 86.954 C 42.578 87.969,42.016 88.800,41.585 88.800 C 41.153 88.800,40.800 89.340,40.800 90.000 C 40.800 90.660,40.464 91.200,40.054 91.200 C 39.644 91.200,39.052 92.010,38.739 93.000 C 38.427 93.990,37.554 95.340,36.800 96.000 C 36.046 96.660,35.173 98.010,34.861 99.000 C 34.548 99.990,33.956 100.800,33.546 100.800 C 33.136 100.800,32.800 101.340,32.800 102.000 C 32.800 102.660,32.480 103.200,32.089 103.200 C 31.698 103.200,31.142 104.460,30.853 106.000 C 30.564 107.540,29.984 108.800,29.564 108.800 C 29.144 108.800,28.800 109.340,28.800 110.000 C 28.800 110.660,28.480 111.200,28.089 111.200 C 27.698 111.200,27.142 112.460,26.853 114.000 C 26.564 115.540,25.984 116.800,25.564 116.800 C 25.144 116.800,24.800 117.340,24.800 118.000 C 24.800 118.660,24.480 119.200,24.089 119.200 C 23.698 119.200,23.142 120.460,22.853 122.000 C 22.564 123.540,21.984 124.800,21.564 124.800 C 21.144 124.800,20.800 125.700,20.800 126.800 C 20.800 127.900,20.444 128.800,20.009 128.800 C 19.575 128.800,18.989 130.240,18.707 132.000 C 18.426 133.760,17.882 135.200,17.498 135.200 C 17.114 135.200,16.800 136.100,16.800 137.200 C 16.800 138.300,16.474 139.200,16.075 139.200 C 15.676 139.200,15.103 141.000,14.800 143.200 C 14.497 145.400,13.924 147.200,13.525 147.200 C 13.126 147.200,12.800 148.460,12.800 150.000 C 12.800 151.540,12.471 152.800,12.068 152.800 C 11.666 152.800,11.084 155.500,10.774 158.800 C 10.465 162.100,9.894 164.800,9.506 164.800 C 9.118 164.800,8.800 166.930,8.800 169.533 C 8.800 172.609,8.450 174.383,7.800 174.600 C 7.027 174.858,6.800 180.978,6.800 201.600 C 6.800 222.222,7.027 228.342,7.800 228.600 C 8.436 228.812,8.800 230.511,8.800 233.267 C 8.800 235.650,9.108 237.600,9.485 237.600 C 9.862 237.600,10.412 240.210,10.707 243.400 C 11.002 246.590,11.594 249.320,12.022 249.467 C 12.450 249.613,12.800 250.963,12.800 252.467 C 12.800 253.970,13.126 255.200,13.525 255.200 C 13.924 255.200,14.497 257.000,14.800 259.200 C 15.103 261.400,15.676 263.200,16.075 263.200 C 16.474 263.200,16.800 264.100,16.800 265.200 C 16.800 266.300,17.114 267.200,17.498 267.200 C 17.882 267.200,18.426 268.640,18.707 270.400 C 18.989 272.160,19.575 273.600,20.009 273.600 C 20.444 273.600,20.800 274.500,20.800 275.600 C 20.800 276.700,21.120 277.600,21.511 277.600 C 21.902 277.600,22.458 278.860,22.747 280.400 C 23.036 281.940,23.616 283.200,24.036 283.200 C 24.456 283.200,24.800 283.740,24.800 284.400 C 24.800 285.060,25.120 285.600,25.511 285.600 C 25.902 285.600,26.458 286.860,26.747 288.400 C 27.036 289.940,27.616 291.200,28.036 291.200 C 28.456 291.200,28.800 291.740,28.800 292.400 C 28.800 293.060,29.120 293.600,29.511 293.600 C 29.902 293.600,30.458 294.860,30.747 296.400 C 31.036 297.940,31.616 299.200,32.036 299.200 C 32.456 299.200,32.800 299.740,32.800 300.400 C 32.800 301.060,33.136 301.600,33.546 301.600 C 33.956 301.600,34.548 302.410,34.861 303.400 C 35.173 304.390,36.046 305.740,36.800 306.400 C 37.554 307.060,38.427 308.410,38.739 309.400 C 39.052 310.390,39.644 311.200,40.054 311.200 C 40.464 311.200,40.800 311.740,40.800 312.400 C 40.800 313.060,41.136 313.600,41.546 313.600 C 41.956 313.600,42.540 314.380,42.842 315.332 C 43.144 316.285,44.249 317.921,45.296 318.969 C 46.343 320.016,47.200 321.230,47.200 321.666 C 47.200 322.103,48.770 323.986,50.689 325.851 C 52.608 327.716,54.427 330.024,54.730 330.980 C 55.034 331.936,55.965 332.935,56.800 333.200 C 57.635 333.465,58.535 334.365,58.800 335.200 C 59.065 336.035,59.965 336.935,60.800 337.200 C 61.635 337.465,62.535 338.365,62.800 339.200 C 63.065 340.035,63.965 340.935,64.800 341.200 C 65.635 341.465,66.535 342.365,66.800 343.200 C 67.065 344.035,67.983 344.941,68.841 345.213 C 69.698 345.485,70.400 346.044,70.400 346.454 C 70.400 346.864,70.788 347.200,71.263 347.200 C 71.737 347.200,73.551 348.640,75.294 350.400 C 77.036 352.160,78.832 353.600,79.285 353.600 C 79.737 353.600,81.296 354.860,82.748 356.400 C 84.201 357.940,85.796 359.200,86.294 359.200 C 86.793 359.200,87.200 359.536,87.200 359.946 C 87.200 360.356,88.010 360.948,89.000 361.261 C 89.990 361.573,91.340 362.446,92.000 363.200 C 92.660 363.954,94.010 364.827,95.000 365.139 C 95.990 365.452,96.800 366.044,96.800 366.454 C 96.800 366.864,97.340 367.200,98.000 367.200 C 98.660 367.200,99.200 367.560,99.200 368.000 C 99.200 368.440,99.931 368.800,100.825 368.800 C 101.719 368.800,102.657 369.340,102.911 370.000 C 103.164 370.660,104.053 371.200,104.886 371.200 C 105.719 371.200,106.400 371.531,106.400 371.936 C 106.400 372.341,107.480 372.910,108.800 373.200 C 110.120 373.490,111.200 374.059,111.200 374.464 C 111.200 374.869,111.920 375.200,112.800 375.200 C 113.680 375.200,114.400 375.531,114.400 375.936 C 114.400 376.341,115.480 376.910,116.800 377.200 C 118.120 377.490,119.200 378.059,119.200 378.464 C 119.200 378.869,119.920 379.200,120.800 379.200 C 121.680 379.200,122.400 379.514,122.400 379.898 C 122.400 380.282,123.840 380.826,125.600 381.107 C 127.360 381.389,128.800 381.975,128.800 382.409 C 128.800 382.844,129.700 383.200,130.800 383.200 C 131.900 383.200,132.800 383.526,132.800 383.925 C 132.800 384.324,134.600 384.897,136.800 385.200 C 139.000 385.503,140.800 386.076,140.800 386.475 C 140.800 386.874,141.700 387.200,142.800 387.200 C 143.900 387.200,144.800 387.542,144.800 387.960 C 144.800 388.378,146.960 388.965,149.600 389.264 C 152.240 389.562,154.400 390.120,154.400 390.503 C 154.400 390.886,155.810 391.200,157.533 391.200 C 159.257 391.200,160.787 391.548,160.933 391.973 C 161.080 392.397,164.710 392.991,169.000 393.291 C 173.290 393.591,176.800 394.143,176.800 394.518 C 176.800 394.893,187.600 395.200,200.800 395.200 C 214.000 395.200,224.800 394.891,224.800 394.514 C 224.800 394.137,228.490 393.576,233.000 393.267 C 237.510 392.959,241.542 392.367,241.960 391.953 C 242.378 391.539,243.728 391.200,244.960 391.200 C 246.192 391.200,247.200 390.886,247.200 390.503 C 247.200 390.120,249.401 389.558,252.091 389.253 C 254.781 388.949,257.571 388.404,258.291 388.043 C 260.971 386.699,263.669 385.710,266.000 385.217 C 269.036 384.576,272.800 382.965,272.800 382.307 C 272.800 382.031,274.240 381.574,276.000 381.293 C 277.760 381.011,279.200 380.510,279.200 380.179 C 279.200 379.544,285.050 376.800,286.405 376.800 C 286.842 376.800,287.200 376.525,287.200 376.189 C 287.200 375.546,293.039 372.800,294.405 372.800 C 294.842 372.800,295.200 372.525,295.200 372.189 C 295.200 371.853,296.550 370.951,298.200 370.185 C 301.473 368.666,304.172 367.080,304.800 366.308 C 305.020 366.037,306.010 365.563,307.000 365.254 C 307.990 364.945,308.800 364.356,308.800 363.946 C 308.800 363.536,309.176 363.200,309.635 363.200 C 310.094 363.200,311.440 362.300,312.627 361.200 C 313.813 360.100,315.237 359.200,315.792 359.200 C 316.346 359.200,316.800 358.864,316.800 358.454 C 316.800 358.044,317.548 357.471,318.462 357.180 C 319.375 356.890,321.616 355.066,323.442 353.127 C 325.267 351.187,327.129 349.591,327.580 349.581 C 328.578 349.558,350.391 327.721,350.422 326.714 C 350.434 326.321,351.514 324.950,352.822 323.667 C 354.130 322.383,355.200 320.939,355.200 320.457 C 355.200 319.974,356.100 318.904,357.200 318.078 C 358.300 317.252,359.200 315.945,359.200 315.174 C 359.200 314.402,359.745 313.562,360.412 313.306 C 361.079 313.050,361.970 311.932,362.392 310.821 C 362.815 309.709,363.529 308.800,363.980 308.800 C 364.431 308.800,364.800 308.119,364.800 307.286 C 364.800 306.453,365.340 305.564,366.000 305.311 C 366.660 305.057,367.200 304.119,367.200 303.225 C 367.200 302.331,367.518 301.600,367.907 301.600 C 368.295 301.600,368.825 300.970,369.083 300.200 C 369.565 298.766,371.251 295.916,372.042 295.200 C 372.753 294.555,375.200 289.039,375.200 288.079 C 375.200 287.596,375.475 287.200,375.811 287.200 C 376.454 287.200,379.200 281.361,379.200 279.995 C 379.200 279.558,379.560 279.200,380.000 279.200 C 380.440 279.200,380.811 278.390,380.825 277.400 C 380.839 276.410,381.379 274.901,382.025 274.047 C 382.671 273.193,383.200 271.663,383.200 270.647 C 383.200 269.631,383.560 268.800,384.000 268.800 C 384.440 268.800,384.800 267.921,384.800 266.847 C 384.800 265.773,385.139 264.685,385.554 264.429 C 385.968 264.172,386.549 262.351,386.845 260.381 C 387.140 258.412,387.701 256.800,388.091 256.800 C 388.481 256.800,388.800 255.561,388.800 254.047 C 388.800 252.533,389.139 251.085,389.553 250.829 C 389.968 250.573,390.554 247.851,390.857 244.782 C 391.159 241.712,391.720 239.200,392.103 239.200 C 392.487 239.200,392.800 237.832,392.800 236.160 C 392.800 234.488,393.250 232.670,393.800 232.120 C 394.563 231.357,394.800 224.230,394.800 202.000 C 394.800 179.771,394.563 172.644,393.800 171.880 C 393.250 171.330,392.800 169.152,392.800 167.040 C 392.800 164.928,392.487 163.200,392.103 163.200 C 391.720 163.200,391.159 160.688,390.857 157.618 C 390.554 154.549,389.968 151.827,389.553 151.571 C 389.139 151.315,388.800 150.047,388.800 148.753 C 388.800 147.459,388.474 146.400,388.075 146.400 C 387.676 146.400,387.103 144.600,386.800 142.400 C 386.497 140.200,385.924 138.400,385.525 138.400 C 385.126 138.400,384.800 137.500,384.800 136.400 C 384.800 135.300,384.440 134.400,384.000 134.400 C 383.560 134.400,383.198 133.590,383.195 132.600 C 383.192 131.610,382.652 129.769,381.995 128.509 C 381.338 127.248,380.800 125.538,380.800 124.709 C 380.800 123.879,380.469 123.200,380.064 123.200 C 379.659 123.200,379.090 122.120,378.800 120.800 C 378.510 119.480,377.941 118.400,377.536 118.400 C 377.131 118.400,376.800 117.680,376.800 116.800 C 376.800 115.920,376.469 115.200,376.064 115.200 C 375.659 115.200,375.090 114.120,374.800 112.800 C 374.510 111.480,373.941 110.400,373.536 110.400 C 373.131 110.400,372.800 109.680,372.800 108.800 C 372.800 107.920,372.482 107.200,372.093 107.200 C 371.705 107.200,371.175 106.570,370.917 105.800 C 370.460 104.439,368.808 101.608,368.000 100.800 C 367.422 100.222,365.681 97.400,365.040 96.000 C 364.737 95.340,364.019 94.324,363.445 93.743 C 362.870 93.161,362.400 92.251,362.400 91.719 C 362.400 91.188,361.680 90.234,360.800 89.600 C 359.920 88.966,359.200 88.073,359.200 87.615 C 359.200 87.158,358.300 85.813,357.200 84.627 C 356.100 83.440,355.200 82.154,355.200 81.767 C 355.200 81.381,354.120 80.102,352.800 78.926 C 351.480 77.750,350.400 76.415,350.400 75.959 C 350.400 74.934,328.381 52.800,327.362 52.800 C 326.956 52.800,325.404 51.544,323.912 50.009 C 322.421 48.473,320.776 47.213,320.258 47.209 C 319.740 47.204,318.608 46.300,317.743 45.200 C 316.878 44.100,315.788 43.200,315.321 43.200 C 314.855 43.200,313.616 42.343,312.569 41.296 C 311.521 40.249,309.885 39.144,308.932 38.842 C 307.980 38.540,307.200 37.956,307.200 37.546 C 307.200 37.136,306.660 36.800,306.000 36.800 C 305.340 36.800,304.800 36.440,304.800 36.000 C 304.800 35.560,304.286 35.200,303.657 35.200 C 303.029 35.200,302.039 34.736,301.457 34.170 C 300.210 32.954,294.940 30.400,293.679 30.400 C 293.196 30.400,292.800 30.125,292.800 29.789 C 292.800 29.146,286.961 26.400,285.595 26.400 C 285.158 26.400,284.800 26.125,284.800 25.789 C 284.800 25.146,278.961 22.400,277.595 22.400 C 277.158 22.400,276.800 22.040,276.800 21.600 C 276.800 21.160,275.900 20.800,274.800 20.800 C 273.700 20.800,272.800 20.469,272.800 20.064 C 272.800 19.659,271.630 19.098,270.200 18.817 C 267.657 18.318,265.071 17.370,262.139 15.862 C 261.335 15.448,258.905 14.900,256.739 14.644 C 254.573 14.387,252.800 13.867,252.800 13.489 C 252.800 13.110,251.570 12.800,250.067 12.800 C 248.563 12.800,247.213 12.443,247.067 12.006 C 246.920 11.569,243.998 10.976,240.573 10.686 C 237.149 10.397,234.157 9.855,233.926 9.480 C 233.695 9.106,231.577 8.800,229.219 8.800 C 226.862 8.800,224.813 8.482,224.667 8.093 C 224.358 7.275,204.763 6.699,188.200 7.022 M274.400 96.743 C 274.400 97.151,273.930 97.961,273.355 98.543 C 272.781 99.124,272.063 100.140,271.760 100.800 C 271.262 101.887,270.182 103.665,268.628 105.956 C 268.313 106.420,267.053 108.061,265.828 109.603 C 264.603 111.144,263.240 112.986,262.800 113.695 C 260.467 117.455,256.116 123.781,255.129 124.848 C 253.560 126.543,252.041 128.940,251.483 130.600 C 251.225 131.370,250.773 132.000,250.479 132.000 C 250.185 132.000,249.255 133.170,248.412 134.600 C 247.570 136.030,246.597 137.560,246.252 138.000 C 245.907 138.440,244.719 139.932,243.612 141.315 C 242.505 142.699,241.600 144.229,241.600 144.715 C 241.600 145.202,241.322 145.600,240.982 145.600 C 240.642 145.600,239.685 146.860,238.856 148.400 C 238.027 149.940,237.045 151.200,236.674 151.200 C 236.303 151.200,236.000 151.684,236.000 152.276 C 236.000 152.868,235.239 154.038,234.308 154.876 C 233.378 155.714,232.302 157.120,231.918 158.000 C 231.535 158.880,229.596 161.760,227.611 164.400 C 225.625 167.040,223.760 169.740,223.464 170.400 C 222.996 171.448,221.058 174.103,218.356 177.400 C 217.704 178.197,223.165 178.400,245.194 178.400 C 276.986 178.400,276.137 178.175,269.877 184.947 C 267.745 187.254,264.020 191.271,261.600 193.875 C 259.180 196.479,255.400 200.588,253.200 203.005 C 251.000 205.423,246.140 210.725,242.400 214.788 C 238.660 218.851,233.980 223.970,232.000 226.164 C 226.732 232.000,221.481 237.750,212.858 247.125 C 197.396 263.934,193.058 268.675,186.400 276.047 C 182.660 280.188,177.620 285.704,175.200 288.303 C 167.521 296.552,151.174 314.368,144.028 322.276 C 138.218 328.705,136.026 329.755,138.341 325.000 C 140.585 320.390,144.494 311.895,145.704 309.000 C 146.302 307.570,147.063 306.400,147.395 306.400 C 147.728 306.400,148.000 306.004,148.000 305.521 C 148.000 304.428,149.353 301.376,155.237 289.200 C 157.789 283.920,160.664 277.800,161.627 275.600 C 163.264 271.856,169.424 258.868,175.674 245.978 C 177.173 242.887,178.400 239.917,178.400 239.378 C 178.400 238.840,178.760 238.400,179.200 238.400 C 179.640 238.400,180.000 238.042,180.000 237.605 C 180.000 236.239,182.746 230.400,183.389 230.400 C 183.725 230.400,184.000 229.320,184.000 228.000 L 184.000 225.600 158.447 225.600 C 130.972 225.600,131.512 225.687,133.343 221.568 C 134.020 220.045,134.870 218.080,135.233 217.200 C 138.026 210.420,138.620 209.037,139.267 207.811 C 139.670 207.047,140.000 206.021,140.000 205.532 C 140.000 205.042,140.577 203.327,141.282 201.721 C 141.986 200.114,142.862 198.080,143.227 197.200 C 143.593 196.320,144.499 194.160,145.241 192.400 C 145.983 190.640,147.105 187.940,147.734 186.400 C 148.363 184.860,149.220 182.975,149.639 182.211 C 150.057 181.447,150.400 180.277,150.400 179.611 C 150.400 178.945,150.714 178.400,151.098 178.400 C 151.482 178.400,152.026 176.960,152.307 175.200 C 152.589 173.440,153.175 172.000,153.609 172.000 C 154.044 172.000,154.400 171.335,154.400 170.523 C 154.400 169.177,155.730 165.777,157.651 162.211 C 158.063 161.447,158.400 160.277,158.400 159.611 C 158.400 158.945,158.760 158.400,159.200 158.400 C 159.640 158.400,160.000 157.824,160.000 157.121 C 160.000 156.417,160.491 154.707,161.091 153.321 C 161.692 151.934,162.809 149.180,163.573 147.200 C 164.338 145.220,165.287 142.975,165.682 142.211 C 166.077 141.447,166.400 140.277,166.400 139.611 C 166.400 138.945,166.760 138.400,167.200 138.400 C 167.640 138.400,168.000 137.824,168.000 137.121 C 168.000 136.417,168.491 134.707,169.091 133.321 C 169.692 131.934,170.812 129.180,171.581 127.200 C 172.349 125.220,173.658 122.216,174.489 120.524 C 175.320 118.833,176.000 117.087,176.000 116.645 C 176.000 116.203,176.491 114.707,177.091 113.321 C 177.692 111.934,178.822 109.180,179.604 107.200 C 180.386 105.220,181.785 101.896,182.713 99.814 L 184.400 96.028 229.400 96.014 C 256.569 96.006,274.400 96.294,274.400 96.743 " stroke="none" fill="#50b5df" fill-rule="evenodd"></path><path id="path2" d="M184.000 96.600 C 184.000 96.930,204.021 97.104,228.491 96.987 C 267.984 96.797,272.929 96.910,272.516 97.987 C 272.260 98.654,272.360 99.200,272.740 99.200 C 273.332 99.200,274.400 97.356,274.400 96.335 C 274.400 96.151,254.060 96.000,229.200 96.000 C 204.340 96.000,184.000 96.270,184.000 96.600 M182.146 101.000 C 181.525 102.430,180.380 105.220,179.600 107.200 C 178.820 109.180,177.667 111.986,177.037 113.436 C 176.406 114.886,176.051 116.506,176.247 117.036 C 176.443 117.566,176.877 116.920,177.212 115.600 C 177.547 114.280,178.079 112.840,178.394 112.400 C 178.710 111.960,179.340 110.520,179.794 109.200 C 180.249 107.880,181.376 104.910,182.299 102.600 C 184.117 98.050,183.992 96.748,182.146 101.000 M267.141 106.204 C 264.754 109.608,262.440 112.977,262.000 113.691 C 260.772 115.683,258.115 119.490,257.210 120.552 C 256.765 121.076,255.576 122.696,254.569 124.152 C 253.563 125.608,249.603 131.332,245.769 136.870 C 241.936 142.409,238.440 147.488,238.000 148.158 C 235.771 151.550,233.909 154.204,232.434 156.089 C 231.535 157.238,230.353 158.858,229.808 159.689 C 228.599 161.530,223.733 168.551,219.834 174.080 C 215.540 180.169,214.629 179.952,245.428 180.189 L 272.775 180.400 266.987 186.753 C 263.804 190.247,258.680 195.843,255.600 199.189 C 245.943 209.681,234.062 222.626,229.952 227.135 C 227.778 229.520,224.740 232.795,223.200 234.414 C 221.660 236.033,219.537 238.402,218.482 239.679 C 217.427 240.955,214.367 244.350,211.682 247.222 C 208.997 250.094,203.200 256.385,198.800 261.201 C 191.357 269.349,184.787 276.478,180.000 281.600 C 178.900 282.778,176.770 285.149,175.266 286.870 C 173.763 288.592,170.343 292.359,167.666 295.242 C 157.576 306.111,147.364 317.312,144.730 320.400 C 143.228 322.160,141.460 324.039,140.800 324.575 C 140.140 325.111,139.995 325.561,140.479 325.575 C 140.962 325.589,143.122 323.545,145.279 321.034 C 147.435 318.522,152.080 313.348,155.600 309.535 C 159.120 305.722,163.980 300.449,166.400 297.816 C 168.820 295.184,172.780 290.903,175.200 288.303 C 177.620 285.704,182.660 280.188,186.400 276.047 C 193.058 268.675,197.396 263.934,212.858 247.125 C 221.481 237.750,226.732 232.000,232.000 226.164 C 233.980 223.970,238.660 218.851,242.400 214.788 C 246.140 210.725,251.000 205.423,253.200 203.005 C 255.400 200.588,259.180 196.479,261.600 193.875 C 264.020 191.271,267.745 187.254,269.877 184.947 C 276.137 178.175,276.986 178.400,245.194 178.400 C 223.165 178.400,217.704 178.197,218.356 177.400 C 221.058 174.103,222.996 171.448,223.464 170.400 C 223.760 169.740,225.625 167.040,227.611 164.400 C 229.596 161.760,231.535 158.880,231.918 158.000 C 232.302 157.120,233.378 155.714,234.308 154.876 C 235.239 154.038,236.000 152.868,236.000 152.276 C 236.000 151.684,236.303 151.200,236.674 151.200 C 237.045 151.200,238.027 149.940,238.856 148.400 C 239.685 146.860,240.642 145.600,240.982 145.600 C 241.322 145.600,241.600 145.202,241.600 144.715 C 241.600 144.229,242.505 142.699,243.612 141.315 C 244.719 139.932,245.907 138.440,246.252 138.000 C 246.597 137.560,247.570 136.030,248.412 134.600 C 249.255 133.170,250.185 132.000,250.479 132.000 C 250.773 132.000,251.225 131.370,251.483 130.600 C 252.041 128.940,253.560 126.543,255.129 124.848 C 256.116 123.781,260.467 117.455,262.800 113.695 C 263.486 112.589,264.830 110.837,268.828 105.834 C 269.253 105.302,269.600 104.611,269.600 104.297 C 269.600 103.983,270.198 103.065,270.928 102.258 C 271.659 101.451,272.083 100.616,271.870 100.403 C 271.657 100.190,269.529 102.801,267.141 106.204 M174.146 121.000 C 173.525 122.430,172.380 125.220,171.600 127.200 C 170.820 129.180,169.661 131.999,169.023 133.465 C 168.385 134.931,168.066 136.332,168.313 136.579 C 168.560 136.827,168.983 136.347,169.254 135.515 C 169.524 134.682,170.063 133.280,170.450 132.400 C 170.838 131.520,171.923 128.820,172.860 126.400 C 173.797 123.980,174.878 121.190,175.262 120.200 C 176.344 117.411,175.415 118.078,174.146 121.000 M166.400 139.611 C 166.400 140.277,166.077 141.447,165.682 142.211 C 165.287 142.975,164.338 145.220,163.573 147.200 C 162.809 149.180,161.661 151.999,161.023 153.465 C 160.385 154.931,160.032 156.299,160.239 156.506 C 160.446 156.713,161.071 155.693,161.628 154.241 C 162.718 151.396,163.613 149.154,166.272 142.600 C 167.210 140.290,167.622 138.400,167.188 138.400 C 166.755 138.400,166.400 138.945,166.400 139.611 M158.400 159.477 C 158.400 160.480,156.886 164.165,155.149 167.389 C 154.737 168.153,154.400 169.473,154.400 170.322 C 154.400 171.172,154.067 171.987,153.659 172.133 C 153.252 172.280,152.697 173.480,152.427 174.800 C 151.863 177.556,153.782 173.872,156.386 167.200 C 157.665 163.923,159.074 160.548,159.809 159.000 C 159.966 158.670,159.713 158.400,159.247 158.400 C 158.781 158.400,158.400 158.885,158.400 159.477 M150.400 179.611 C 150.400 180.277,150.057 181.447,149.639 182.211 C 149.220 182.975,148.283 185.040,147.557 186.800 C 144.597 193.976,142.661 198.571,141.105 202.121 C 140.497 203.507,140.000 205.042,140.000 205.532 C 140.000 206.021,139.670 207.047,139.267 207.811 C 138.620 209.037,138.026 210.420,135.233 217.200 C 134.870 218.080,134.020 220.045,133.343 221.568 C 131.512 225.686,130.975 225.600,158.392 225.600 L 183.889 225.600 184.204 227.400 C 184.492 229.048,184.574 229.075,185.176 227.719 C 186.351 225.072,184.089 224.825,158.600 224.812 C 134.137 224.800,133.600 224.766,133.600 223.200 C 133.600 222.320,133.960 221.600,134.400 221.600 C 134.840 221.600,135.200 221.072,135.200 220.427 C 135.200 219.291,135.582 218.300,139.135 210.209 C 140.051 208.124,140.800 206.198,140.800 205.930 C 140.800 205.661,141.291 204.307,141.891 202.921 C 142.492 201.534,143.620 198.780,144.399 196.800 C 145.177 194.820,146.666 191.300,147.707 188.978 C 148.748 186.656,149.600 184.247,149.600 183.625 C 149.600 183.003,149.917 182.299,150.303 182.060 C 151.309 181.438,151.991 178.400,151.125 178.400 C 150.726 178.400,150.400 178.945,150.400 179.611 M181.350 233.695 C 180.565 235.507,180.103 237.169,180.322 237.389 C 180.542 237.609,180.959 236.846,181.248 235.694 C 181.537 234.542,182.052 233.600,182.393 233.600 C 182.734 233.600,183.202 232.880,183.432 232.000 C 184.166 229.193,182.829 230.282,181.350 233.695 M178.400 239.628 C 178.400 240.304,177.811 241.755,177.092 242.853 C 176.372 243.951,175.981 245.048,176.223 245.290 C 176.465 245.532,177.295 244.351,178.066 242.665 C 178.838 240.979,179.610 239.330,179.782 239.000 C 179.954 238.670,179.713 238.400,179.247 238.400 C 178.781 238.400,178.400 238.953,178.400 239.628 M173.958 249.335 C 173.200 251.021,170.509 256.720,167.978 262.000 C 165.447 267.280,162.589 273.400,161.627 275.600 C 160.664 277.800,157.789 283.920,155.237 289.200 C 148.840 302.438,147.797 304.864,148.293 305.359 C 148.529 305.596,148.959 304.846,149.248 303.694 C 149.537 302.542,150.094 301.600,150.487 301.600 C 150.879 301.600,151.200 301.099,151.200 300.488 C 151.200 299.876,152.490 296.726,154.067 293.488 C 156.992 287.482,158.733 283.824,165.061 270.400 C 167.032 266.220,170.325 259.256,172.380 254.924 C 174.435 250.593,175.940 246.874,175.726 246.660 C 175.512 246.445,174.716 247.649,173.958 249.335 M145.389 309.605 C 143.788 313.300,143.692 313.885,144.800 313.200 C 145.240 312.928,145.600 312.007,145.600 311.153 C 145.600 310.299,145.918 309.600,146.307 309.600 C 146.695 309.600,147.202 308.880,147.432 308.000 C 148.157 305.226,146.836 306.264,145.389 309.605 M141.644 317.696 C 140.699 319.509,140.093 321.160,140.298 321.365 C 140.710 321.776,141.977 319.616,143.180 316.454 C 144.357 313.356,143.577 313.987,141.644 317.696 M138.094 325.652 C 136.969 327.907,136.979 328.083,138.219 327.844 C 139.037 327.687,139.633 326.722,139.736 325.392 C 139.952 322.573,139.602 322.628,138.094 325.652 " stroke="none" fill="#a3d8ee" fill-rule="evenodd"></path><path id="path3" d="" stroke="none" fill="#33ccff" fill-rule="evenodd"></path><path id="path4" d="" stroke="none" fill="#55aaff" fill-rule="evenodd"></path></g></svg>