<svg id="svg" version="1.1" width="500" height="500" xmlns="http://www.w3.org/2000/svg" xmlns:xlink="http://www.w3.org/1999/xlink" style="display: block;"><g id="svgg"><path id="path0" d="M123.628 0.577 C 115.043 2.799,114.742 20.800,123.290 20.800 C 124.027 20.800,124.836 21.340,125.089 22.000 C 125.378 22.753,126.602 23.200,128.375 23.200 L 131.200 23.200 131.200 56.000 C 131.200 88.436,131.182 88.800,129.575 88.800 C 128.681 88.800,127.743 89.340,127.489 90.000 C 127.207 90.735,125.994 91.200,124.362 91.200 C 122.895 91.200,121.472 91.560,121.200 92.000 C 120.928 92.440,119.636 92.800,118.328 92.800 C 116.952 92.800,115.756 93.306,115.489 94.000 C 115.236 94.660,114.167 95.200,113.114 95.200 C 112.061 95.200,111.200 95.560,111.200 96.000 C 111.200 96.440,110.570 96.806,109.800 96.814 C 109.030 96.821,107.552 97.721,106.516 98.814 C 105.480 99.906,104.104 100.800,103.459 100.800 C 101.929 100.800,88.800 113.929,88.800 115.459 C 88.800 116.104,87.906 117.480,86.814 118.516 C 85.721 119.552,84.821 121.030,84.814 121.800 C 84.806 122.570,84.440 123.200,84.000 123.200 C 83.560 123.200,83.200 124.061,83.200 125.114 C 83.200 126.167,82.660 127.236,82.000 127.489 C 81.306 127.756,80.800 128.952,80.800 130.328 C 80.800 131.636,80.440 132.928,80.000 133.200 C 79.560 133.472,79.200 135.255,79.200 137.162 C 79.200 139.506,78.811 140.778,78.000 141.089 C 76.177 141.789,76.177 319.811,78.000 320.511 C 78.840 320.833,79.200 322.144,79.200 324.886 C 79.200 327.039,79.560 328.800,80.000 328.800 C 80.440 328.800,80.800 330.071,80.800 331.625 C 80.800 333.398,81.247 334.622,82.000 334.911 C 82.660 335.164,83.200 336.031,83.200 336.838 C 83.200 337.645,83.560 338.528,84.000 338.800 C 84.440 339.072,84.800 339.943,84.800 340.735 C 84.800 341.528,85.700 342.852,86.800 343.678 C 87.900 344.504,88.800 345.677,88.800 346.284 C 88.800 347.687,101.647 360.773,103.038 360.789 C 103.609 360.795,104.910 361.700,105.930 362.800 C 106.949 363.900,108.514 364.800,109.406 364.800 C 110.299 364.800,111.236 365.340,111.489 366.000 C 111.743 366.660,112.681 367.200,113.575 367.200 C 114.469 367.200,115.200 367.560,115.200 368.000 C 115.200 368.440,116.100 368.800,117.200 368.800 L 119.200 368.800 119.200 384.400 L 119.200 400.000 200.000 400.000 L 280.800 400.000 280.800 384.400 C 280.800 369.491,280.869 368.800,282.353 368.800 C 283.207 368.800,284.128 368.440,284.400 368.000 C 284.672 367.560,285.604 367.200,286.472 367.200 C 287.340 367.200,288.257 366.660,288.511 366.000 C 288.764 365.340,289.600 364.800,290.369 364.800 C 291.137 364.800,292.737 363.900,293.924 362.800 C 295.111 361.700,296.514 360.795,297.041 360.789 C 298.479 360.772,311.200 347.586,311.200 346.113 C 311.200 345.411,312.100 344.247,313.200 343.526 C 314.300 342.806,315.200 341.559,315.200 340.755 C 315.200 339.952,315.560 339.072,316.000 338.800 C 316.440 338.528,316.800 337.645,316.800 336.838 C 316.800 336.031,317.340 335.164,318.000 334.911 C 318.748 334.624,319.200 333.404,319.200 331.672 C 319.200 330.144,319.560 328.672,320.000 328.400 C 320.440 328.128,320.800 326.345,320.800 324.438 C 320.800 322.094,321.189 320.822,322.000 320.511 C 323.823 319.811,323.823 141.789,322.000 141.089 C 321.189 140.778,320.800 139.506,320.800 137.162 C 320.800 135.255,320.440 133.472,320.000 133.200 C 319.560 132.928,319.200 131.636,319.200 130.328 C 319.200 128.952,318.694 127.756,318.000 127.489 C 317.340 127.236,316.800 126.167,316.800 125.114 C 316.800 124.061,316.440 123.200,316.000 123.200 C 315.560 123.200,315.194 122.570,315.186 121.800 C 315.179 121.030,314.279 119.552,313.186 118.516 C 312.094 117.480,311.200 116.104,311.200 115.459 C 311.200 113.929,298.071 100.800,296.541 100.800 C 295.896 100.800,294.520 99.906,293.484 98.814 C 292.448 97.721,290.970 96.821,290.200 96.814 C 289.430 96.806,288.800 96.440,288.800 96.000 C 288.800 95.560,287.939 95.200,286.886 95.200 C 285.833 95.200,284.764 94.660,284.511 94.000 C 284.244 93.306,283.048 92.800,281.672 92.800 C 280.364 92.800,279.072 92.440,278.800 92.000 C 278.528 91.560,277.105 91.200,275.638 91.200 C 274.006 91.200,272.793 90.735,272.511 90.000 C 272.257 89.340,271.319 88.800,270.425 88.800 C 268.818 88.800,268.800 88.436,268.800 56.000 L 268.800 23.200 271.625 23.200 C 273.398 23.200,274.622 22.753,274.911 22.000 C 275.164 21.340,275.973 20.800,276.710 20.800 C 283.006 20.800,285.509 8.549,280.280 3.320 L 277.360 0.400 201.280 0.285 C 159.436 0.222,124.493 0.353,123.628 0.577 M255.200 56.000 L 255.200 76.800 215.200 76.800 L 175.200 76.800 175.200 56.000 L 175.200 35.200 215.200 35.200 L 255.200 35.200 255.200 56.000 M251.200 376.000 C 251.200 376.440,250.469 376.800,249.575 376.800 C 248.681 376.800,247.743 377.340,247.489 378.000 C 246.792 379.818,153.208 379.818,152.511 378.000 C 152.257 377.340,151.319 376.800,150.425 376.800 C 149.531 376.800,148.800 376.440,148.800 376.000 C 148.800 375.475,166.400 375.200,200.000 375.200 C 233.600 375.200,251.200 375.475,251.200 376.000 " stroke="none" fill="#6277ee" fill-rule="evenodd"></path><path id="path1" d="" stroke="none" fill="#4d66ff" fill-rule="evenodd"></path><path id="path2" d="" stroke="none" fill="#0000ff" fill-rule="evenodd"></path><path id="path3" d="" stroke="none" fill="#5555ff" fill-rule="evenodd"></path><path id="path4" d="" stroke="none" fill="#8080ff" fill-rule="evenodd"></path></g></svg>