<svg id="svg" version="1.1" width="500" height="500" xmlns="http://www.w3.org/2000/svg" xmlns:xlink="http://www.w3.org/1999/xlink" style="display: block;"><g id="svgg"><path id="path0" d="" stroke="none" fill="#808080" fill-rule="evenodd"></path><path id="path1" d="" stroke="none" fill="#00ffff" fill-rule="evenodd"></path><path id="path2" d="M191.011 6.779 C 187.375 10.507,183.577 14.467,182.572 15.579 C 181.566 16.690,180.181 17.600,179.493 17.600 C 178.805 17.600,177.233 18.680,176.000 20.000 C 174.767 21.320,173.327 22.400,172.800 22.400 C 172.273 22.400,170.833 23.480,169.600 24.800 C 168.367 26.120,166.862 27.200,166.256 27.200 C 165.649 27.200,164.634 27.920,164.000 28.800 C 163.366 29.680,162.206 30.400,161.423 30.400 C 160.641 30.400,160.000 30.760,160.000 31.200 C 160.000 31.640,159.359 32.000,158.577 32.000 C 157.794 32.000,156.634 32.720,156.000 33.600 C 155.366 34.480,154.206 35.200,153.423 35.200 C 152.641 35.200,152.000 35.560,152.000 36.000 C 152.000 36.440,151.460 36.800,150.800 36.800 C 150.140 36.800,149.600 37.160,149.600 37.600 C 149.600 38.040,148.880 38.400,148.000 38.400 C 147.120 38.400,146.400 38.760,146.400 39.200 C 146.400 39.640,145.680 40.000,144.800 40.000 C 143.920 40.000,143.200 40.360,143.200 40.800 C 143.200 41.240,142.480 41.600,141.600 41.600 C 140.720 41.600,140.000 41.960,140.000 42.400 C 140.000 42.840,139.280 43.200,138.400 43.200 C 137.520 43.200,136.800 43.560,136.800 44.000 C 136.800 44.440,136.080 44.800,135.200 44.800 C 134.320 44.800,133.600 45.160,133.600 45.600 C 133.600 46.040,132.880 46.400,132.000 46.400 C 131.120 46.400,130.400 46.760,130.400 47.200 C 130.400 47.640,129.320 48.000,128.000 48.000 C 126.680 48.000,125.600 48.320,125.600 48.711 C 125.600 49.102,124.250 49.664,122.600 49.960 C 118.987 50.609,115.200 52.162,115.200 52.995 C 115.200 53.328,114.120 53.600,112.800 53.600 C 111.480 53.600,110.400 53.960,110.400 54.400 C 110.400 54.840,109.320 55.200,108.000 55.200 C 106.680 55.200,105.600 55.560,105.600 56.000 C 105.600 56.440,104.520 56.800,103.200 56.800 C 101.880 56.800,100.800 57.160,100.800 57.600 C 100.800 58.040,99.360 58.400,97.600 58.400 C 95.840 58.400,94.400 58.760,94.400 59.200 C 94.400 59.640,93.161 60.000,91.647 60.000 C 90.133 60.000,88.672 60.360,88.400 60.800 C 88.128 61.240,86.667 61.600,85.153 61.600 C 83.639 61.600,82.400 61.960,82.400 62.400 C 82.400 62.840,80.600 63.200,78.400 63.200 C 76.200 63.200,74.400 63.560,74.400 64.000 C 74.400 64.444,72.267 64.800,69.600 64.800 C 66.933 64.800,64.800 65.156,64.800 65.600 C 64.800 66.091,60.933 66.400,54.800 66.400 C 48.667 66.400,44.800 66.709,44.800 67.200 C 44.800 67.674,41.867 68.000,37.600 68.000 L 30.400 68.000 30.400 156.400 C 30.400 214.800,30.671 244.800,31.200 244.800 C 31.640 244.800,32.000 246.420,32.000 248.400 C 32.000 250.380,32.360 252.000,32.800 252.000 C 33.240 252.000,33.600 253.080,33.600 254.400 C 33.600 255.720,33.960 256.800,34.400 256.800 C 34.840 256.800,35.200 257.880,35.200 259.200 C 35.200 260.520,35.560 261.600,36.000 261.600 C 36.440 261.600,36.800 262.680,36.800 264.000 C 36.800 265.320,37.160 266.400,37.600 266.400 C 38.040 266.400,38.400 267.480,38.400 268.800 C 38.400 270.120,38.760 271.200,39.200 271.200 C 39.640 271.200,40.000 271.920,40.000 272.800 C 40.000 273.680,40.360 274.400,40.800 274.400 C 41.240 274.400,41.600 275.120,41.600 276.000 C 41.600 276.880,41.960 277.600,42.400 277.600 C 42.840 277.600,43.200 278.320,43.200 279.200 C 43.200 280.080,43.560 280.800,44.000 280.800 C 44.440 280.800,44.800 281.340,44.800 282.000 C 44.800 282.660,45.160 283.200,45.600 283.200 C 46.040 283.200,46.400 283.841,46.400 284.623 C 46.400 285.406,47.120 286.566,48.000 287.200 C 48.880 287.834,49.600 288.950,49.600 289.679 C 49.600 290.408,50.140 291.452,50.800 292.000 C 51.460 292.548,52.000 293.592,52.000 294.321 C 52.000 295.050,52.720 296.166,53.600 296.800 C 54.480 297.434,55.200 298.449,55.200 299.056 C 55.200 299.662,56.280 301.167,57.600 302.400 C 58.920 303.633,60.000 305.050,60.000 305.549 C 60.000 306.047,62.520 308.926,65.600 311.945 C 68.680 314.965,71.200 317.658,71.200 317.929 C 71.200 318.546,84.612 332.000,85.227 332.000 C 85.475 332.000,88.162 334.520,91.200 337.600 C 94.238 340.680,97.128 343.200,97.624 343.200 C 98.120 343.200,99.909 344.640,101.600 346.400 C 103.291 348.160,105.226 349.600,105.901 349.600 C 106.575 349.600,108.027 350.500,109.127 351.600 C 110.227 352.700,111.604 353.600,112.187 353.600 C 112.770 353.600,113.766 354.320,114.400 355.200 C 115.034 356.080,115.973 356.800,116.487 356.800 C 117.000 356.800,118.270 357.877,119.310 359.193 C 120.349 360.509,121.751 361.589,122.423 361.593 C 123.096 361.597,124.166 362.320,124.800 363.200 C 125.434 364.080,126.514 364.800,127.200 364.800 C 127.886 364.800,128.966 365.520,129.600 366.400 C 130.234 367.280,131.394 368.000,132.177 368.000 C 132.959 368.000,133.600 368.360,133.600 368.800 C 133.600 369.240,134.241 369.600,135.023 369.600 C 135.806 369.600,136.966 370.320,137.600 371.200 C 138.234 372.080,139.394 372.800,140.177 372.800 C 140.959 372.800,141.600 373.160,141.600 373.600 C 141.600 374.040,142.241 374.400,143.023 374.400 C 143.806 374.400,144.966 375.120,145.600 376.000 C 146.234 376.880,147.394 377.600,148.177 377.600 C 148.959 377.600,149.600 377.893,149.600 378.251 C 149.600 378.609,150.877 379.403,152.439 380.015 C 154.000 380.628,155.664 381.595,156.136 382.164 C 156.609 382.734,157.672 383.200,158.498 383.200 C 159.324 383.200,160.000 383.560,160.000 384.000 C 160.000 384.440,160.720 384.800,161.600 384.800 C 162.480 384.800,163.200 385.160,163.200 385.600 C 163.200 386.040,163.920 386.400,164.800 386.400 C 165.680 386.400,166.400 386.760,166.400 387.200 C 166.400 387.640,167.120 388.000,168.000 388.000 C 168.880 388.000,169.600 388.360,169.600 388.800 C 169.600 389.240,170.320 389.600,171.200 389.600 C 172.080 389.600,172.800 389.960,172.800 390.400 C 172.800 390.840,173.520 391.200,174.400 391.200 C 175.280 391.200,176.000 391.560,176.000 392.000 C 176.000 392.440,176.720 392.800,177.600 392.800 C 178.480 392.800,179.200 393.160,179.200 393.600 C 179.200 394.040,179.920 394.400,180.800 394.400 C 181.680 394.400,182.400 394.760,182.400 395.200 C 182.400 395.640,182.940 396.000,183.600 396.000 C 184.260 396.000,184.800 396.360,184.800 396.800 C 184.800 397.240,185.490 397.600,186.333 397.600 C 187.177 397.600,188.017 398.050,188.200 398.600 C 188.446 399.338,191.538 399.600,200.000 399.600 C 208.462 399.600,211.554 399.338,211.800 398.600 C 211.983 398.050,212.823 397.600,213.667 397.600 C 214.510 397.600,215.200 397.240,215.200 396.800 C 215.200 396.360,215.740 396.000,216.400 396.000 C 217.060 396.000,217.600 395.640,217.600 395.200 C 217.600 394.760,218.320 394.400,219.200 394.400 C 220.080 394.400,220.800 394.040,220.800 393.600 C 220.800 393.160,221.520 392.800,222.400 392.800 C 223.280 392.800,224.000 392.440,224.000 392.000 C 224.000 391.560,224.720 391.200,225.600 391.200 C 226.480 391.200,227.200 390.840,227.200 390.400 C 227.200 389.960,227.920 389.600,228.800 389.600 C 229.680 389.600,230.400 389.240,230.400 388.800 C 230.400 388.360,231.120 388.000,232.000 388.000 C 232.880 388.000,233.600 387.640,233.600 387.200 C 233.600 386.760,234.320 386.400,235.200 386.400 C 236.080 386.400,236.800 386.040,236.800 385.600 C 236.800 385.160,237.520 384.800,238.400 384.800 C 239.280 384.800,240.000 384.440,240.000 384.000 C 240.000 383.560,240.676 383.200,241.502 383.200 C 242.328 383.200,243.391 382.734,243.864 382.164 C 244.336 381.595,246.000 380.628,247.561 380.015 C 249.123 379.403,250.400 378.609,250.400 378.251 C 250.400 377.893,251.041 377.600,251.823 377.600 C 252.606 377.600,253.766 376.880,254.400 376.000 C 255.034 375.120,256.194 374.400,256.977 374.400 C 257.759 374.400,258.400 374.040,258.400 373.600 C 258.400 373.160,259.041 372.800,259.823 372.800 C 260.606 372.800,261.766 372.080,262.400 371.200 C 263.034 370.320,264.194 369.600,264.977 369.600 C 265.759 369.600,266.400 369.240,266.400 368.800 C 266.400 368.360,267.041 368.000,267.823 368.000 C 268.606 368.000,269.766 367.280,270.400 366.400 C 271.034 365.520,272.114 364.800,272.800 364.800 C 273.486 364.800,274.566 364.080,275.200 363.200 C 275.834 362.320,276.849 361.600,277.456 361.600 C 278.062 361.600,279.567 360.520,280.800 359.200 C 282.033 357.880,283.358 356.800,283.744 356.800 C 284.131 356.800,284.966 356.080,285.600 355.200 C 286.234 354.320,287.230 353.600,287.813 353.600 C 288.396 353.600,289.773 352.700,290.873 351.600 C 291.973 350.500,293.425 349.600,294.099 349.600 C 294.774 349.600,296.709 348.160,298.400 346.400 C 300.091 344.640,301.880 343.200,302.376 343.200 C 302.872 343.200,305.762 340.680,308.800 337.600 C 311.838 334.520,314.880 332.000,315.561 332.000 C 316.243 332.000,316.800 331.646,316.800 331.213 C 316.800 330.780,319.500 327.726,322.800 324.426 C 326.100 321.126,328.800 318.223,328.800 317.974 C 328.800 317.726,331.320 315.038,334.400 312.000 C 337.480 308.962,340.000 306.064,340.000 305.560 C 340.000 305.055,341.080 303.633,342.400 302.400 C 343.720 301.167,344.800 299.662,344.800 299.056 C 344.800 298.449,345.520 297.434,346.400 296.800 C 347.280 296.166,348.000 295.006,348.000 294.223 C 348.000 293.441,348.353 292.800,348.785 292.800 C 349.216 292.800,349.814 291.810,350.113 290.600 C 350.411 289.390,351.318 287.818,352.128 287.106 C 352.938 286.395,353.600 285.225,353.600 284.506 C 353.600 283.788,353.960 283.200,354.400 283.200 C 354.840 283.200,355.200 282.660,355.200 282.000 C 355.200 281.340,355.560 280.800,356.000 280.800 C 356.440 280.800,356.800 280.080,356.800 279.200 C 356.800 278.320,357.160 277.600,357.600 277.600 C 358.040 277.600,358.400 276.880,358.400 276.000 C 358.400 275.120,358.760 274.400,359.200 274.400 C 359.640 274.400,360.000 273.680,360.000 272.800 C 360.000 271.920,360.360 271.200,360.800 271.200 C 361.240 271.200,361.600 270.120,361.600 268.800 C 361.600 267.480,361.960 266.400,362.400 266.400 C 362.840 266.400,363.200 265.320,363.200 264.000 C 363.200 262.680,363.560 261.600,364.000 261.600 C 364.440 261.600,364.800 260.520,364.800 259.200 C 364.800 257.880,365.160 256.800,365.600 256.800 C 366.040 256.800,366.400 255.720,366.400 254.400 C 366.400 253.080,366.760 252.000,367.200 252.000 C 367.640 252.000,368.000 250.380,368.000 248.400 C 368.000 246.420,368.360 244.800,368.800 244.800 C 369.329 244.800,369.600 213.733,369.600 153.200 L 369.600 61.600 362.400 61.600 C 358.133 61.600,355.200 61.274,355.200 60.800 C 355.200 60.303,350.800 60.000,343.600 60.000 C 336.400 60.000,332.000 59.697,332.000 59.200 C 332.000 58.743,329.600 58.400,326.400 58.400 C 323.200 58.400,320.800 58.057,320.800 57.600 C 320.800 57.160,318.841 56.800,316.447 56.800 C 314.053 56.800,311.872 56.440,311.600 56.000 C 311.328 55.560,309.507 55.200,307.553 55.200 C 305.599 55.200,304.000 54.840,304.000 54.400 C 304.000 53.960,302.560 53.600,300.800 53.600 C 299.040 53.600,297.600 53.240,297.600 52.800 C 297.600 52.360,296.181 52.000,294.447 52.000 C 292.713 52.000,291.082 51.657,290.823 51.237 C 290.563 50.817,288.202 50.231,285.576 49.934 C 282.949 49.636,280.800 49.080,280.800 48.697 C 280.800 48.314,279.720 48.000,278.400 48.000 C 277.080 48.000,276.000 47.640,276.000 47.200 C 276.000 46.760,274.920 46.400,273.600 46.400 C 272.280 46.400,271.200 46.040,271.200 45.600 C 271.200 45.160,270.120 44.800,268.800 44.800 C 267.480 44.800,266.400 44.440,266.400 44.000 C 266.400 43.560,265.680 43.200,264.800 43.200 C 263.920 43.200,263.200 42.840,263.200 42.400 C 263.200 41.960,262.120 41.600,260.800 41.600 C 259.480 41.600,258.400 41.240,258.400 40.800 C 258.400 40.360,257.680 40.000,256.800 40.000 C 255.920 40.000,255.200 39.640,255.200 39.200 C 255.200 38.760,254.480 38.400,253.600 38.400 C 252.720 38.400,252.000 38.040,252.000 37.600 C 252.000 37.160,251.460 36.800,250.800 36.800 C 250.140 36.800,249.600 36.440,249.600 36.000 C 249.600 35.560,248.880 35.200,248.000 35.200 C 247.120 35.200,246.400 34.840,246.400 34.400 C 246.400 33.960,245.680 33.600,244.800 33.600 C 243.920 33.600,243.200 33.240,243.200 32.800 C 243.200 32.360,242.480 32.000,241.600 32.000 C 240.720 32.000,240.000 31.640,240.000 31.200 C 240.000 30.760,239.359 30.400,238.577 30.400 C 237.794 30.400,236.634 29.680,236.000 28.800 C 235.366 27.920,234.206 27.200,233.423 27.200 C 232.641 27.200,232.000 26.840,232.000 26.400 C 232.000 25.960,231.424 25.600,230.721 25.600 C 230.018 25.600,228.433 24.520,227.200 23.200 C 225.967 21.880,224.546 20.800,224.043 20.800 C 223.252 20.800,221.083 19.073,218.228 16.172 C 217.792 15.728,214.047 11.908,209.907 7.683 C 200.080 -2.346,199.919 -2.354,191.011 6.779 M204.000 42.400 C 205.233 43.720,206.673 44.800,207.200 44.800 C 207.727 44.800,209.124 45.834,210.305 47.098 C 211.486 48.362,213.540 49.635,214.870 49.928 C 216.201 50.220,217.799 51.166,218.421 52.029 C 219.044 52.893,220.194 53.600,220.977 53.600 C 221.759 53.600,222.400 53.960,222.400 54.400 C 222.400 54.840,223.041 55.200,223.823 55.200 C 224.606 55.200,225.766 55.920,226.400 56.800 C 227.034 57.680,228.194 58.400,228.977 58.400 C 229.759 58.400,230.400 58.760,230.400 59.200 C 230.400 59.640,231.120 60.000,232.000 60.000 C 232.880 60.000,233.600 60.360,233.600 60.800 C 233.600 61.240,234.320 61.600,235.200 61.600 C 236.080 61.600,236.800 61.960,236.800 62.400 C 236.800 62.840,237.880 63.200,239.200 63.200 C 240.520 63.200,241.600 63.560,241.600 64.000 C 241.600 64.440,242.320 64.800,243.200 64.800 C 244.080 64.800,244.800 65.160,244.800 65.600 C 244.800 66.040,245.520 66.400,246.400 66.400 C 247.280 66.400,248.000 66.760,248.000 67.200 C 248.000 67.640,248.900 68.000,250.000 68.000 C 251.100 68.000,252.000 68.360,252.000 68.800 C 252.000 69.240,252.720 69.600,253.600 69.600 C 254.480 69.600,255.200 69.960,255.200 70.400 C 255.200 70.840,256.280 71.200,257.600 71.200 C 258.920 71.200,260.000 71.560,260.000 72.000 C 260.000 72.440,261.080 72.800,262.400 72.800 C 263.720 72.800,264.800 73.160,264.800 73.600 C 264.800 74.040,265.880 74.400,267.200 74.400 C 268.520 74.400,269.600 74.760,269.600 75.200 C 269.600 75.640,270.680 76.000,272.000 76.000 C 273.320 76.000,274.400 76.360,274.400 76.800 C 274.400 77.240,275.840 77.600,277.600 77.600 C 279.360 77.600,280.800 77.960,280.800 78.400 C 280.800 78.840,282.039 79.200,283.553 79.200 C 285.067 79.200,286.528 79.560,286.800 80.000 C 287.072 80.440,288.461 80.800,289.887 80.800 C 291.313 80.800,292.824 81.144,293.245 81.565 C 293.666 81.986,296.978 82.578,300.605 82.880 C 304.232 83.183,307.200 83.738,307.200 84.115 C 307.200 84.492,309.360 84.800,312.000 84.800 C 314.667 84.800,316.800 85.156,316.800 85.600 C 316.800 86.062,319.333 86.400,322.800 86.400 C 326.267 86.400,328.800 86.738,328.800 87.200 C 328.800 87.674,331.733 88.000,336.000 88.000 L 343.200 88.000 343.200 156.800 C 343.200 202.133,342.927 225.600,342.400 225.600 C 341.926 225.600,341.600 228.533,341.600 232.800 C 341.600 237.067,341.274 240.000,340.800 240.000 C 340.360 240.000,340.000 241.440,340.000 243.200 C 340.000 244.960,339.640 246.400,339.200 246.400 C 338.760 246.400,338.400 247.279,338.400 248.353 C 338.400 249.427,338.040 250.528,337.600 250.800 C 337.160 251.072,336.800 252.173,336.800 253.247 C 336.800 254.321,336.440 255.200,336.000 255.200 C 335.560 255.200,335.200 255.920,335.200 256.800 C 335.200 257.680,334.840 258.400,334.400 258.400 C 333.960 258.400,333.600 259.120,333.600 260.000 C 333.600 260.880,333.240 261.600,332.800 261.600 C 332.360 261.600,332.000 262.320,332.000 263.200 C 332.000 264.080,331.640 264.800,331.200 264.800 C 330.760 264.800,330.400 265.520,330.400 266.400 C 330.400 267.280,330.040 268.000,329.600 268.000 C 329.160 268.000,328.800 268.720,328.800 269.600 C 328.800 270.480,328.440 271.200,328.000 271.200 C 327.560 271.200,327.200 271.841,327.200 272.623 C 327.200 273.406,326.480 274.566,325.600 275.200 C 324.720 275.834,324.000 276.849,324.000 277.456 C 324.000 278.062,322.920 279.567,321.600 280.800 C 320.280 282.033,319.200 283.351,319.200 283.729 C 319.200 284.107,318.300 285.387,317.200 286.573 C 316.100 287.760,315.200 289.109,315.200 289.571 C 315.200 290.817,288.993 316.800,287.736 316.800 C 287.144 316.800,285.252 318.410,283.530 320.378 C 281.809 322.346,279.914 323.966,279.321 323.978 C 278.728 323.990,277.233 325.080,276.000 326.400 C 274.767 327.720,273.327 328.800,272.800 328.800 C 272.273 328.800,270.833 329.880,269.600 331.200 C 268.367 332.520,266.862 333.600,266.256 333.600 C 265.649 333.600,264.634 334.320,264.000 335.200 C 263.366 336.080,262.286 336.800,261.600 336.800 C 260.914 336.800,259.834 337.520,259.200 338.400 C 258.566 339.280,257.486 340.000,256.800 340.000 C 256.114 340.000,255.034 340.720,254.400 341.600 C 253.766 342.480,252.631 343.200,251.877 343.200 C 251.124 343.200,250.279 343.920,250.000 344.800 C 249.721 345.680,248.796 346.400,247.946 346.400 C 247.096 346.400,246.400 346.760,246.400 347.200 C 246.400 347.640,245.680 348.000,244.800 348.000 C 243.920 348.000,243.200 348.291,243.200 348.646 C 243.200 349.308,237.667 352.000,236.308 352.000 C 235.893 352.000,235.034 352.720,234.400 353.600 C 233.766 354.480,232.606 355.200,231.823 355.200 C 231.041 355.200,230.400 355.560,230.400 356.000 C 230.400 356.440,229.680 356.800,228.800 356.800 C 227.920 356.800,227.200 357.160,227.200 357.600 C 227.200 358.040,226.480 358.400,225.600 358.400 C 224.720 358.400,223.999 358.670,223.997 359.000 C 223.996 359.330,222.017 360.500,219.600 361.600 C 217.183 362.700,215.204 363.870,215.203 364.200 C 215.201 364.530,214.480 364.800,213.600 364.800 C 212.720 364.800,212.000 365.160,212.000 365.600 C 212.000 366.040,211.280 366.400,210.400 366.400 C 209.520 366.400,208.800 366.760,208.800 367.200 C 208.800 367.640,208.080 368.000,207.200 368.000 C 206.320 368.000,205.600 368.360,205.600 368.800 C 205.600 369.240,204.880 369.600,204.000 369.600 C 203.120 369.600,202.400 369.960,202.400 370.400 C 202.400 370.840,201.320 371.200,200.000 371.200 C 198.680 371.200,197.600 370.840,197.600 370.400 C 197.600 369.960,196.880 369.600,196.000 369.600 C 195.120 369.600,194.400 369.240,194.400 368.800 C 194.400 368.360,193.680 368.000,192.800 368.000 C 191.920 368.000,191.200 367.640,191.200 367.200 C 191.200 366.760,190.480 366.400,189.600 366.400 C 188.720 366.400,188.000 366.040,188.000 365.600 C 188.000 365.160,187.280 364.800,186.400 364.800 C 185.520 364.800,184.800 364.507,184.800 364.149 C 184.800 363.791,183.540 363.004,182.000 362.400 C 180.460 361.796,179.200 361.009,179.200 360.651 C 179.200 360.293,178.480 360.000,177.600 360.000 C 176.720 360.000,176.000 359.640,176.000 359.200 C 176.000 358.760,175.280 358.400,174.400 358.400 C 173.520 358.400,172.800 358.040,172.800 357.600 C 172.800 357.160,172.080 356.800,171.200 356.800 C 170.320 356.800,169.600 356.440,169.600 356.000 C 169.600 355.560,168.959 355.200,168.177 355.200 C 167.394 355.200,166.234 354.480,165.600 353.600 C 164.966 352.720,164.107 352.000,163.692 352.000 C 162.333 352.000,156.800 349.308,156.800 348.646 C 156.800 348.291,156.080 348.000,155.200 348.000 C 154.320 348.000,153.600 347.640,153.600 347.200 C 153.600 346.760,152.904 346.400,152.054 346.400 C 151.204 346.400,150.279 345.680,150.000 344.800 C 149.721 343.920,148.876 343.200,148.123 343.200 C 147.369 343.200,146.234 342.480,145.600 341.600 C 144.966 340.720,143.886 340.000,143.200 340.000 C 142.514 340.000,141.434 339.280,140.800 338.400 C 140.166 337.520,139.086 336.800,138.400 336.800 C 137.714 336.800,136.634 336.080,136.000 335.200 C 135.366 334.320,134.351 333.600,133.744 333.600 C 133.138 333.600,131.633 332.520,130.400 331.200 C 129.167 329.880,127.727 328.800,127.200 328.800 C 126.673 328.800,125.233 327.720,124.000 326.400 C 122.767 325.080,121.330 324.000,120.806 324.000 C 120.282 324.000,118.404 322.380,116.632 320.400 C 114.859 318.420,112.910 316.800,112.299 316.800 C 111.019 316.800,84.800 290.839,84.800 289.571 C 84.800 289.109,83.900 287.760,82.800 286.573 C 81.700 285.387,80.800 284.107,80.800 283.729 C 80.800 283.351,79.720 282.033,78.400 280.800 C 77.080 279.567,76.000 278.062,76.000 277.456 C 76.000 276.849,75.280 275.834,74.400 275.200 C 73.520 274.566,72.800 273.406,72.800 272.623 C 72.800 271.841,72.440 271.200,72.000 271.200 C 71.560 271.200,71.200 270.480,71.200 269.600 C 71.200 268.720,70.840 268.000,70.400 268.000 C 69.960 268.000,69.600 267.280,69.600 266.400 C 69.600 265.520,69.240 264.800,68.800 264.800 C 68.360 264.800,68.000 264.080,68.000 263.200 C 68.000 262.320,67.640 261.600,67.200 261.600 C 66.760 261.600,66.400 260.880,66.400 260.000 C 66.400 259.120,66.040 258.400,65.600 258.400 C 65.160 258.400,64.800 257.680,64.800 256.800 C 64.800 255.920,64.440 255.200,64.000 255.200 C 63.560 255.200,63.200 254.321,63.200 253.247 C 63.200 252.173,62.840 251.072,62.400 250.800 C 61.960 250.528,61.600 249.427,61.600 248.353 C 61.600 247.279,61.240 246.400,60.800 246.400 C 60.360 246.400,60.000 244.960,60.000 243.200 C 60.000 241.440,59.640 240.000,59.200 240.000 C 58.720 240.000,58.400 236.800,58.400 232.000 C 58.400 227.200,58.080 224.000,57.600 224.000 C 57.073 224.000,56.800 201.867,56.800 159.200 L 56.800 94.400 62.400 94.400 C 65.600 94.400,68.000 94.057,68.000 93.600 C 68.000 93.143,70.400 92.800,73.600 92.800 C 76.800 92.800,79.200 92.457,79.200 92.000 C 79.200 91.560,81.180 91.200,83.600 91.200 C 86.020 91.200,88.000 90.840,88.000 90.400 C 88.000 89.960,89.440 89.600,91.200 89.600 C 92.960 89.600,94.400 89.240,94.400 88.800 C 94.400 88.360,95.840 88.000,97.600 88.000 C 99.360 88.000,100.800 87.640,100.800 87.200 C 100.800 86.760,102.240 86.400,104.000 86.400 C 105.760 86.400,107.200 86.040,107.200 85.600 C 107.200 85.160,108.280 84.800,109.600 84.800 C 110.920 84.800,112.000 84.481,112.000 84.092 C 112.000 83.703,113.980 83.137,116.400 82.835 C 118.820 82.532,120.800 81.951,120.800 81.542 C 120.800 81.134,121.880 80.800,123.200 80.800 C 124.520 80.800,125.600 80.440,125.600 80.000 C 125.600 79.560,126.680 79.200,128.000 79.200 C 129.320 79.200,130.400 78.840,130.400 78.400 C 130.400 77.960,131.120 77.600,132.000 77.600 C 132.880 77.600,133.600 77.240,133.600 76.800 C 133.600 76.360,134.680 76.000,136.000 76.000 C 137.320 76.000,138.400 75.640,138.400 75.200 C 138.400 74.760,139.120 74.400,140.000 74.400 C 140.880 74.400,141.600 74.040,141.600 73.600 C 141.600 73.160,142.320 72.800,143.200 72.800 C 144.080 72.800,144.800 72.440,144.800 72.000 C 144.800 71.560,145.880 71.200,147.200 71.200 C 148.520 71.200,149.600 70.840,149.600 70.400 C 149.600 69.960,150.140 69.600,150.800 69.600 C 151.460 69.600,152.000 69.240,152.000 68.800 C 152.000 68.360,152.720 68.000,153.600 68.000 C 154.480 68.000,155.200 67.640,155.200 67.200 C 155.200 66.760,155.920 66.400,156.800 66.400 C 157.680 66.400,158.400 66.040,158.400 65.600 C 158.400 65.160,159.120 64.800,160.000 64.800 C 160.880 64.800,161.600 64.440,161.600 64.000 C 161.600 63.560,162.241 63.200,163.023 63.200 C 163.806 63.200,164.966 62.480,165.600 61.600 C 166.234 60.720,167.394 60.000,168.177 60.000 C 168.959 60.000,169.600 59.640,169.600 59.200 C 169.600 58.760,170.320 58.400,171.200 58.400 C 172.080 58.400,172.800 58.040,172.800 57.600 C 172.800 57.160,173.441 56.800,174.223 56.800 C 175.006 56.800,176.166 56.080,176.800 55.200 C 177.434 54.320,178.462 53.600,179.083 53.600 C 179.704 53.600,180.795 52.931,181.506 52.114 C 182.218 51.297,183.610 50.373,184.600 50.061 C 185.590 49.748,186.400 49.156,186.400 48.746 C 186.400 48.336,186.976 48.000,187.679 48.000 C 188.382 48.000,189.967 46.920,191.200 45.600 C 192.433 44.280,193.938 43.200,194.544 43.200 C 195.151 43.200,196.166 42.480,196.800 41.600 C 198.466 39.289,201.398 39.615,204.000 42.400 M225.783 184.431 L 168.767 241.551 149.232 221.975 C 126.909 199.606,128.280 200.328,121.561 207.400 C 118.949 210.150,115.782 213.480,114.524 214.800 C 113.266 216.120,111.463 217.729,110.518 218.377 C 106.653 221.023,108.116 223.108,126.999 241.858 C 131.508 246.336,138.528 253.310,142.599 257.356 C 146.670 261.401,153.780 268.670,158.400 273.509 C 168.886 284.491,168.746 284.473,176.800 275.930 C 180.100 272.430,187.210 265.164,192.599 259.783 C 197.989 254.402,205.729 246.669,209.799 242.598 C 213.870 238.527,221.250 231.147,226.200 226.198 C 231.150 221.249,238.530 213.869,242.600 209.798 C 249.578 202.818,261.716 190.680,276.198 176.198 C 279.718 172.678,287.057 165.253,292.507 159.699 C 297.957 154.145,302.772 149.600,303.208 149.600 C 303.644 149.600,304.000 148.696,304.000 147.591 C 304.000 145.171,286.477 127.166,284.209 127.255 C 283.434 127.286,257.142 153.015,225.783 184.431 " stroke="none" fill="#6277ee" fill-rule="evenodd"></path><path id="path3" d="" stroke="none" fill="#000080" fill-rule="evenodd"></path><path id="path4" d="" stroke="none" fill="#0000ff" fill-rule="evenodd"></path></g></svg>