<svg id="svg" version="1.1" width="500" height="834" xmlns="http://www.w3.org/2000/svg" xmlns:xlink="http://www.w3.org/1999/xlink" style="display: block;"><g id="svgg"><path id="path0" d="M80.400 23.737 C 61.018 27.996,46.272 40.886,39.829 59.200 L 38.000 64.400 38.000 339.600 C 38.000 613.032,38.010 614.828,39.604 619.200 C 45.579 635.590,58.361 648.338,73.670 653.174 L 80.083 655.200 211.441 655.191 C 355.592 655.180,346.091 655.499,356.764 650.315 C 370.153 643.812,381.570 629.806,384.735 616.000 C 386.145 609.852,385.879 67.121,384.464 61.805 C 379.695 43.891,364.922 29.435,346.595 24.748 C 340.900 23.291,86.820 22.326,80.400 23.737 M349.436 28.164 C 367.096 34.712,379.698 49.392,382.855 67.096 C 384.476 76.184,384.477 602.265,382.856 611.200 C 379.240 631.126,365.745 645.982,346.000 651.773 C 339.305 653.736,94.344 654.407,82.463 652.495 C 64.205 649.556,49.670 637.496,42.509 619.345 L 40.400 614.000 40.173 342.800 C 40.017 156.930,40.208 70.054,40.781 66.687 C 44.104 47.148,59.622 31.192,79.600 26.773 C 83.496 25.911,108.818 25.738,214.000 25.855 L 343.600 26.000 349.436 28.164 M174.578 42.845 C 173.259 43.769,172.800 44.894,172.800 47.200 C 172.800 52.945,171.792 52.800,211.814 52.800 L 247.273 52.800 249.236 50.836 C 250.316 49.756,251.200 48.120,251.200 47.200 C 251.200 46.280,250.316 44.644,249.236 43.564 L 247.273 41.600 211.814 41.600 C 181.017 41.600,176.122 41.764,174.578 42.845 M248.640 44.960 C 250.128 46.448,249.778 48.584,247.822 49.955 C 245.363 51.677,178.057 51.800,175.800 50.086 C 174.188 48.862,173.919 45.127,175.400 44.530 C 177.737 43.587,247.677 43.997,248.640 44.960 M81.135 68.771 C 80.219 69.144,78.509 70.590,77.335 71.986 L 75.200 74.523 75.200 322.400 L 75.200 570.277 77.363 572.847 C 81.624 577.911,72.804 577.600,212.000 577.600 C 350.980 577.600,342.781 577.883,346.281 572.967 L 348.000 570.553 348.000 322.246 L 348.000 73.940 345.688 71.170 L 343.375 68.400 213.088 68.247 C 141.429 68.163,82.051 68.399,81.135 68.771 M343.572 72.083 L 346.400 74.566 346.382 322.283 C 346.365 555.782,346.285 570.098,344.982 571.706 C 342.067 575.305,346.095 575.200,211.173 575.200 L 82.240 575.200 79.520 572.480 L 76.800 569.760 76.803 323.080 C 76.806 77.705,76.814 76.386,78.408 73.772 C 80.971 69.569,76.581 69.704,212.172 69.651 L 340.744 69.600 343.572 72.083 " stroke="none" fill="#000000" fill-rule="evenodd"></path><path id="path1" d="M147.800 70.200 C 183.110 70.315,240.890 70.315,276.200 70.200 C 311.510 70.085,282.620 69.990,212.000 69.990 C 141.380 69.990,112.490 70.085,147.800 70.200 M74.795 322.400 C 74.795 458.140,74.887 513.670,75.000 445.800 C 75.113 377.930,75.113 266.870,75.000 199.000 C 74.887 131.130,74.795 186.660,74.795 322.400 M77.195 322.800 C 77.195 458.320,77.287 513.879,77.400 446.265 C 77.513 378.650,77.513 267.770,77.400 199.865 C 77.287 131.959,77.195 187.280,77.195 322.800 M197.947 623.800 C 198.060 624.570,198.658 625.216,199.276 625.236 C 199.894 625.256,200.330 625.646,200.244 626.103 C 200.159 626.560,200.619 626.933,201.266 626.933 C 202.069 626.933,201.753 626.212,200.272 624.667 C 197.716 621.999,197.681 621.986,197.947 623.800 " stroke="none" fill="#8d8d8d" fill-rule="evenodd"></path><path id="path2" d="M175.665 45.249 C 174.111 46.803,174.050 48.313,175.492 49.510 C 177.540 51.210,247.212 50.339,248.309 48.600 C 248.953 47.579,248.953 46.821,248.309 45.800 C 247.015 43.748,177.692 43.222,175.665 45.249 M79.938 72.738 L 77.600 75.077 77.600 322.326 L 77.600 569.575 79.934 572.187 L 82.269 574.800 210.343 575.007 C 352.321 575.237,342.919 575.582,345.229 570.054 C 346.680 566.582,347.025 81.084,345.581 75.882 C 343.926 69.925,355.546 70.400,211.567 70.400 L 82.277 70.400 79.938 72.738 M204.357 598.000 C 194.614 602.926,192.121 615.368,199.253 623.471 C 208.500 633.976,224.635 630.094,228.047 616.543 C 231.432 603.100,216.849 591.686,204.357 598.000 " stroke="none" fill="#fafafa" fill-rule="evenodd"></path><path id="path3" d="M147.863 26.200 C 183.208 26.315,240.808 26.315,275.863 26.200 C 310.918 26.085,282.000 25.990,211.600 25.990 C 141.200 25.990,112.518 26.085,147.863 26.200 M172.186 47.200 C 172.186 48.740,172.350 49.370,172.551 48.600 C 172.753 47.830,172.753 46.570,172.551 45.800 C 172.350 45.030,172.186 45.660,172.186 47.200 M194.254 50.999 C 204.074 51.127,219.914 51.127,229.454 50.999 C 238.994 50.871,230.960 50.767,211.600 50.767 C 192.240 50.768,184.434 50.872,194.254 50.999 M147.463 67.800 C 183.028 67.915,240.988 67.915,276.263 67.800 C 311.538 67.685,282.440 67.590,211.600 67.590 C 140.760 67.590,111.898 67.685,147.463 67.800 M383.595 339.200 C 383.595 486.380,383.687 546.590,383.800 473.000 C 383.913 399.410,383.913 278.990,383.800 205.400 C 383.687 131.810,383.595 192.020,383.595 339.200 M348.395 322.400 C 348.395 458.580,348.487 514.290,348.600 446.200 C 348.713 378.110,348.713 266.690,348.600 198.600 C 348.487 130.510,348.395 186.220,348.395 322.400 M208.400 595.675 C 212.148 596.278,217.418 596.353,217.076 595.800 C 216.872 595.470,214.477 595.249,211.753 595.309 C 209.029 595.369,207.520 595.534,208.400 595.675 M222.400 598.898 C 222.400 599.309,223.120 600.261,224.000 601.014 C 224.880 601.768,225.600 602.084,225.600 601.716 C 225.600 601.349,224.880 600.396,224.000 599.600 C 223.120 598.804,222.400 598.488,222.400 598.898 M228.400 612.800 C 228.400 615.440,228.670 617.600,229.000 617.600 C 229.330 617.600,229.600 615.440,229.600 612.800 C 229.600 610.160,229.330 608.000,229.000 608.000 C 228.670 608.000,228.400 610.160,228.400 612.800 M193.600 612.800 C 193.600 614.560,193.878 616.000,194.218 616.000 C 194.558 616.000,194.836 614.560,194.836 612.800 C 194.836 611.040,194.558 609.600,194.218 609.600 C 193.878 609.600,193.600 611.040,193.600 612.800 M194.968 619.200 C 195.198 620.080,195.671 620.800,196.018 620.800 C 196.366 620.800,196.462 620.080,196.232 619.200 C 196.002 618.320,195.529 617.600,195.182 617.600 C 194.834 617.600,194.738 618.320,194.968 619.200 M223.600 624.800 C 222.799 625.685,222.323 626.590,222.543 626.810 C 222.763 627.030,223.599 626.485,224.400 625.600 C 225.201 624.715,225.677 623.810,225.457 623.590 C 225.237 623.370,224.401 623.915,223.600 624.800 M202.847 628.375 C 203.701 629.021,204.940 629.548,205.600 629.546 C 206.296 629.545,205.960 629.063,204.800 628.400 C 202.171 626.897,200.871 626.880,202.847 628.375 M368.362 638.600 L 365.200 642.000 368.600 638.838 C 370.470 637.098,372.000 635.568,372.000 635.438 C 372.000 634.832,371.303 635.438,368.362 638.600 M148.937 653.400 C 183.112 653.515,239.272 653.515,273.737 653.400 C 308.202 653.285,280.240 653.190,211.600 653.190 C 142.960 653.190,114.762 653.284,148.937 653.400 " stroke="none" fill="#232a60" fill-rule="evenodd"></path><path id="path4" d="M79.600 27.211 C 58.750 31.441,43.308 48.890,40.804 71.050 C 39.099 86.127,40.085 609.730,41.829 615.600 C 47.376 634.273,61.631 647.761,79.852 651.575 C 87.046 653.081,333.526 653.457,342.053 651.975 C 361.849 648.535,377.752 633.136,382.098 613.200 C 383.753 605.604,383.688 73.624,382.030 65.743 C 378.475 48.845,367.588 36.078,350.800 29.121 L 345.200 26.800 214.000 26.681 C 141.840 26.615,81.360 26.853,79.600 27.211 M249.422 42.845 C 253.034 45.375,251.197 52.360,246.800 52.818 C 235.751 53.967,175.025 52.625,173.600 51.200 C 171.506 49.106,171.566 45.765,173.739 43.452 L 175.479 41.600 211.561 41.600 C 242.924 41.600,247.877 41.763,249.422 42.845 M343.163 68.875 C 344.803 69.797,346.742 71.562,347.472 72.799 C 348.702 74.880,348.800 93.377,348.800 322.429 L 348.800 569.811 347.123 572.525 C 343.743 577.993,354.233 577.600,211.758 577.600 L 82.637 577.600 79.918 575.784 C 73.835 571.720,74.375 597.506,74.599 321.600 L 74.800 74.800 76.717 72.112 C 80.407 66.938,71.329 67.266,211.891 67.231 L 340.182 67.200 343.163 68.875 M221.004 597.557 C 236.474 607.368,229.778 630.579,211.464 630.619 C 199.353 630.646,190.896 618.620,194.855 607.001 C 198.429 596.512,211.763 591.697,221.004 597.557 " stroke="none" fill="#6277ee" fill-rule="evenodd"></path></g></svg>