<?xml version="1.0" encoding="iso-8859-1"?>
<!-- Generator: Adobe Illustrator 19.0.0, SVG Export Plug-In . SVG Version: 6.00 Build 0)  -->
<svg xmlns="http://www.w3.org/2000/svg" xmlns:xlink="http://www.w3.org/1999/xlink" version="1.1" id="Capa_1" x="0px" y="0px" viewBox="0 0 490 490" style="enable-background:new 0 0 490 490;" xml:space="preserve" width="512px" height="512px">
<g id="Business_1_Bold_15_">
	<path d="M137.812,490h214.375c16.844,0,30.625-13.781,30.625-30.625V30.625C382.813,13.781,369.031,0,352.187,0H137.812   c-16.844,0-30.625,13.781-30.625,30.625v428.75C107.188,476.219,120.969,490,137.812,490z M137.812,459.375v-45.937h214.375v45.937   H137.812z M352.187,51.481v331.332H137.812V51.481H352.187z" fill="#6cacd9"/>
	<circle cx="245" cy="436.376" r="17.87" fill="#6cacd9"/>
	<path d="M235.215,219.535v52.843c-4.533-2.19-8.652-5.727-12.357-10.596c-3.706-4.869-6.217-10.673-7.564-17.41l-32.922,3.537   c2.527,16.553,8.33,29.385,17.41,38.465c9.096,9.08,20.886,14.501,35.433,16.262v22.953h18.283v-23.581   c16.4-2.358,29.201-8.743,38.404-19.171c9.218-10.428,13.812-23.26,13.812-38.48c0-13.613-3.66-24.776-10.979-33.488   c-7.319-8.713-21.055-15.772-41.236-21.254v-49.291c8.161,3.537,13.199,10.259,15.129,20.182l31.911-4.15   c-2.19-12.618-7.227-22.678-15.129-30.212c-7.901-7.534-18.543-12.097-31.911-13.689v-12.48h-18.283v12.48   c-14.455,1.424-26.031,6.829-34.744,16.201c-8.713,9.371-13.062,20.963-13.062,34.744c0,13.613,3.844,25.204,11.53,34.744   C206.658,207.699,218.739,214.819,235.215,219.535z M253.514,224.956c7.564,2.19,13.016,5.313,16.323,9.387   c3.338,4.089,4.992,8.927,4.992,14.562c0,6.309-1.991,11.806-5.941,16.461c-3.951,4.655-9.08,7.58-15.389,8.759v-49.169H253.514z    M223.363,148.531c2.94-4.042,6.891-6.891,11.852-8.575v43.641c-5.451-2.343-9.54-5.436-12.235-9.264   c-2.695-3.813-4.043-7.963-4.043-12.418C218.953,157.014,220.439,152.559,223.363,148.531z" fill="#6cacd9"/>
</g>
<g>
</g>
<g>
</g>
<g>
</g>
<g>
</g>
<g>
</g>
<g>
</g>
<g>
</g>
<g>
</g>
<g>
</g>
<g>
</g>
<g>
</g>
<g>
</g>
<g>
</g>
<g>
</g>
<g>
</g>
</svg>
