<?xml version="1.0" encoding="iso-8859-1"?>
<!-- Generator: Adobe Illustrator 19.0.0, SVG Export Plug-In . SVG Version: 6.00 Build 0)  -->
<svg xmlns="http://www.w3.org/2000/svg" xmlns:xlink="http://www.w3.org/1999/xlink" version="1.1" id="Layer_1" x="0px" y="0px" viewBox="0 0 511.998 511.998" style="enable-background:new 0 0 511.998 511.998;" xml:space="preserve" width="512px" height="512px">
<g>
	<g>
		<path d="M472.193,239.197c-0.121-0.787-0.26-1.57-0.39-2.355c-0.114-0.691-0.222-1.384-0.342-2.074    c-0.154-0.879-0.323-1.753-0.488-2.629c-0.134-0.712-0.262-1.425-0.402-2.135c-0.167-0.844-0.349-1.683-0.527-2.524    c-0.155-0.738-0.305-1.478-0.469-2.213c-0.181-0.814-0.376-1.625-0.565-2.436c-0.177-0.755-0.348-1.512-0.532-2.265    c-0.193-0.788-0.401-1.571-0.602-2.356c-0.199-0.773-0.392-1.548-0.599-2.318c-0.204-0.757-0.421-1.51-0.632-2.264    c-0.222-0.792-0.438-1.585-0.67-2.375c-0.213-0.729-0.44-1.455-0.662-2.182c-0.246-0.808-0.487-1.618-0.741-2.422    c-0.224-0.706-0.461-1.408-0.693-2.112c-0.268-0.818-0.532-1.638-0.81-2.453c-0.233-0.683-0.479-1.36-0.719-2.04    c-0.293-0.831-0.582-1.664-0.884-2.491c-0.241-0.659-0.495-1.312-0.743-1.969c-0.317-0.84-0.629-1.682-0.956-2.518    c-0.252-0.643-0.516-1.281-0.774-1.92c-0.339-0.843-0.674-1.688-1.024-2.527c-0.26-0.622-0.532-1.24-0.797-1.859    c-0.364-0.85-0.723-1.702-1.097-2.547c-0.267-0.604-0.547-1.202-0.821-1.804c-0.387-0.853-0.77-1.708-1.169-2.556    c-0.278-0.591-0.568-1.177-0.851-1.766c-0.408-0.85-0.813-1.703-1.232-2.547c-0.291-0.585-0.593-1.163-0.889-1.746    c-0.428-0.841-0.85-1.683-1.288-2.519c-0.302-0.575-0.616-1.145-0.923-1.718c-0.447-0.836-0.891-1.673-1.348-2.502    c-0.313-0.568-0.64-1.129-0.957-1.693c-0.465-0.825-0.926-1.652-1.402-2.472c-0.334-0.574-0.68-1.141-1.018-1.711    c-0.476-0.802-0.948-1.607-1.435-2.404c-0.349-0.572-0.711-1.136-1.066-1.706c-0.491-0.786-0.977-1.577-1.478-2.356    c-0.366-0.57-0.744-1.133-1.115-1.7c-0.504-0.77-1.004-1.543-1.518-2.308c-0.381-0.567-0.774-1.125-1.161-1.689    c-0.519-0.756-1.033-1.514-1.561-2.265c-0.398-0.565-0.81-1.123-1.215-1.686c-0.53-0.737-1.054-1.477-1.594-2.207    c-0.423-0.573-0.858-1.136-1.287-1.705c-0.535-0.711-1.065-1.425-1.609-2.129c-0.452-0.585-0.917-1.161-1.375-1.741    c-0.534-0.677-1.062-1.358-1.605-2.029c-0.495-0.614-1.005-1.217-1.508-1.826c-0.519-0.629-1.032-1.262-1.558-1.885    c-0.518-0.613-1.049-1.215-1.573-1.822c-0.527-0.61-1.047-1.223-1.58-1.828c-0.543-0.614-1.099-1.217-1.648-1.826    c-0.529-0.585-1.05-1.175-1.585-1.755c-0.598-0.647-1.209-1.284-1.816-1.924c-0.501-0.53-0.995-1.065-1.501-1.591    c-0.653-0.676-1.32-1.341-1.982-2.01c-0.474-0.478-0.94-0.963-1.418-1.437c-0.755-0.748-1.524-1.484-2.291-2.222    c-0.397-0.383-0.788-0.773-1.189-1.154c-0.885-0.839-1.785-1.665-2.685-2.491c-0.294-0.27-0.583-0.546-0.879-0.815    c-1.201-1.09-2.416-2.168-3.642-3.233c-33.557-29.124-75.072-47.196-118.898-52.114V23.922C280.405,10.731,269.674,0,256.483,0    h-0.99c-13.19,0-23.922,10.731-23.922,23.922v31.401c-43.826,4.918-85.341,22.991-118.898,52.114    c-39.337,34.138-65.257,81.157-72.984,132.394c-0.488,3.235,0.898,6.466,3.578,8.342c2.68,1.877,6.193,2.075,9.064,0.509    c8.952-4.875,19.107-7.453,29.366-7.453c20.243,0,39.119,9.942,50.628,26.609c0.008,0.011,0.014,0.023,0.021,0.034    c0.11,0.158,0.224,0.315,0.333,0.458c0.099,0.144,0.213,0.275,0.32,0.411c0.107,0.138,0.207,0.283,0.322,0.414    c0.113,0.129,0.239,0.242,0.36,0.363c0.126,0.128,0.247,0.263,0.38,0.382c0.124,0.11,0.258,0.205,0.389,0.307    c0.143,0.113,0.28,0.234,0.43,0.338c0.137,0.095,0.283,0.173,0.425,0.26c0.154,0.094,0.303,0.196,0.462,0.28    c0.155,0.082,0.32,0.145,0.479,0.219c0.155,0.07,0.306,0.15,0.465,0.211c0.182,0.07,0.372,0.12,0.559,0.177    c0.145,0.045,0.288,0.1,0.435,0.137c0.214,0.054,0.435,0.085,0.655,0.122c0.126,0.022,0.25,0.054,0.377,0.07    c0.349,0.043,0.702,0.066,1.059,0.066c0.005,0,0.012,0,0.017,0c0.174,0,0.345-0.023,0.518-0.033    c0.179-0.011,0.359-0.012,0.535-0.034c0.144-0.018,0.284-0.054,0.427-0.08c0.202-0.036,0.408-0.065,0.606-0.114    c0.122-0.031,0.238-0.078,0.359-0.113c0.213-0.064,0.429-0.122,0.635-0.202c0.112-0.043,0.219-0.101,0.328-0.15    c0.208-0.09,0.417-0.176,0.617-0.282c0.109-0.058,0.21-0.13,0.316-0.193c0.193-0.113,0.388-0.221,0.571-0.349    c0.121-0.084,0.23-0.184,0.347-0.275c0.158-0.123,0.321-0.239,0.471-0.373c0.143-0.128,0.272-0.274,0.408-0.412    c0.11-0.112,0.227-0.215,0.331-0.335c0.232-0.265,0.448-0.546,0.648-0.841c11.476-16.952,30.528-27.072,50.964-27.072    c12.155,0,23.806,3.605,33.68,10.074v146.023c-1.042,1.425-1.665,3.176-1.665,5.076v55.734c0,1.072-0.872,1.944-1.944,1.944    c-1.073,0-1.945-0.872-1.945-1.944c0-14.315-11.646-25.961-25.96-25.961c-14.313,0-25.959,11.646-25.959,25.961    c0,29.7,24.163,53.864,53.865,53.864s53.865-24.163,53.865-53.864V402.4c0-1.749-0.525-3.375-1.421-4.733v-12.674h5.537    c4.758,0,8.616-3.858,8.616-8.616c0-4.758-3.858-8.616-8.616-8.616h-5.537v-44.326c0-4.758-3.858-8.616-8.616-8.616    c-4.758,0-8.616,3.858-8.616,8.616v70.349h-14.371V268.228c0.015,0.023,0.032,0.044,0.047,0.067    c0.001,0.002,0.002,0.003,0.003,0.005c0.04,0.058,0.087,0.11,0.128,0.167c0.076,0.107,0.158,0.208,0.24,0.311    c0.137,0.173,0.274,0.346,0.422,0.507c0.061,0.068,0.125,0.132,0.19,0.197c0.079,0.08,0.157,0.157,0.238,0.235    c0.003,0.003,0.006,0.006,0.01,0.01c0.056,0.053,0.104,0.112,0.162,0.163c0.058,0.052,0.124,0.095,0.183,0.145    c0.072,0.061,0.148,0.116,0.222,0.176c0.083,0.066,0.162,0.136,0.248,0.198c0.043,0.031,0.083,0.066,0.126,0.097    c0.319,0.225,0.653,0.426,0.997,0.605c0.03,0.016,0.06,0.031,0.092,0.046c0.087,0.044,0.181,0.076,0.27,0.117    c0.288,0.133,0.582,0.251,0.883,0.351c0.068,0.023,0.129,0.058,0.198,0.079c0.059,0.018,0.121,0.024,0.18,0.041    c0.268,0.076,0.54,0.135,0.815,0.185c0.109,0.019,0.218,0.05,0.326,0.065c0.029,0.004,0.058,0.009,0.087,0.013    c0.34,0.044,0.685,0.068,1.033,0.071c0.028,0,0.056,0.006,0.083,0.006c0.044,0,0.088-0.008,0.132-0.009    c0.103-0.001,0.204-0.013,0.306-0.018c0.208-0.011,0.416-0.014,0.62-0.04c0.065-0.008,0.126-0.026,0.191-0.036    c0.041-0.006,0.081-0.016,0.121-0.023c0.128-0.02,0.255-0.044,0.382-0.07c0.11-0.023,0.222-0.036,0.331-0.062    c0.136-0.033,0.266-0.084,0.4-0.125c0.053-0.016,0.106-0.032,0.158-0.05c0.102-0.033,0.205-0.059,0.306-0.096    c0.043-0.015,0.087-0.027,0.13-0.043c0.141-0.054,0.275-0.125,0.414-0.186c0.179-0.08,0.361-0.152,0.534-0.243    c0.015-0.009,0.03-0.017,0.045-0.026c0.06-0.032,0.115-0.073,0.174-0.107c0.055-0.031,0.108-0.067,0.162-0.099    c0.171-0.101,0.346-0.197,0.509-0.311c0.065-0.045,0.123-0.099,0.186-0.145c0.107-0.079,0.208-0.162,0.31-0.245    c0.108-0.087,0.222-0.166,0.326-0.258c0.118-0.106,0.223-0.225,0.336-0.337c0.091-0.089,0.182-0.176,0.268-0.27    c0.045-0.048,0.095-0.092,0.139-0.141c0.234-0.267,0.453-0.549,0.655-0.848c0.016-0.024,0.034-0.046,0.051-0.07v27.202    c0,4.758,3.858,8.616,8.616,8.616c4.758,0,8.616-3.858,8.616-8.616V251.3c9.874-6.47,21.525-10.074,33.681-10.074    c5.109,0,10.131,0.632,14.97,1.846c14.518,3.641,27.386,12.511,35.993,25.225c0.507,0.749,1.131,1.39,1.824,1.934    c0.128,0.101,0.25,0.21,0.383,0.303c0.031,0.022,0.067,0.039,0.098,0.06c1.403,0.951,3.074,1.487,4.818,1.489    c0.003,0,0.008,0,0.012,0c2.85,0,5.516-1.409,7.121-3.764c0.07-0.096,0.137-0.193,0.206-0.29    c11.494-16.787,30.443-26.805,50.769-26.805c10.259,0,20.414,2.577,29.367,7.453c0.341,0.186,0.693,0.344,1.05,0.48    c0.123,0.047,0.249,0.079,0.374,0.12c0.237,0.079,0.473,0.155,0.713,0.212c0.152,0.037,0.306,0.058,0.459,0.086    c0.216,0.039,0.433,0.076,0.652,0.099c0.165,0.017,0.33,0.023,0.494,0.03c0.126,0.005,0.251,0.024,0.377,0.024    c0.008,0,0.018-0.002,0.023,0c0.098,0,0.193-0.012,0.29-0.015c0.107-0.004,0.212-0.009,0.318-0.016    c0.346-0.024,0.687-0.064,1.02-0.128c-0.002,0.003,0.001,0.003,0.003,0.003c0.391-0.075,0.77-0.18,1.141-0.306    c0.003-0.001,0.006-0.002,0.01-0.003c3.39-1.159,5.831-4.365,5.831-8.147C472.406,240.457,472.333,239.814,472.193,239.197z     M133.489,243.45c-14.184-12.398-32.502-19.453-51.794-19.453c-7.478,0-14.915,1.072-22.051,3.148    c16.754-72.128,72.702-128.878,142.522-148.516c-9.717,9.517-18.886,21.714-27.35,36.494    C155.924,148.108,141.473,193.16,133.489,243.45z M197.897,223.997c-1.261,0-2.512,0.04-3.758,0.099    c-0.374,0.017-0.745,0.044-1.119,0.067c-0.911,0.056-1.818,0.128-2.723,0.215c-0.379,0.037-0.757,0.071-1.135,0.113    c-1.135,0.126-2.266,0.272-3.389,0.447c-0.097,0.015-0.195,0.026-0.292,0.041c-1.215,0.193-2.42,0.422-3.619,0.672    c-0.355,0.074-0.709,0.156-1.063,0.235c-0.876,0.195-1.747,0.403-2.614,0.627c-0.374,0.097-0.746,0.192-1.118,0.294    c-1.022,0.28-2.037,0.579-3.045,0.899c-0.159,0.051-0.322,0.095-0.481,0.146c-1.155,0.376-2.297,0.783-3.431,1.211    c-0.328,0.124-0.654,0.256-0.98,0.386c-0.834,0.327-1.661,0.668-2.482,1.022c-0.355,0.154-0.71,0.307-1.062,0.465    c-0.921,0.415-1.833,0.846-2.737,1.297c-0.192,0.096-0.387,0.184-0.578,0.281c-1.079,0.548-2.143,1.123-3.197,1.721    c-0.29,0.165-0.575,0.337-0.864,0.506c-0.784,0.458-1.561,0.928-2.328,1.413c-0.325,0.206-0.651,0.412-0.974,0.622    c-0.826,0.539-1.642,1.094-2.448,1.664c-0.197,0.139-0.398,0.272-0.595,0.414c-0.057,0.041-0.116,0.08-0.173,0.121    c7.84-45.33,21.087-85.619,38.08-115.289c17-29.683,37.175-47.671,57.603-51.653v169.466    C233.541,230.314,216.153,223.997,197.897,223.997z M264.595,411.019v47.118c0,20.199-16.433,36.632-36.633,36.632    c-20.199,0-36.633-16.433-36.633-36.632c0-4.814,3.915-8.729,8.727-8.729c4.813,0,8.728,3.916,8.728,8.729    c0,10.573,8.603,19.176,19.177,19.176c10.573,0,19.176-8.602,19.176-19.176v-47.118H264.595z M263.174,54.077    c-0.229-0.008-0.453-0.004-0.682-0.011c-2.165-0.065-4.333-0.109-6.504-0.109c0,0,0,0-0.001,0h-0.001    c-2.171,0-4.338,0.044-6.502,0.109c-0.229,0.006-0.453,0.003-0.682,0.011V23.922c0-3.689,3.002-6.69,6.69-6.69h0.99    c3.69,0,6.691,3.002,6.691,6.69V54.077z M433.083,224.048c-0.933-0.033-1.868-0.051-2.802-0.051    c-19.294,0-37.616,7.056-51.8,19.458c-0.01-0.059-0.019-0.117-0.028-0.176c-0.221-1.393-0.439-2.785-0.67-4.168    c-0.258-1.551-0.532-3.09-0.803-4.631c-0.558-3.184-1.143-6.341-1.752-9.476c-0.148-0.759-0.292-1.523-0.443-2.279    c-0.419-2.103-0.853-4.191-1.294-6.271c-0.122-0.57-0.245-1.137-0.368-1.706c-1.456-6.729-3.032-13.33-4.728-19.794    c-0.129-0.493-0.256-0.99-0.388-1.482c-0.521-1.958-1.052-3.904-1.595-5.836c-0.218-0.775-0.44-1.542-0.661-2.313    c-0.41-1.43-0.806-2.88-1.228-4.295c-0.039-0.131-0.092-0.255-0.136-0.383c-3.477-11.626-7.335-22.687-11.55-33.031    c-1.795-4.408-6.825-6.523-11.23-4.73c-4.407,1.795-6.525,6.823-4.73,11.23c10.043,24.654,18.015,53.623,23.409,84.862    c-0.058-0.042-0.118-0.081-0.177-0.123c-0.187-0.135-0.38-0.262-0.569-0.395c-0.586-0.415-1.171-0.831-1.767-1.23    c-0.237-0.158-0.48-0.305-0.718-0.46c-0.31-0.202-0.624-0.401-0.937-0.599c-0.789-0.499-1.587-0.982-2.393-1.452    c-0.267-0.156-0.531-0.316-0.8-0.468c-1.067-0.605-2.146-1.189-3.241-1.745c-0.149-0.075-0.302-0.144-0.45-0.219    c-0.949-0.474-1.907-0.927-2.876-1.361c-0.326-0.146-0.654-0.289-0.981-0.431c-0.857-0.372-1.72-0.727-2.59-1.067    c-0.296-0.116-0.591-0.237-0.888-0.349c-1.151-0.435-2.311-0.848-3.483-1.229c-0.116-0.038-0.235-0.07-0.351-0.107    c-1.052-0.336-2.113-0.648-3.181-0.94c-0.35-0.096-0.701-0.185-1.053-0.277c-0.892-0.23-1.788-0.446-2.689-0.645    c-0.336-0.074-0.67-0.153-1.007-0.223c-1.209-0.251-2.424-0.482-3.648-0.677c-0.074-0.012-0.15-0.019-0.224-0.031    c-1.146-0.179-2.298-0.327-3.456-0.457c-0.37-0.041-0.743-0.075-1.115-0.111c-0.911-0.088-1.824-0.16-2.741-0.216    c-0.369-0.023-0.739-0.048-1.109-0.066c-1.247-0.059-2.499-0.099-3.755-0.099c-1.284,0-2.561,0.039-3.835,0.101    c-0.404,0.019-0.806,0.053-1.208,0.079c-0.878,0.056-1.754,0.123-2.627,0.208c-0.456,0.044-0.909,0.095-1.363,0.148    c-0.841,0.097-1.68,0.208-2.515,0.332c-0.431,0.064-0.863,0.125-1.292,0.196c-0.952,0.157-1.899,0.336-2.842,0.528    c-0.292,0.059-0.586,0.109-0.877,0.171c-1.231,0.265-2.454,0.558-3.668,0.88c-0.265,0.07-0.525,0.152-0.788,0.225    c-0.947,0.262-1.889,0.537-2.825,0.835c-0.401,0.127-0.798,0.264-1.196,0.397c-0.806,0.27-1.606,0.551-2.402,0.848    c-0.409,0.152-0.819,0.306-1.225,0.465c-0.818,0.32-1.628,0.656-2.435,1.003c-0.348,0.15-0.698,0.293-1.044,0.448    c-1.13,0.505-2.249,1.031-3.353,1.588c-0.008,0.004-0.015,0.008-0.023,0.011c-1.12,0.567-2.224,1.165-3.316,1.785    c-0.316,0.179-0.624,0.368-0.937,0.551c-0.77,0.451-1.535,0.912-2.29,1.389c-0.365,0.23-0.726,0.466-1.088,0.703    c-0.71,0.465-1.412,0.943-2.107,1.432c-0.345,0.242-0.691,0.482-1.032,0.731c-0.771,0.561-1.529,1.139-2.28,1.729    c-0.238,0.186-0.48,0.365-0.715,0.554c-0.066,0.053-0.134,0.101-0.199,0.154V72.035c21.665,4.189,42.88,24.027,60.528,56.929    c2.25,4.195,7.472,5.771,11.665,3.521c4.194-2.249,5.769-7.472,3.521-11.665c-9.313-17.362-19.526-31.462-30.437-42.171    c0.178,0.05,0.355,0.097,0.533,0.148c0.668,0.191,1.334,0.387,2,0.584c0.666,0.197,1.33,0.395,1.992,0.599    c0.667,0.205,1.33,0.415,1.995,0.626c0.658,0.21,1.314,0.421,1.969,0.638c0.663,0.219,1.326,0.443,1.986,0.669    c0.648,0.222,1.296,0.446,1.941,0.673c0.661,0.234,1.321,0.472,1.98,0.712c0.64,0.234,1.278,0.471,1.915,0.71    c0.659,0.248,1.316,0.5,1.972,0.755c0.629,0.245,1.257,0.493,1.884,0.743c0.657,0.263,1.313,0.529,1.967,0.798    c0.619,0.255,1.237,0.515,1.855,0.776c0.653,0.277,1.305,0.556,1.955,0.84c0.613,0.268,1.225,0.541,1.834,0.814    c0.647,0.291,1.295,0.583,1.939,0.879c0.604,0.279,1.205,0.562,1.805,0.847c0.644,0.305,1.287,0.611,1.928,0.922    c0.595,0.289,1.185,0.584,1.776,0.878c0.642,0.32,1.283,0.64,1.921,0.966c0.582,0.297,1.16,0.601,1.738,0.904    c0.64,0.335,1.279,0.67,1.915,1.011c0.572,0.307,1.141,0.621,1.709,0.934c0.634,0.349,1.269,0.697,1.899,1.052    c0.563,0.318,1.123,0.643,1.684,0.966c0.628,0.362,1.257,0.723,1.88,1.091c0.555,0.327,1.104,0.662,1.655,0.995    c0.622,0.376,1.247,0.751,1.865,1.133c0.543,0.336,1.081,0.68,1.621,1.02c0.62,0.391,1.241,0.78,1.857,1.178    c0.528,0.341,1.049,0.689,1.573,1.035c0.62,0.409,1.242,0.815,1.858,1.231c0.507,0.342,1.009,0.694,1.513,1.04    c0.625,0.43,1.251,0.857,1.872,1.293c0.482,0.34,0.959,0.689,1.439,1.033c0.632,0.453,1.266,0.905,1.893,1.365    c0.452,0.333,0.898,0.673,1.347,1.01c0.646,0.484,1.296,0.964,1.936,1.455c0.366,0.28,0.726,0.569,1.089,0.851    c2.481,1.929,4.916,3.914,7.306,5.953c0.357,0.305,0.717,0.603,1.072,0.91c0.603,0.522,1.197,1.054,1.793,1.583    c0.428,0.379,0.858,0.753,1.283,1.135c0.57,0.514,1.131,1.036,1.695,1.556c0.442,0.407,0.887,0.811,1.326,1.221    c0.547,0.513,1.086,1.035,1.626,1.554c0.447,0.429,0.897,0.854,1.341,1.287c0.527,0.514,1.045,1.036,1.566,1.556    c0.449,0.448,0.899,0.893,1.344,1.344c0.509,0.518,1.011,1.043,1.515,1.566c0.446,0.463,0.895,0.924,1.337,1.393    c0.496,0.524,0.985,1.057,1.475,1.587c0.439,0.475,0.88,0.948,1.314,1.426c0.484,0.533,0.961,1.072,1.439,1.61    c0.432,0.487,0.866,0.971,1.293,1.461c0.47,0.54,0.934,1.085,1.398,1.628c0.425,0.499,0.852,0.997,1.273,1.5    c0.457,0.545,0.907,1.095,1.358,1.646c0.419,0.51,0.838,1.021,1.251,1.537c0.444,0.552,0.882,1.109,1.32,1.667    c0.409,0.521,0.82,1.043,1.223,1.568c0.431,0.56,0.857,1.123,1.283,1.688c0.402,0.533,0.803,1.067,1.201,1.605    c0.417,0.564,0.829,1.133,1.241,1.702c0.394,0.545,0.786,1.091,1.175,1.64c0.404,0.572,0.805,1.146,1.203,1.722    c0.384,0.555,0.767,1.112,1.145,1.67c0.392,0.578,0.78,1.16,1.166,1.743c0.375,0.565,0.746,1.133,1.116,1.702    c0.378,0.583,0.753,1.169,1.124,1.755c0.366,0.578,0.73,1.16,1.091,1.743c0.364,0.588,0.725,1.177,1.083,1.77    c0.357,0.588,0.709,1.179,1.059,1.772c0.351,0.595,0.701,1.19,1.046,1.789c0.346,0.598,0.686,1.199,1.025,1.801    c0.338,0.6,0.675,1.201,1.007,1.806c0.335,0.609,0.665,1.22,0.993,1.832c0.324,0.605,0.648,1.211,0.967,1.819    c0.324,0.619,0.643,1.242,0.961,1.864c0.311,0.611,0.622,1.22,0.927,1.834c0.312,0.629,0.619,1.261,0.925,1.893    c0.297,0.615,0.596,1.229,0.887,1.847c0.302,0.64,0.597,1.284,0.892,1.928c0.283,0.618,0.568,1.235,0.845,1.857    c0.291,0.651,0.573,1.306,0.857,1.961c0.269,0.621,0.541,1.243,0.803,1.867c0.279,0.663,0.55,1.33,0.823,1.997    c0.254,0.622,0.512,1.244,0.759,1.871c0.268,0.676,0.528,1.357,0.788,2.038c0.239,0.624,0.482,1.246,0.716,1.873    c0.258,0.694,0.506,1.391,0.757,2.089c0.223,0.618,0.449,1.235,0.666,1.857c0.25,0.717,0.489,1.44,0.731,2.16    c0.205,0.609,0.414,1.216,0.612,1.827c0.242,0.745,0.472,1.496,0.705,2.246c0.185,0.593,0.376,1.184,0.555,1.78    c0.239,0.793,0.464,1.591,0.694,2.388c0.16,0.558,0.327,1.114,0.484,1.674c0.248,0.888,0.48,1.784,0.715,2.677    c0.125,0.474,0.256,0.946,0.378,1.421c0.35,1.372,0.686,2.748,1.007,4.131C446.087,225.327,439.614,224.281,433.083,224.048z" fill="#6cacd9"/>
	</g>
</g>
<g>
</g>
<g>
</g>
<g>
</g>
<g>
</g>
<g>
</g>
<g>
</g>
<g>
</g>
<g>
</g>
<g>
</g>
<g>
</g>
<g>
</g>
<g>
</g>
<g>
</g>
<g>
</g>
<g>
</g>
</svg>
